<svg width="992" height="640" viewBox="0 0 992 640" fill="none" xmlns="http://www.w3.org/2000/svg">
<g clip-path="url(#clip0_2068_8214)">
<rect width="992" height="640" rx="24" fill="#CBB0EB"/>
<g clip-path="url(#clip1_2068_8214)">
<path d="M106.949 569.677C95.1089 563.138 89.1889 559.868 88.1571 554.289C87.1253 548.71 91.4845 543.539 100.203 533.198L131.007 496.661C137.087 489.449 140.127 485.844 144.35 485.062C148.574 484.281 152.702 486.561 160.959 491.121L183.198 503.404C191.455 507.964 195.583 510.244 197.171 514.235C198.759 518.226 197.327 522.719 194.461 531.705L179.94 577.236C175.83 590.122 173.775 596.565 168.503 598.663C163.232 600.761 157.312 597.491 145.472 590.952L106.949 569.677Z" fill="#E5D7F5"/>
</g>
<g clip-path="url(#clip2_2068_8214)">
<path d="M809.665 179.679C796.462 172.387 789.861 168.741 786.146 163.458C782.548 158.341 780.768 152.168 781.088 145.921C781.418 139.471 785.064 132.87 792.355 119.667C799.648 106.463 803.294 99.8607 808.578 96.146C813.695 92.5483 819.868 90.7679 826.114 91.0879C832.565 91.4183 839.167 95.0648 852.373 102.358C865.575 109.649 872.176 113.295 875.891 118.578C879.488 123.695 881.269 129.869 880.949 136.115C880.619 142.565 876.973 149.167 869.681 162.37C862.388 175.574 858.742 182.176 853.458 185.891C848.342 189.488 842.169 191.268 835.924 190.949C829.472 190.619 822.87 186.972 809.665 179.679Z" fill="#847399"/>
</g>
<path d="M162 102.4C162 88.9587 162 82.2381 164.616 77.1042C166.917 72.5883 170.588 68.9168 175.104 66.6158C180.238 64 186.959 64 200.4 64H791.6C805.041 64 811.762 64 816.896 66.6158C821.412 68.9168 825.083 72.5883 827.384 77.1042C830 82.2381 830 88.9587 830 102.4V747H162V102.4Z" fill="white"/>
<path d="M214.141 151.297C212.719 151.297 211.875 150.438 211.875 148.938V130.5C211.875 129 212.75 128.141 214.25 128.141C215.219 128.141 215.875 128.531 216.594 129.516L226.344 143.141H226.469V130.516C226.469 129 227.312 128.141 228.734 128.141C230.156 128.141 230.984 129 230.984 130.516V149C230.984 150.469 230.156 151.297 228.672 151.297C227.656 151.297 227.031 150.938 226.312 149.938L216.531 136.234H216.391V148.938C216.391 150.438 215.547 151.297 214.141 151.297ZM242.062 151.359C236.828 151.359 233.75 148.125 233.75 142.703C233.75 137.312 236.891 133.891 241.844 133.891C246.594 133.891 249.781 137.141 249.781 141.688C249.781 142.953 249.062 143.672 247.797 143.672H238.234V143.875C238.234 146.359 239.734 147.984 242.047 147.984C243.719 147.984 244.812 147.422 246.047 145.969C246.531 145.469 246.938 145.297 247.531 145.297C248.516 145.297 249.312 145.922 249.312 146.969C249.312 147.328 249.203 147.703 249 148.078C247.891 150.141 245.297 151.359 242.062 151.359ZM238.281 140.875H245.391C245.297 138.688 243.891 137.266 241.891 137.266C239.891 137.266 238.438 138.734 238.281 140.875ZM257.672 151.328C256.094 151.328 255.266 150.594 254.781 148.938L251.406 137.266C251.234 136.672 251.156 136.297 251.156 135.859C251.156 134.719 252.078 133.906 253.359 133.906C254.5 133.906 255.234 134.594 255.5 135.844L257.984 146.672H258.078L260.672 136C260.969 134.641 261.859 133.906 263.25 133.906C264.609 133.906 265.5 134.641 265.797 136L268.406 146.672H268.5L271 135.812C271.25 134.594 271.984 133.906 273.109 133.906C274.375 133.906 275.266 134.703 275.266 135.844C275.266 136.266 275.188 136.641 275.016 137.234L271.641 148.922C271.172 150.578 270.297 151.328 268.719 151.328C267.047 151.328 266.156 150.609 265.766 148.906L263.219 139.156H263.125L260.594 148.938C260.203 150.594 259.297 151.328 257.672 151.328ZM291.375 151.359C286.141 151.359 283.062 148.125 283.062 142.703C283.062 137.312 286.203 133.891 291.156 133.891C295.906 133.891 299.094 137.141 299.094 141.688C299.094 142.953 298.375 143.672 297.109 143.672H287.547V143.875C287.547 146.359 289.047 147.984 291.359 147.984C293.031 147.984 294.125 147.422 295.359 145.969C295.844 145.469 296.25 145.297 296.844 145.297C297.828 145.297 298.625 145.922 298.625 146.969C298.625 147.328 298.516 147.703 298.312 148.078C297.203 150.141 294.609 151.359 291.375 151.359ZM287.594 140.875H294.703C294.609 138.688 293.203 137.266 291.203 137.266C289.203 137.266 287.75 138.734 287.594 140.875ZM303.734 151.328C302.375 151.328 301.453 150.5 301.453 148.953V136.234C301.453 134.703 302.359 133.906 303.656 133.906C304.953 133.906 305.859 134.703 305.859 136.234V137.281H305.953C306.656 135.266 308.453 133.938 310.734 133.938C313.156 133.938 314.844 135.188 315.406 137.375H315.5C316.25 135.266 318.25 133.938 320.703 133.938C323.984 133.938 326.188 136.188 326.188 139.562V148.953C326.188 150.5 325.25 151.328 323.891 151.328C322.547 151.328 321.625 150.5 321.625 148.953V140.703C321.625 138.766 320.656 137.703 318.891 137.703C317.156 137.703 316.016 138.969 316.016 140.828V148.953C316.016 150.5 315.172 151.328 313.812 151.328C312.469 151.328 311.625 150.5 311.625 148.953V140.562C311.625 138.766 310.609 137.703 308.922 137.703C307.188 137.703 306.016 139.016 306.016 140.891V148.953C306.016 150.5 305.078 151.328 303.734 151.328ZM334.031 151.266C330.844 151.266 328.422 149.203 328.422 146.188C328.422 143.141 330.766 141.375 334.953 141.125L339.172 140.875V139.766C339.172 138.203 338.078 137.297 336.359 137.297C334.969 137.297 334.125 137.75 333.109 139.062C332.609 139.625 332.031 139.906 331.297 139.906C330.188 139.906 329.391 139.188 329.391 138.156C329.391 137.797 329.469 137.469 329.625 137.125C330.406 135.125 333.094 133.891 336.562 133.891C340.859 133.891 343.656 136.109 343.656 139.484V149.031C343.656 150.547 342.734 151.328 341.438 151.328C340.203 151.328 339.344 150.641 339.25 149.297V148.438H339.156C338.219 150.219 336.125 151.266 334.031 151.266ZM335.531 147.969C337.531 147.969 339.172 146.672 339.172 144.859V143.641L335.641 143.859C333.938 143.984 332.969 144.75 332.969 145.938C332.969 147.188 334 147.969 335.531 147.969ZM348.969 132.172C347.594 132.172 346.531 131.125 346.531 129.812C346.531 128.484 347.594 127.453 348.969 127.453C350.344 127.453 351.406 128.484 351.406 129.812C351.406 131.125 350.344 132.172 348.969 132.172ZM348.969 151.328C347.547 151.328 346.688 150.438 346.688 148.953V136.297C346.688 134.812 347.547 133.906 348.969 133.906C350.375 133.906 351.25 134.812 351.25 136.297V148.953C351.25 150.438 350.375 151.328 348.969 151.328ZM356.688 151.328C355.359 151.328 354.406 150.516 354.406 148.953V130.5C354.406 128.938 355.359 128.109 356.688 128.109C358.031 128.109 358.969 128.938 358.969 130.5V148.953C358.969 150.516 358.031 151.328 356.688 151.328Z" fill="#1F1738"/>
<path d="M216.201 197.234C213.389 197.234 211.514 196.062 210.967 194.461C210.879 194.227 210.83 193.973 210.83 193.738C210.83 193.035 211.279 192.586 211.943 192.586C212.5 192.586 212.852 192.811 213.125 193.377C213.564 194.598 214.775 195.145 216.279 195.145C217.979 195.145 219.17 194.305 219.17 193.133C219.17 192.117 218.467 191.492 216.631 191.111L215.117 190.799C212.295 190.223 210.977 188.895 210.977 186.834C210.977 184.354 213.154 182.674 216.211 182.674C218.701 182.674 220.635 183.787 221.211 185.652C221.27 185.809 221.299 185.994 221.299 186.229C221.299 186.844 220.859 187.264 220.205 187.264C219.619 187.264 219.258 187.01 218.994 186.463C218.516 185.271 217.51 184.764 216.191 184.764C214.629 184.764 213.516 185.506 213.516 186.688C213.516 187.645 214.219 188.26 215.977 188.631L217.49 188.943C220.459 189.559 221.709 190.75 221.709 192.84C221.709 195.535 219.59 197.234 216.201 197.234ZM226.982 197.186C224.736 197.186 223.311 195.73 223.311 193.338V187.723C223.311 186.912 223.809 186.443 224.521 186.443C225.234 186.443 225.742 186.912 225.742 187.732V192.85C225.742 194.334 226.465 195.135 227.832 195.135C229.238 195.135 230.107 194.139 230.107 192.635V187.723C230.107 186.912 230.615 186.443 231.328 186.443C232.031 186.443 232.539 186.912 232.539 187.732V195.965C232.539 196.746 232.07 197.195 231.377 197.195C230.674 197.195 230.195 196.746 230.195 195.965V195.203H230.146C229.6 196.463 228.555 197.186 226.982 197.186ZM235.781 197.195C235.078 197.195 234.6 196.766 234.6 195.975V183.992C234.6 183.172 235.107 182.713 235.82 182.713C236.533 182.713 237.031 183.172 237.031 183.992V188.426H237.09C237.686 187.215 238.857 186.473 240.332 186.473C242.939 186.473 244.6 188.514 244.6 191.824C244.6 195.135 242.949 197.166 240.322 197.166C238.809 197.166 237.646 196.434 237.031 195.232H236.982V195.975C236.982 196.756 236.484 197.195 235.781 197.195ZM239.58 195.174C241.133 195.174 242.109 193.885 242.109 191.824C242.109 189.773 241.133 188.475 239.58 188.475C238.076 188.475 237.021 189.812 237.021 191.824C237.021 193.855 238.076 195.174 239.58 195.174ZM247.432 185.193C246.68 185.193 246.074 184.607 246.074 183.875C246.074 183.133 246.68 182.557 247.432 182.557C248.193 182.557 248.789 183.133 248.789 183.875C248.789 184.607 248.193 185.193 247.432 185.193ZM247.432 186.443C248.145 186.443 248.643 186.912 248.643 187.732V197.654C248.643 199.559 247.568 200.633 245.801 200.633H245.762C244.844 200.633 244.297 200.252 244.297 199.607C244.297 199.129 244.57 198.836 245.166 198.738L245.273 198.719C245.957 198.611 246.211 198.23 246.211 197.488V187.723C246.211 186.912 246.719 186.443 247.432 186.443ZM255.303 197.205C252.139 197.205 250.273 195.223 250.273 191.863C250.273 188.562 252.178 186.434 255.166 186.434C257.998 186.434 259.932 188.445 259.932 191.258C259.932 191.98 259.521 192.41 258.799 192.41H252.695V192.488C252.695 194.217 253.701 195.33 255.283 195.33C256.377 195.33 257.09 194.949 257.871 193.953C258.125 193.67 258.35 193.562 258.691 193.562C259.238 193.562 259.668 193.914 259.668 194.5C259.668 194.686 259.609 194.9 259.502 195.115C258.818 196.434 257.275 197.205 255.303 197.205ZM252.715 190.809H257.549C257.5 189.305 256.543 188.318 255.176 188.318C253.809 188.318 252.812 189.324 252.715 190.809ZM266.055 197.205C263.027 197.205 261.074 195.154 261.074 191.834C261.074 188.533 263.018 186.434 266.035 186.434C268.066 186.434 269.795 187.479 270.293 188.934C270.371 189.139 270.42 189.344 270.42 189.52C270.42 190.125 269.961 190.496 269.375 190.496C268.887 190.496 268.594 190.291 268.311 189.803C267.793 188.855 267.109 188.406 266.104 188.406C264.541 188.406 263.545 189.705 263.545 191.824C263.545 193.973 264.551 195.242 266.094 195.242C267.168 195.242 267.832 194.744 268.301 193.914C268.633 193.367 268.896 193.162 269.424 193.162C270 193.162 270.449 193.553 270.449 194.158C270.449 194.344 270.4 194.549 270.303 194.783C269.727 196.199 268.008 197.205 266.055 197.205ZM272.764 194.441V188.523H272.109C271.504 188.523 271.133 188.162 271.133 187.576C271.133 187 271.504 186.648 272.109 186.648H272.764V185.271C272.764 184.49 273.232 184.002 273.984 184.002C274.727 184.002 275.195 184.49 275.195 185.271V186.648H276.318C276.924 186.648 277.295 187 277.295 187.576C277.295 188.162 276.924 188.523 276.318 188.523H275.195V193.914C275.195 194.695 275.469 195.037 276.172 195.096L276.348 195.115C276.992 195.174 277.324 195.447 277.324 196.014C277.324 196.727 276.699 197.107 275.586 197.107H275.488C273.682 197.107 272.764 196.209 272.764 194.441Z" fill="#847399"/>
<path d="M210.75 229C210.75 220.578 217.578 213.75 226 213.75H788C796.422 213.75 803.25 220.578 803.25 229V258C803.25 266.422 796.422 273.25 788 273.25H226C217.578 273.25 210.75 266.422 210.75 258V229Z" stroke="#E5D7F5" stroke-width="1.5"/>
<path d="M238.342 250.211C236.531 250.211 235.116 249.35 234.562 247.943C234.439 247.601 234.369 247.319 234.369 246.95C234.369 246.282 234.782 245.86 235.424 245.86C235.995 245.86 236.329 246.142 236.514 246.783C236.777 247.715 237.41 248.225 238.315 248.225C239.528 248.225 240.188 247.486 240.188 246.115V238.346C240.188 237.599 240.609 237.168 241.321 237.168C242.024 237.168 242.446 237.599 242.446 238.346V246.133C242.446 248.717 240.917 250.211 238.342 250.211ZM248.651 250.185C245.918 250.185 244.143 248.365 244.143 245.342C244.143 242.336 245.936 240.49 248.651 240.49C251.367 240.49 253.16 242.327 253.16 245.342C253.16 248.365 251.385 250.185 248.651 250.185ZM248.651 248.453C250.04 248.453 250.937 247.328 250.937 245.342C250.937 243.364 250.04 242.23 248.651 242.23C247.271 242.23 246.366 243.364 246.366 245.342C246.366 247.328 247.263 248.453 248.651 248.453ZM255.709 239.374C255.032 239.374 254.496 238.847 254.496 238.188C254.496 237.52 255.032 237.001 255.709 237.001C256.395 237.001 256.931 237.52 256.931 238.188C256.931 238.847 256.395 239.374 255.709 239.374ZM255.709 250.176C255.041 250.176 254.619 249.736 254.619 249.024V241.65C254.619 240.947 255.041 240.499 255.709 240.499C256.377 240.499 256.808 240.947 256.808 241.659V249.024C256.808 249.736 256.377 250.176 255.709 250.176ZM259.734 250.176C259.093 250.176 258.645 249.763 258.645 249.024V241.606C258.645 240.93 259.04 240.499 259.69 240.499C260.332 240.499 260.771 240.93 260.771 241.606V242.257H260.815C261.316 241.149 262.283 240.508 263.716 240.508C265.772 240.508 266.941 241.826 266.941 243.979V249.024C266.941 249.763 266.493 250.176 265.852 250.176C265.21 250.176 264.753 249.763 264.753 249.024V244.419C264.753 243.101 264.138 242.362 262.89 242.362C261.633 242.362 260.833 243.268 260.833 244.604V249.024C260.833 249.763 260.376 250.176 259.734 250.176ZM276.425 250.185C273.691 250.185 271.916 248.365 271.916 245.342C271.916 242.336 273.709 240.49 276.425 240.49C279.141 240.49 280.934 242.327 280.934 245.342C280.934 248.365 279.158 250.185 276.425 250.185ZM276.425 248.453C277.813 248.453 278.71 247.328 278.71 245.342C278.71 243.364 277.813 242.23 276.425 242.23C275.045 242.23 274.14 243.364 274.14 245.342C274.14 247.328 275.036 248.453 276.425 248.453ZM285.601 250.167C283.579 250.167 282.296 248.857 282.296 246.704V241.65C282.296 240.921 282.744 240.499 283.386 240.499C284.027 240.499 284.484 240.921 284.484 241.659V246.265C284.484 247.601 285.135 248.321 286.365 248.321C287.631 248.321 288.413 247.425 288.413 246.071V241.65C288.413 240.921 288.87 240.499 289.512 240.499C290.145 240.499 290.602 240.921 290.602 241.659V249.068C290.602 249.771 290.18 250.176 289.556 250.176C288.923 250.176 288.492 249.771 288.492 249.068V248.383H288.448C287.956 249.517 287.016 250.167 285.601 250.167ZM293.484 250.176C292.825 250.176 292.395 249.745 292.395 249.024V241.606C292.395 240.921 292.816 240.499 293.44 240.499C294.047 240.499 294.478 240.921 294.478 241.606V242.318H294.521C294.776 241.229 295.585 240.525 296.517 240.525C296.859 240.525 297.123 240.613 297.29 240.763C297.492 240.93 297.598 241.193 297.598 241.554C297.598 241.896 297.492 242.151 297.272 242.327C297.062 242.512 296.736 242.608 296.306 242.617C295.058 242.626 294.583 243.408 294.583 244.542V249.024C294.583 249.745 294.144 250.176 293.484 250.176ZM306.281 250.185C303.557 250.185 301.799 248.339 301.799 245.351C301.799 242.38 303.548 240.49 306.264 240.49C308.092 240.49 309.647 241.431 310.096 242.74C310.166 242.925 310.21 243.109 310.21 243.268C310.21 243.812 309.797 244.146 309.27 244.146C308.83 244.146 308.566 243.962 308.312 243.522C307.846 242.67 307.23 242.266 306.325 242.266C304.919 242.266 304.022 243.435 304.022 245.342C304.022 247.275 304.928 248.418 306.316 248.418C307.283 248.418 307.881 247.97 308.303 247.223C308.602 246.73 308.839 246.546 309.313 246.546C309.832 246.546 310.236 246.897 310.236 247.442C310.236 247.609 310.192 247.794 310.104 248.005C309.586 249.279 308.039 250.185 306.281 250.185ZM315.835 250.185C313.102 250.185 311.326 248.365 311.326 245.342C311.326 242.336 313.119 240.49 315.835 240.49C318.551 240.49 320.344 242.327 320.344 245.342C320.344 248.365 318.568 250.185 315.835 250.185ZM315.835 248.453C317.224 248.453 318.12 247.328 318.12 245.342C318.12 243.364 317.224 242.23 315.835 242.23C314.455 242.23 313.55 243.364 313.55 245.342C313.55 247.328 314.446 248.453 315.835 248.453ZM322.84 250.176C322.181 250.176 321.75 249.754 321.75 249.024V241.615C321.75 240.903 322.181 240.499 322.796 240.499C323.411 240.499 323.851 240.903 323.851 241.615V242.301H323.895C324.299 241.22 325.283 240.508 326.549 240.508C327.867 240.508 328.808 241.185 329.15 242.38H329.203C329.651 241.229 330.759 240.508 332.104 240.508C333.94 240.508 335.145 241.747 335.145 243.61V249.024C335.145 249.754 334.705 250.176 334.055 250.176C333.396 250.176 332.956 249.754 332.956 249.024V244.146C332.956 243.004 332.358 242.354 331.286 242.354C330.231 242.354 329.511 243.127 329.511 244.243V249.024C329.511 249.754 329.098 250.176 328.447 250.176C327.788 250.176 327.384 249.754 327.384 249.024V244.032C327.384 242.995 326.751 242.354 325.731 242.354C324.677 242.354 323.938 243.171 323.938 244.296V249.024C323.938 249.754 323.49 250.176 322.84 250.176ZM337.992 253.313C337.351 253.313 336.902 252.9 336.902 252.162V241.624C336.902 240.903 337.342 240.499 337.966 240.499C338.59 240.499 339.038 240.903 339.038 241.624V242.292H339.082C339.609 241.211 340.664 240.525 342.018 240.525C344.382 240.525 345.885 242.362 345.885 245.342C345.885 248.312 344.391 250.149 342.053 250.149C340.699 250.149 339.645 249.499 339.135 248.453H339.091V252.162C339.091 252.9 338.634 253.313 337.992 253.313ZM341.35 248.356C342.765 248.356 343.644 247.188 343.644 245.342C343.644 243.505 342.765 242.327 341.35 242.327C339.987 242.327 339.082 243.531 339.073 245.342C339.082 247.17 339.987 248.356 341.35 248.356ZM348.381 250.176C347.722 250.176 347.291 249.745 347.291 249.024V241.606C347.291 240.921 347.713 240.499 348.337 240.499C348.943 240.499 349.374 240.921 349.374 241.606V242.318H349.418C349.673 241.229 350.481 240.525 351.413 240.525C351.756 240.525 352.02 240.613 352.187 240.763C352.389 240.93 352.494 241.193 352.494 241.554C352.494 241.896 352.389 242.151 352.169 242.327C351.958 242.512 351.633 242.608 351.202 242.617C349.954 242.626 349.479 243.408 349.479 244.542V249.024C349.479 249.745 349.04 250.176 348.381 250.176ZM357.267 250.185C354.419 250.185 352.74 248.4 352.74 245.377C352.74 242.406 354.454 240.49 357.144 240.49C359.692 240.49 361.433 242.301 361.433 244.832C361.433 245.482 361.063 245.869 360.413 245.869H354.92V245.939C354.92 247.495 355.825 248.497 357.249 248.497C358.233 248.497 358.875 248.154 359.578 247.258C359.807 247.003 360.009 246.906 360.316 246.906C360.809 246.906 361.195 247.223 361.195 247.75C361.195 247.917 361.143 248.11 361.046 248.304C360.431 249.49 359.042 250.185 357.267 250.185ZM354.938 244.428H359.288C359.244 243.074 358.383 242.187 357.152 242.187C355.922 242.187 355.025 243.092 354.938 244.428ZM364.008 250.176C363.366 250.176 362.909 249.763 362.909 249.024V238.267C362.909 237.572 363.322 237.142 363.99 237.142C364.667 237.142 365.071 237.572 365.071 238.267V242.283H365.115C365.616 241.149 366.645 240.508 368.06 240.508C370.116 240.508 371.32 241.861 371.32 243.997V249.024C371.32 249.763 370.863 250.176 370.222 250.176C369.58 250.176 369.132 249.763 369.132 249.024V244.445C369.132 243.145 368.481 242.362 367.216 242.362C365.897 242.362 365.098 243.276 365.098 244.647V249.024C365.098 249.763 364.649 250.176 364.008 250.176ZM377.218 250.185C374.37 250.185 372.691 248.4 372.691 245.377C372.691 242.406 374.405 240.49 377.095 240.49C379.644 240.49 381.384 242.301 381.384 244.832C381.384 245.482 381.015 245.869 380.364 245.869H374.871V245.939C374.871 247.495 375.776 248.497 377.2 248.497C378.185 248.497 378.826 248.154 379.529 247.258C379.758 247.003 379.96 246.906 380.268 246.906C380.76 246.906 381.146 247.223 381.146 247.75C381.146 247.917 381.094 248.11 380.997 248.304C380.382 249.49 378.993 250.185 377.218 250.185ZM374.889 244.428H379.239C379.195 243.074 378.334 242.187 377.104 242.187C375.873 242.187 374.977 243.092 374.889 244.428ZM383.889 250.176C383.247 250.176 382.799 249.763 382.799 249.024V241.606C382.799 240.93 383.194 240.499 383.845 240.499C384.486 240.499 384.926 240.93 384.926 241.606V242.257H384.97C385.471 241.149 386.438 240.508 387.87 240.508C389.927 240.508 391.096 241.826 391.096 243.979V249.024C391.096 249.763 390.647 250.176 390.006 250.176C389.364 250.176 388.907 249.763 388.907 249.024V244.419C388.907 243.101 388.292 242.362 387.044 242.362C385.787 242.362 384.987 243.268 384.987 244.604V249.024C384.987 249.763 384.53 250.176 383.889 250.176ZM396.448 250.185C394.479 250.185 393.1 249.429 392.651 248.312C392.59 248.154 392.563 248.014 392.563 247.882C392.563 247.354 392.95 247.021 393.478 247.021C393.838 247.021 394.146 247.188 394.427 247.557C394.919 248.269 395.481 248.585 396.527 248.585C397.547 248.585 398.224 248.154 398.224 247.451C398.224 246.889 397.872 246.581 396.914 246.361L395.402 246.019C393.583 245.605 392.687 244.709 392.687 243.355C392.687 241.624 394.181 240.49 396.483 240.49C398.276 240.49 399.665 241.369 399.955 242.441C399.981 242.556 399.999 242.661 399.999 242.767C399.999 243.224 399.709 243.549 399.155 243.549C398.839 243.549 398.522 243.435 398.32 243.145C397.89 242.503 397.354 242.099 396.431 242.099C395.473 242.099 394.813 242.564 394.813 243.232C394.813 243.777 395.218 244.146 396.185 244.366L397.67 244.691C399.639 245.14 400.421 245.852 400.421 247.231C400.421 249.016 398.821 250.185 396.448 250.185ZM402.943 239.374C402.267 239.374 401.73 238.847 401.73 238.188C401.73 237.52 402.267 237.001 402.943 237.001C403.629 237.001 404.165 237.52 404.165 238.188C404.165 238.847 403.629 239.374 402.943 239.374ZM402.943 250.176C402.275 250.176 401.854 249.736 401.854 249.024V241.65C401.854 240.947 402.275 240.499 402.943 240.499C403.611 240.499 404.042 240.947 404.042 241.659V249.024C404.042 249.736 403.611 250.176 402.943 250.176ZM409.605 250.176C408.797 250.176 408.357 249.851 408.067 249.06L405.448 242.116C405.378 241.923 405.325 241.703 405.325 241.492C405.325 240.895 405.791 240.499 406.424 240.499C406.942 240.499 407.294 240.78 407.461 241.369L409.588 247.97H409.632L411.759 241.352C411.926 240.771 412.277 240.499 412.787 240.499C413.402 240.499 413.851 240.921 413.851 241.483C413.851 241.686 413.807 241.896 413.736 242.081L411.117 249.06C410.845 249.824 410.379 250.176 409.605 250.176ZM418.966 250.185C416.118 250.185 414.439 248.4 414.439 245.377C414.439 242.406 416.153 240.49 418.843 240.49C421.392 240.49 423.132 242.301 423.132 244.832C423.132 245.482 422.763 245.869 422.112 245.869H416.619V245.939C416.619 247.495 417.524 248.497 418.948 248.497C419.933 248.497 420.574 248.154 421.277 247.258C421.506 247.003 421.708 246.906 422.016 246.906C422.508 246.906 422.895 247.223 422.895 247.75C422.895 247.917 422.842 248.11 422.745 248.304C422.13 249.49 420.741 250.185 418.966 250.185ZM416.637 244.428H420.987C420.943 243.074 420.082 242.187 418.852 242.187C417.621 242.187 416.725 243.092 416.637 244.428ZM429.469 250.149C428.783 250.149 428.37 249.728 428.37 249.007V238.337C428.37 237.607 428.818 237.168 429.548 237.168C430.049 237.168 430.356 237.344 430.726 237.845L436.632 246.203H436.711V238.311C436.711 237.59 437.124 237.168 437.801 237.168C438.486 237.168 438.891 237.59 438.891 238.311V249.016C438.891 249.736 438.478 250.149 437.739 250.149C437.221 250.149 436.922 249.982 436.562 249.473L430.638 241.105H430.559V249.007C430.559 249.728 430.146 250.149 429.469 250.149ZM444.173 250.167C442.151 250.167 440.868 248.857 440.868 246.704V241.65C440.868 240.921 441.316 240.499 441.958 240.499C442.6 240.499 443.057 240.921 443.057 241.659V246.265C443.057 247.601 443.707 248.321 444.938 248.321C446.203 248.321 446.985 247.425 446.985 246.071V241.65C446.985 240.921 447.442 240.499 448.084 240.499C448.717 240.499 449.174 240.921 449.174 241.659V249.068C449.174 249.771 448.752 250.176 448.128 250.176C447.495 250.176 447.064 249.771 447.064 249.068V248.383H447.021C446.528 249.517 445.588 250.167 444.173 250.167ZM451.573 247.697V242.371H450.984C450.439 242.371 450.105 242.046 450.105 241.519C450.105 241 450.439 240.684 450.984 240.684H451.573V239.444C451.573 238.741 451.995 238.302 452.672 238.302C453.34 238.302 453.762 238.741 453.762 239.444V240.684H454.772C455.317 240.684 455.651 241 455.651 241.519C455.651 242.046 455.317 242.371 454.772 242.371H453.762V247.223C453.762 247.926 454.008 248.233 454.641 248.286L454.799 248.304C455.379 248.356 455.678 248.603 455.678 249.112C455.678 249.754 455.115 250.097 454.113 250.097H454.025C452.399 250.097 451.573 249.288 451.573 247.697ZM458.104 250.176C457.444 250.176 457.014 249.745 457.014 249.024V241.606C457.014 240.921 457.436 240.499 458.06 240.499C458.666 240.499 459.097 240.921 459.097 241.606V242.318H459.141C459.396 241.229 460.204 240.525 461.136 240.525C461.479 240.525 461.742 240.613 461.909 240.763C462.111 240.93 462.217 241.193 462.217 241.554C462.217 241.896 462.111 242.151 461.892 242.327C461.681 242.512 461.355 242.608 460.925 242.617C459.677 242.626 459.202 243.408 459.202 244.542V249.024C459.202 249.745 458.763 250.176 458.104 250.176ZM464.344 239.374C463.667 239.374 463.131 238.847 463.131 238.188C463.131 237.52 463.667 237.001 464.344 237.001C465.029 237.001 465.565 237.52 465.565 238.188C465.565 238.847 465.029 239.374 464.344 239.374ZM464.344 250.176C463.676 250.176 463.254 249.736 463.254 249.024V241.65C463.254 240.947 463.676 240.499 464.344 240.499C465.012 240.499 465.442 240.947 465.442 241.659V249.024C465.442 249.736 465.012 250.176 464.344 250.176ZM467.886 247.697V242.371H467.297C466.752 242.371 466.418 242.046 466.418 241.519C466.418 241 466.752 240.684 467.297 240.684H467.886V239.444C467.886 238.741 468.308 238.302 468.984 238.302C469.652 238.302 470.074 238.741 470.074 239.444V240.684H471.085C471.63 240.684 471.964 241 471.964 241.519C471.964 242.046 471.63 242.371 471.085 242.371H470.074V247.223C470.074 247.926 470.32 248.233 470.953 248.286L471.111 248.304C471.691 248.356 471.99 248.603 471.99 249.112C471.99 249.754 471.428 250.097 470.426 250.097H470.338C468.712 250.097 467.886 249.288 467.886 247.697ZM474.469 239.374C473.792 239.374 473.256 238.847 473.256 238.188C473.256 237.52 473.792 237.001 474.469 237.001C475.154 237.001 475.69 237.52 475.69 238.188C475.69 238.847 475.154 239.374 474.469 239.374ZM474.469 250.176C473.801 250.176 473.379 249.736 473.379 249.024V241.65C473.379 240.947 473.801 240.499 474.469 240.499C475.137 240.499 475.567 240.947 475.567 241.659V249.024C475.567 249.736 475.137 250.176 474.469 250.176ZM481.526 250.185C478.793 250.185 477.018 248.365 477.018 245.342C477.018 242.336 478.811 240.49 481.526 240.49C484.242 240.49 486.035 242.327 486.035 245.342C486.035 248.365 484.26 250.185 481.526 250.185ZM481.526 248.453C482.915 248.453 483.812 247.328 483.812 245.342C483.812 243.364 482.915 242.23 481.526 242.23C480.146 242.23 479.241 243.364 479.241 245.342C479.241 247.328 480.138 248.453 481.526 248.453ZM488.531 250.176C487.89 250.176 487.441 249.763 487.441 249.024V241.606C487.441 240.93 487.837 240.499 488.487 240.499C489.129 240.499 489.568 240.93 489.568 241.606V242.257H489.612C490.113 241.149 491.08 240.508 492.513 240.508C494.569 240.508 495.738 241.826 495.738 243.979V249.024C495.738 249.763 495.29 250.176 494.648 250.176C494.007 250.176 493.55 249.763 493.55 249.024V244.419C493.55 243.101 492.935 242.362 491.687 242.362C490.43 242.362 489.63 243.268 489.63 244.604V249.024C489.63 249.763 489.173 250.176 488.531 250.176ZM506.812 250.211C503.147 250.211 500.889 247.724 500.889 243.654C500.889 239.611 503.183 237.106 506.769 237.106C509.115 237.106 510.97 238.205 511.805 240.06C511.945 240.35 512.016 240.648 512.016 240.912C512.016 241.519 511.62 241.905 511.014 241.905C510.495 241.905 510.152 241.659 509.906 241.105C509.317 239.743 508.166 239.031 506.786 239.031C504.606 239.031 503.209 240.824 503.209 243.654C503.209 246.502 504.598 248.286 506.795 248.286C508.245 248.286 509.361 247.653 509.941 246.317C510.17 245.799 510.46 245.588 510.952 245.588C511.576 245.588 512.007 246.001 512.007 246.599C512.007 246.889 511.937 247.152 511.796 247.451C510.987 249.174 509.186 250.211 506.812 250.211ZM517.878 250.185C515.145 250.185 513.369 248.365 513.369 245.342C513.369 242.336 515.162 240.49 517.878 240.49C520.594 240.49 522.387 242.327 522.387 245.342C522.387 248.365 520.611 250.185 517.878 250.185ZM517.878 248.453C519.267 248.453 520.163 247.328 520.163 245.342C520.163 243.364 519.267 242.23 517.878 242.23C516.498 242.23 515.593 243.364 515.593 245.342C515.593 247.328 516.489 248.453 517.878 248.453ZM527.054 250.167C525.032 250.167 523.749 248.857 523.749 246.704V241.65C523.749 240.921 524.197 240.499 524.839 240.499C525.48 240.499 525.938 240.921 525.938 241.659V246.265C525.938 247.601 526.588 248.321 527.818 248.321C529.084 248.321 529.866 247.425 529.866 246.071V241.65C529.866 240.921 530.323 240.499 530.965 240.499C531.598 240.499 532.055 240.921 532.055 241.659V249.068C532.055 249.771 531.633 250.176 531.009 250.176C530.376 250.176 529.945 249.771 529.945 249.068V248.383H529.901C529.409 249.517 528.469 250.167 527.054 250.167ZM534.938 250.176C534.278 250.176 533.848 249.745 533.848 249.024V241.606C533.848 240.921 534.27 240.499 534.894 240.499C535.5 240.499 535.931 240.921 535.931 241.606V242.318H535.975C536.229 241.229 537.038 240.525 537.97 240.525C538.312 240.525 538.576 240.613 538.743 240.763C538.945 240.93 539.051 241.193 539.051 241.554C539.051 241.896 538.945 242.151 538.726 242.327C538.515 242.512 538.189 242.608 537.759 242.617C536.511 242.626 536.036 243.408 536.036 244.542V249.024C536.036 249.745 535.597 250.176 534.938 250.176ZM543.63 250.185C541.661 250.185 540.281 249.429 539.833 248.312C539.771 248.154 539.745 248.014 539.745 247.882C539.745 247.354 540.132 247.021 540.659 247.021C541.02 247.021 541.327 247.188 541.608 247.557C542.101 248.269 542.663 248.585 543.709 248.585C544.729 248.585 545.405 248.154 545.405 247.451C545.405 246.889 545.054 246.581 544.096 246.361L542.584 246.019C540.765 245.605 539.868 244.709 539.868 243.355C539.868 241.624 541.362 240.49 543.665 240.49C545.458 240.49 546.847 241.369 547.137 242.441C547.163 242.556 547.181 242.661 547.181 242.767C547.181 243.224 546.891 243.549 546.337 243.549C546.021 243.549 545.704 243.435 545.502 243.145C545.071 242.503 544.535 242.099 543.612 242.099C542.654 242.099 541.995 242.564 541.995 243.232C541.995 243.777 542.399 244.146 543.366 244.366L544.852 244.691C546.82 245.14 547.603 245.852 547.603 247.231C547.603 249.016 546.003 250.185 543.63 250.185ZM553.122 250.185C550.274 250.185 548.596 248.4 548.596 245.377C548.596 242.406 550.31 240.49 552.999 240.49C555.548 240.49 557.288 242.301 557.288 244.832C557.288 245.482 556.919 245.869 556.269 245.869H550.775V245.939C550.775 247.495 551.681 248.497 553.104 248.497C554.089 248.497 554.73 248.154 555.434 247.258C555.662 247.003 555.864 246.906 556.172 246.906C556.664 246.906 557.051 247.223 557.051 247.75C557.051 247.917 556.998 248.11 556.901 248.304C556.286 249.49 554.897 250.185 553.122 250.185ZM550.793 244.428H555.144C555.1 243.074 554.238 242.187 553.008 242.187C551.777 242.187 550.881 243.092 550.793 244.428ZM560.487 245.939C559.863 245.939 559.529 245.553 559.512 244.911L559.397 238.416C559.397 238.354 559.389 238.293 559.389 238.249C559.389 237.563 559.837 237.142 560.496 237.142C561.155 237.142 561.595 237.563 561.595 238.249C561.595 238.293 561.586 238.354 561.586 238.416L561.472 244.911C561.454 245.553 561.111 245.939 560.487 245.939ZM560.487 250.176C559.775 250.176 559.213 249.622 559.213 248.928C559.213 248.233 559.775 247.688 560.487 247.688C561.208 247.688 561.771 248.233 561.771 248.928C561.771 249.622 561.208 250.176 560.487 250.176Z" fill="#1F1738"/>
<path d="M212.5 320.166C211.719 320.166 211.24 319.688 211.24 318.857V307.217C211.24 306.396 211.719 305.908 212.5 305.908H219.238C219.932 305.908 220.391 306.318 220.391 306.973C220.391 307.627 219.922 308.037 219.238 308.037H213.76V312.197H218.73C219.395 312.197 219.834 312.588 219.834 313.223C219.834 313.857 219.395 314.248 218.73 314.248H213.76V318.857C213.76 319.688 213.291 320.166 212.5 320.166ZM223.086 308.193C222.334 308.193 221.738 307.607 221.738 306.875C221.738 306.133 222.334 305.557 223.086 305.557C223.848 305.557 224.443 306.133 224.443 306.875C224.443 307.607 223.848 308.193 223.086 308.193ZM223.086 320.195C222.344 320.195 221.875 319.707 221.875 318.916V310.723C221.875 309.941 222.344 309.443 223.086 309.443C223.828 309.443 224.307 309.941 224.307 310.732V318.916C224.307 319.707 223.828 320.195 223.086 320.195ZM227.637 320.195C226.924 320.195 226.416 319.736 226.416 318.916V306.992C226.416 306.172 226.924 305.713 227.637 305.713C228.35 305.713 228.848 306.172 228.848 306.992V318.916C228.848 319.736 228.35 320.195 227.637 320.195ZM231.592 317.441V311.523H230.938C230.332 311.523 229.961 311.162 229.961 310.576C229.961 310 230.332 309.648 230.938 309.648H231.592V308.271C231.592 307.49 232.061 307.002 232.812 307.002C233.555 307.002 234.023 307.49 234.023 308.271V309.648H235.146C235.752 309.648 236.123 310 236.123 310.576C236.123 311.162 235.752 311.523 235.146 311.523H234.023V316.914C234.023 317.695 234.297 318.037 235 318.096L235.176 318.115C235.82 318.174 236.152 318.447 236.152 319.014C236.152 319.727 235.527 320.107 234.414 320.107H234.316C232.51 320.107 231.592 319.209 231.592 317.441ZM242.041 320.205C238.877 320.205 237.012 318.223 237.012 314.863C237.012 311.562 238.916 309.434 241.904 309.434C244.736 309.434 246.67 311.445 246.67 314.258C246.67 314.98 246.26 315.41 245.537 315.41H239.434V315.488C239.434 317.217 240.439 318.33 242.021 318.33C243.115 318.33 243.828 317.949 244.609 316.953C244.863 316.67 245.088 316.562 245.43 316.562C245.977 316.562 246.406 316.914 246.406 317.5C246.406 317.686 246.348 317.9 246.24 318.115C245.557 319.434 244.014 320.205 242.041 320.205ZM239.453 313.809H244.287C244.238 312.305 243.281 311.318 241.914 311.318C240.547 311.318 239.551 312.324 239.453 313.809ZM249.453 320.195C248.721 320.195 248.242 319.717 248.242 318.916V310.674C248.242 309.912 248.711 309.443 249.404 309.443C250.078 309.443 250.557 309.912 250.557 310.674V311.465H250.605C250.889 310.254 251.787 309.473 252.822 309.473C253.203 309.473 253.496 309.57 253.682 309.736C253.906 309.922 254.023 310.215 254.023 310.615C254.023 310.996 253.906 311.279 253.662 311.475C253.428 311.68 253.066 311.787 252.588 311.797C251.201 311.807 250.674 312.676 250.674 313.936V318.916C250.674 319.717 250.186 320.195 249.453 320.195ZM262.158 320.166C260.156 320.166 258.701 318.906 258.701 317.041C258.701 315.205 260.117 314.102 262.637 313.945L265.381 313.789V313.047C265.381 311.963 264.648 311.338 263.447 311.338C262.5 311.338 261.885 311.66 261.279 312.549C261.025 312.881 260.703 313.037 260.293 313.037C259.697 313.037 259.268 312.646 259.268 312.061C259.268 311.836 259.326 311.621 259.434 311.396C259.961 310.195 261.562 309.434 263.545 309.434C266.113 309.434 267.783 310.791 267.783 312.871V318.975C267.783 319.756 267.285 320.195 266.602 320.195C265.938 320.195 265.479 319.795 265.439 319.072V318.35H265.391C264.795 319.473 263.496 320.166 262.158 320.166ZM262.9 318.33C264.268 318.33 265.381 317.412 265.381 316.162V315.371L262.979 315.518C261.807 315.596 261.133 316.123 261.133 316.943C261.133 317.793 261.846 318.33 262.9 318.33ZM273.369 320.186C271.123 320.186 269.697 318.73 269.697 316.338V310.723C269.697 309.912 270.195 309.443 270.908 309.443C271.621 309.443 272.129 309.912 272.129 310.732V315.85C272.129 317.334 272.852 318.135 274.219 318.135C275.625 318.135 276.494 317.139 276.494 315.635V310.723C276.494 309.912 277.002 309.443 277.715 309.443C278.418 309.443 278.926 309.912 278.926 310.732V318.965C278.926 319.746 278.457 320.195 277.764 320.195C277.061 320.195 276.582 319.746 276.582 318.965V318.203H276.533C275.986 319.463 274.941 320.186 273.369 320.186ZM284.785 320.166C282.178 320.166 280.488 318.105 280.488 314.814C280.488 311.543 282.178 309.473 284.785 309.473C286.27 309.473 287.441 310.244 287.988 311.387H288.047V306.992C288.047 306.172 288.545 305.713 289.258 305.713C289.971 305.713 290.479 306.172 290.479 306.992V318.975C290.479 319.756 289.98 320.195 289.277 320.195C288.574 320.195 288.047 319.766 288.047 318.975V318.164H287.998C287.5 319.355 286.387 320.166 284.785 320.166ZM285.518 318.174C287.051 318.174 288.057 316.875 288.057 314.824C288.057 312.793 287.051 311.475 285.518 311.475C283.955 311.475 282.979 312.773 282.979 314.824C282.979 316.885 283.945 318.174 285.518 318.174ZM293.789 308.193C293.037 308.193 292.441 307.607 292.441 306.875C292.441 306.133 293.037 305.557 293.789 305.557C294.551 305.557 295.146 306.133 295.146 306.875C295.146 307.607 294.551 308.193 293.789 308.193ZM293.789 320.195C293.047 320.195 292.578 319.707 292.578 318.916V310.723C292.578 309.941 293.047 309.443 293.789 309.443C294.531 309.443 295.01 309.941 295.01 310.732V318.916C295.01 319.707 294.531 320.195 293.789 320.195ZM301.65 320.205C298.486 320.205 296.621 318.223 296.621 314.863C296.621 311.562 298.525 309.434 301.514 309.434C304.346 309.434 306.279 311.445 306.279 314.258C306.279 314.98 305.869 315.41 305.146 315.41H299.043V315.488C299.043 317.217 300.049 318.33 301.631 318.33C302.725 318.33 303.438 317.949 304.219 316.953C304.473 316.67 304.697 316.562 305.039 316.562C305.586 316.562 306.016 316.914 306.016 317.5C306.016 317.686 305.957 317.9 305.85 318.115C305.166 319.434 303.623 320.205 301.65 320.205ZM299.062 313.809H303.896C303.848 312.305 302.891 311.318 301.523 311.318C300.156 311.318 299.16 312.324 299.062 313.809ZM309.062 320.195C308.35 320.195 307.852 319.736 307.852 318.916V310.674C307.852 309.922 308.291 309.443 309.014 309.443C309.727 309.443 310.215 309.922 310.215 310.674V311.396H310.264C310.82 310.166 311.895 309.453 313.486 309.453C315.771 309.453 317.07 310.918 317.07 313.311V318.916C317.07 319.736 316.572 320.195 315.859 320.195C315.146 320.195 314.639 319.736 314.639 318.916V313.799C314.639 312.334 313.955 311.514 312.568 311.514C311.172 311.514 310.283 312.52 310.283 314.004V318.916C310.283 319.736 309.775 320.195 309.062 320.195ZM323.574 320.205C320.547 320.205 318.594 318.154 318.594 314.834C318.594 311.533 320.537 309.434 323.555 309.434C325.586 309.434 327.314 310.479 327.812 311.934C327.891 312.139 327.939 312.344 327.939 312.52C327.939 313.125 327.48 313.496 326.895 313.496C326.406 313.496 326.113 313.291 325.83 312.803C325.312 311.855 324.629 311.406 323.623 311.406C322.061 311.406 321.064 312.705 321.064 314.824C321.064 316.973 322.07 318.242 323.613 318.242C324.688 318.242 325.352 317.744 325.82 316.914C326.152 316.367 326.416 316.162 326.943 316.162C327.52 316.162 327.969 316.553 327.969 317.158C327.969 317.344 327.92 317.549 327.822 317.783C327.246 319.199 325.527 320.205 323.574 320.205ZM334.209 320.205C331.045 320.205 329.18 318.223 329.18 314.863C329.18 311.562 331.084 309.434 334.072 309.434C336.904 309.434 338.838 311.445 338.838 314.258C338.838 314.98 338.428 315.41 337.705 315.41H331.602V315.488C331.602 317.217 332.607 318.33 334.189 318.33C335.283 318.33 335.996 317.949 336.777 316.953C337.031 316.67 337.256 316.562 337.598 316.562C338.145 316.562 338.574 316.914 338.574 317.5C338.574 317.686 338.516 317.9 338.408 318.115C337.725 319.434 336.182 320.205 334.209 320.205ZM331.621 313.809H336.455C336.406 312.305 335.449 311.318 334.082 311.318C332.715 311.318 331.719 312.324 331.621 313.809Z" fill="#847399"/>
<rect x="210" y="336" width="169.331" height="60" rx="16" fill="#1F1738"/>
<path d="M249.104 359.508L249.097 359.516L242.747 366.296V371.498C242.747 371.746 242.687 371.989 242.57 372.208C242.453 372.426 242.285 372.612 242.079 372.749L239.079 374.75C238.853 374.9 238.59 374.987 238.318 375C238.047 375.012 237.777 374.951 237.538 374.823C237.299 374.695 237.099 374.504 236.959 374.271C236.82 374.037 236.747 373.771 236.747 373.499V366.296L230.397 359.516L230.39 359.508C230.195 359.293 230.066 359.026 230.019 358.739C229.973 358.453 230.01 358.159 230.128 357.893C230.245 357.628 230.437 357.402 230.68 357.243C230.923 357.084 231.207 357 231.497 356.999H247.997C248.288 356.999 248.572 357.083 248.815 357.242C249.059 357.401 249.251 357.626 249.369 357.892C249.486 358.158 249.524 358.452 249.478 358.739C249.431 359.026 249.302 359.293 249.107 359.508H249.104Z" fill="#CBB0EB"/>
<path d="M261.391 372.134C260.803 372.134 260.45 371.765 260.45 371.16L260.45 360.714C260.45 360.109 260.803 359.74 261.391 359.74C261.971 359.74 262.332 360.109 262.332 360.714L262.332 365L268.559 365L268.559 360.714C268.559 360.109 268.912 359.74 269.5 359.74C270.08 359.74 270.441 360.109 270.441 360.714L270.441 371.16C270.441 371.765 270.08 372.134 269.5 372.134C268.912 372.134 268.559 371.765 268.559 371.16L268.559 366.63L262.332 366.63L262.332 371.16C262.332 371.765 261.971 372.134 261.391 372.134ZM274.803 372.151C273.071 372.151 271.853 371.076 271.853 369.487C271.853 367.941 273.046 366.992 275.139 366.874L277.567 366.731L277.567 366.05C277.567 365.067 276.903 364.479 275.794 364.479C274.92 364.479 274.34 364.79 273.836 365.597C273.651 365.866 273.416 365.983 273.097 365.983C272.643 365.983 272.315 365.681 272.315 365.227C272.315 365.042 272.366 364.84 272.475 364.639C272.937 363.639 274.273 363 275.861 363C278.004 363 279.374 364.135 279.374 365.908L279.374 371.244C279.374 371.815 279.013 372.16 278.5 372.16C277.996 372.16 277.651 371.832 277.634 371.294L277.634 370.546L277.592 370.546C277.08 371.529 275.954 372.151 274.803 372.151ZM275.298 370.714C276.567 370.714 277.567 369.84 277.567 368.689L277.567 367.992L275.382 368.126C274.298 368.202 273.685 368.681 273.685 369.437C273.685 370.21 274.332 370.714 275.298 370.714ZM284.399 372.168C282.66 372.168 281.382 371.454 280.962 370.37C280.903 370.235 280.886 370.109 280.886 369.992C280.886 369.538 281.214 369.269 281.668 369.269C281.971 369.269 282.231 369.412 282.458 369.748C282.912 370.462 283.441 370.782 284.492 370.782C285.525 370.782 286.223 370.336 286.223 369.605C286.223 369.025 285.878 368.714 284.928 368.487L283.534 368.16C281.819 367.756 280.979 366.916 280.979 365.656C280.979 364.059 282.365 363 284.466 363C286.063 363 287.374 363.815 287.626 364.857C287.643 364.958 287.66 365.042 287.66 365.126C287.66 365.529 287.407 365.798 286.954 365.798C286.66 365.798 286.399 365.698 286.223 365.412C285.828 364.74 285.29 364.387 284.399 364.387C283.424 364.387 282.752 364.866 282.752 365.555C282.752 366.109 283.181 366.496 284.113 366.714L285.483 367.034C287.34 367.462 288.055 368.126 288.055 369.437C288.055 371.076 286.584 372.168 284.399 372.168ZM293.861 375.134C293.323 375.134 292.954 374.765 292.954 374.168L292.954 363.933C292.954 363.353 293.315 363 293.828 363C294.34 363 294.71 363.353 294.71 363.933L294.71 364.681L294.744 364.681C295.265 363.664 296.281 363.017 297.559 363.017C299.802 363.017 301.281 364.782 301.281 367.58C301.281 370.378 299.811 372.151 297.592 372.151C296.323 372.151 295.315 371.529 294.811 370.546L294.769 370.546L294.769 374.168C294.769 374.765 294.391 375.134 293.861 375.134ZM297.08 370.613C298.517 370.613 299.416 369.437 299.416 367.58C299.416 365.731 298.517 364.546 297.08 364.546C295.693 364.546 294.76 365.756 294.76 367.58C294.76 369.42 295.685 370.613 297.08 370.613ZM303.592 372.16C303.046 372.16 302.685 371.79 302.685 371.202L302.685 363.916C302.685 363.361 303.038 363 303.55 363C304.054 363 304.407 363.361 304.407 363.916L304.407 364.672L304.449 364.672C304.693 363.681 305.508 363.017 306.391 363.017C306.71 363.017 306.954 363.093 307.105 363.235C307.273 363.37 307.348 363.588 307.348 363.874C307.348 364.16 307.256 364.37 307.08 364.513C306.895 364.672 306.626 364.748 306.248 364.748C305.004 364.756 304.5 365.588 304.5 366.689L304.5 371.202C304.5 371.79 304.13 372.16 303.592 372.16ZM311.743 372.168C309.214 372.168 307.55 370.429 307.55 367.58C307.55 364.74 309.222 363 311.743 363C314.264 363 315.937 364.74 315.937 367.58C315.937 370.429 314.273 372.168 311.743 372.168ZM311.743 370.672C313.172 370.672 314.088 369.546 314.088 367.58C314.088 365.622 313.164 364.496 311.743 364.496C310.323 364.496 309.399 365.622 309.399 367.58C309.399 369.546 310.323 370.672 311.743 370.672ZM320.659 372.151C318.424 372.151 316.945 370.37 316.945 367.58C316.945 364.79 318.424 363.017 320.642 363.017C321.911 363.017 322.92 363.656 323.416 364.63L323.449 364.63L323.449 360.672C323.449 360.076 323.827 359.714 324.365 359.714C324.895 359.714 325.273 360.076 325.273 360.672L325.273 371.252C325.273 371.824 324.903 372.16 324.374 372.16C323.861 372.16 323.449 371.824 323.449 371.252L323.449 370.429L323.424 370.429C322.97 371.462 322.037 372.151 320.659 372.151ZM321.138 370.613C322.533 370.613 323.466 369.429 323.466 367.58C323.466 365.748 322.533 364.546 321.138 364.546C319.701 364.546 318.802 365.723 318.802 367.58C318.802 369.445 319.701 370.613 321.138 370.613ZM330.197 372.16C328.273 372.16 327.096 370.908 327.096 368.882L327.096 363.966C327.096 363.361 327.466 363 328.004 363C328.533 363 328.911 363.361 328.911 363.966L328.911 368.529C328.911 369.874 329.55 370.597 330.802 370.597C332.113 370.597 332.903 369.689 332.903 368.311L332.903 363.966C332.903 363.361 333.281 363 333.81 363C334.348 363 334.718 363.361 334.718 363.966L334.718 371.235C334.718 371.798 334.373 372.16 333.852 372.16C333.331 372.16 332.979 371.798 332.979 371.244L332.979 370.504L332.937 370.504C332.449 371.563 331.55 372.16 330.197 372.16ZM340.298 372.168C337.768 372.168 336.121 370.412 336.121 367.597C336.121 364.798 337.76 363 340.281 363C341.987 363 343.449 363.908 343.836 365.143C343.886 365.286 343.92 365.437 343.92 365.563C343.92 366.025 343.592 366.311 343.147 366.311C342.76 366.311 342.541 366.16 342.323 365.756C341.869 364.916 341.247 364.513 340.315 364.513C338.894 364.513 337.97 365.698 337.97 367.58C337.97 369.504 338.911 370.647 340.315 370.647C341.298 370.647 341.894 370.21 342.323 369.445C342.575 369.008 342.768 368.857 343.163 368.857C343.609 368.857 343.936 369.16 343.936 369.613C343.936 369.756 343.903 369.908 343.836 370.084C343.373 371.303 341.936 372.168 340.298 372.168ZM345.936 369.882L345.936 364.597L345.298 364.597C344.827 364.597 344.541 364.328 344.541 363.882C344.541 363.429 344.827 363.16 345.298 363.16L345.936 363.16L345.936 361.849C345.936 361.269 346.298 360.882 346.852 360.882C347.399 360.882 347.76 361.269 347.76 361.849L347.76 363.16L348.794 363.16C349.264 363.16 349.55 363.437 349.55 363.882C349.55 364.328 349.264 364.597 348.794 364.597L347.76 364.597L347.76 369.479C347.76 370.185 348.004 370.504 348.659 370.555L348.802 370.563C349.323 370.613 349.583 370.824 349.583 371.252C349.583 371.798 349.163 372.076 348.273 372.076L348.18 372.076C346.693 372.076 345.936 371.345 345.936 369.882ZM354.197 372.168C352.457 372.168 351.18 371.454 350.76 370.37C350.701 370.235 350.684 370.109 350.684 369.992C350.684 369.538 351.012 369.269 351.466 369.269C351.768 369.269 352.029 369.412 352.256 369.748C352.709 370.462 353.239 370.782 354.289 370.782C355.323 370.782 356.02 370.336 356.02 369.605C356.02 369.025 355.676 368.714 354.726 368.487L353.331 368.16C351.617 367.756 350.777 366.916 350.777 365.656C350.777 364.059 352.163 363 354.264 363C355.861 363 357.172 363.815 357.424 364.857C357.441 364.958 357.457 365.042 357.457 365.126C357.457 365.529 357.205 365.798 356.751 365.798C356.457 365.798 356.197 365.698 356.02 365.412C355.625 364.74 355.088 364.387 354.197 364.387C353.222 364.387 352.55 364.866 352.55 365.555C352.55 366.109 352.978 366.496 353.911 366.714L355.281 367.034C357.138 367.462 357.852 368.126 357.852 369.437C357.852 371.076 356.382 372.168 354.197 372.168Z" fill="#CBB0EB"/>
<rect x="391.623" y="336" width="229.331" height="60" rx="16" fill="#1F1738"/>
<path d="M430.727 359.508L430.72 359.516L424.37 366.296V371.498C424.37 371.746 424.31 371.989 424.193 372.208C424.076 372.426 423.908 372.612 423.702 372.749L420.702 374.75C420.476 374.9 420.213 374.987 419.942 375C419.67 375.012 419.4 374.951 419.161 374.823C418.922 374.695 418.722 374.504 418.582 374.271C418.443 374.037 418.37 373.771 418.37 373.499V366.296L412.02 359.516L412.013 359.508C411.818 359.293 411.689 359.026 411.642 358.739C411.596 358.453 411.634 358.159 411.751 357.893C411.868 357.628 412.06 357.402 412.303 357.243C412.546 357.084 412.83 357 413.12 356.999H429.62C429.911 356.999 430.195 357.083 430.438 357.242C430.682 357.401 430.874 357.626 430.992 357.892C431.109 358.158 431.147 358.452 431.101 358.739C431.054 359.026 430.925 359.293 430.73 359.508H430.727Z" fill="#CBB0EB"/>
<path d="M443.014 372C442.426 372 442.073 371.63 442.073 371.025L442.073 360.849C442.073 360.244 442.426 359.874 443.014 359.874L446.35 359.874C449.955 359.874 452.089 362.093 452.089 365.916C452.089 369.748 449.963 372 446.35 372L443.014 372ZM443.955 370.37L446.174 370.37C448.745 370.37 450.165 368.798 450.165 365.933C450.165 363.076 448.737 361.496 446.174 361.496L443.955 361.496L443.955 370.37ZM454.636 361.824C454.056 361.824 453.585 361.353 453.585 360.782C453.585 360.202 454.056 359.748 454.636 359.748C455.224 359.748 455.694 360.202 455.694 360.782C455.694 361.353 455.224 361.824 454.636 361.824ZM454.636 372.16C454.089 372.16 453.728 371.782 453.728 371.202L453.728 363.966C453.728 363.378 454.089 363 454.636 363C455.182 363 455.543 363.378 455.543 363.966L455.543 371.202C455.543 371.782 455.182 372.16 454.636 372.16ZM460.72 372.151C458.484 372.151 457.005 370.37 457.005 367.58C457.005 364.79 458.484 363.017 460.703 363.017C461.972 363.017 462.98 363.656 463.476 364.63L463.51 364.63L463.51 360.672C463.51 360.076 463.888 359.714 464.425 359.714C464.955 359.714 465.333 360.076 465.333 360.672L465.333 371.252C465.333 371.824 464.963 372.16 464.434 372.16C463.921 372.16 463.51 371.824 463.51 371.252L463.51 370.429L463.484 370.429C463.031 371.462 462.098 372.151 460.72 372.151ZM461.199 370.613C462.594 370.613 463.526 369.429 463.526 367.58C463.526 365.748 462.594 364.546 461.199 364.546C459.762 364.546 458.863 365.723 458.863 367.58C458.863 369.445 459.762 370.613 461.199 370.613ZM468.106 372.16C467.568 372.16 467.199 371.798 467.199 371.202L467.199 363.916C467.199 363.361 467.535 363 468.064 363C468.585 363 468.946 363.361 468.946 363.924L468.946 364.622L468.988 364.622C469.467 363.614 470.392 363.008 471.753 363.008C473.703 363.008 474.82 364.252 474.82 366.277L474.82 371.202C474.82 371.798 474.442 372.16 473.904 372.16C473.375 372.16 472.997 371.798 472.997 371.202L472.997 366.63C472.997 365.303 472.375 364.571 471.115 364.571C469.837 364.571 469.014 365.479 469.014 366.849L469.014 371.202C469.014 371.798 468.636 372.16 468.106 372.16ZM476.862 364.471C476.434 364.471 476.148 364.202 476.156 363.798C476.156 363.698 476.173 363.63 476.173 363.588L476.711 360.479C476.804 359.933 477.106 359.714 477.585 359.714C478.089 359.714 478.434 360.008 478.434 360.487C478.434 360.639 478.417 360.782 478.367 360.958L477.627 363.832C477.526 364.261 477.291 364.471 476.862 364.471ZM481.123 369.882L481.123 364.597L480.484 364.597C480.014 364.597 479.728 364.328 479.728 363.882C479.728 363.429 480.014 363.16 480.484 363.16L481.123 363.16L481.123 361.849C481.123 361.269 481.484 360.882 482.039 360.882C482.585 360.882 482.946 361.269 482.946 361.849L482.946 363.16L483.98 363.16C484.451 363.16 484.736 363.437 484.736 363.882C484.736 364.328 484.451 364.597 483.98 364.597L482.946 364.597L482.946 369.479C482.946 370.185 483.19 370.504 483.846 370.555L483.988 370.563C484.509 370.613 484.77 370.824 484.77 371.252C484.77 371.798 484.35 372.076 483.459 372.076L483.367 372.076C481.879 372.076 481.123 371.345 481.123 369.882ZM493.417 372.168C490.887 372.168 489.224 370.429 489.224 367.58C489.224 364.74 490.896 363 493.417 363C495.938 363 497.61 364.74 497.61 367.58C497.61 370.429 495.946 372.168 493.417 372.168ZM493.417 370.672C494.845 370.672 495.761 369.546 495.761 367.58C495.761 365.622 494.837 364.496 493.417 364.496C491.997 364.496 491.072 365.622 491.072 367.58C491.072 369.546 491.997 370.672 493.417 370.672ZM499.921 375.134C499.383 375.134 499.013 374.765 499.013 374.168L499.013 363.933C499.013 363.353 499.375 363 499.887 363C500.4 363 500.77 363.353 500.77 363.933L500.77 364.681L500.803 364.681C501.324 363.664 502.341 363.017 503.618 363.017C505.862 363.017 507.341 364.782 507.341 367.58C507.341 370.378 505.871 372.151 503.652 372.151C502.383 372.151 501.375 371.529 500.871 370.546L500.829 370.546L500.829 374.168C500.829 374.765 500.45 375.134 499.921 375.134ZM503.139 370.613C504.576 370.613 505.476 369.437 505.476 367.58C505.476 365.731 504.576 364.546 503.139 364.546C501.753 364.546 500.82 365.756 500.82 367.58C500.82 369.42 501.745 370.613 503.139 370.613ZM512.576 372.168C509.913 372.168 508.35 370.479 508.35 367.622C508.35 364.815 509.946 363 512.45 363C514.803 363 516.425 364.698 516.425 367.109C516.425 367.698 516.089 368.034 515.526 368.034L510.181 368.034L510.181 368.076C510.181 369.689 511.089 370.697 512.534 370.697C513.526 370.697 514.148 370.353 514.82 369.437C515.013 369.21 515.198 369.118 515.459 369.118C515.896 369.118 516.215 369.403 516.215 369.857C516.215 370 516.165 370.168 516.089 370.345C515.509 371.504 514.223 372.168 512.576 372.168ZM510.19 366.765L514.61 366.765C514.568 365.378 513.702 364.462 512.442 364.462C511.19 364.462 510.282 365.387 510.19 366.765ZM518.744 372.16C518.207 372.16 517.837 371.798 517.837 371.202L517.837 363.916C517.837 363.361 518.173 363 518.702 363C519.223 363 519.585 363.361 519.585 363.924L519.585 364.622L519.627 364.622C520.106 363.614 521.03 363.008 522.391 363.008C524.341 363.008 525.459 364.252 525.459 366.277L525.459 371.202C525.459 371.798 525.081 372.16 524.543 372.16C524.013 372.16 523.635 371.798 523.635 371.202L523.635 366.63C523.635 365.303 523.013 364.571 521.753 364.571C520.475 364.571 519.652 365.479 519.652 366.849L519.652 371.202C519.652 371.798 519.274 372.16 518.744 372.16ZM533.299 372.151C531.568 372.151 530.349 371.076 530.349 369.487C530.349 367.941 531.543 366.992 533.635 366.874L536.064 366.731L536.064 366.05C536.064 365.067 535.4 364.479 534.291 364.479C533.417 364.479 532.837 364.79 532.333 365.597C532.148 365.866 531.912 365.983 531.593 365.983C531.139 365.983 530.812 365.681 530.812 365.227C530.812 365.042 530.862 364.84 530.971 364.639C531.433 363.639 532.77 363 534.358 363C536.501 363 537.87 364.135 537.87 365.908L537.87 371.244C537.87 371.815 537.509 372.16 536.996 372.16C536.492 372.16 536.148 371.832 536.131 371.294L536.131 370.546L536.089 370.546C535.576 371.529 534.45 372.151 533.299 372.151ZM533.795 370.714C535.064 370.714 536.064 369.84 536.064 368.689L536.064 367.992L533.879 368.126C532.795 368.202 532.181 368.681 532.181 369.437C532.181 370.21 532.828 370.714 533.795 370.714ZM540.543 372.16C540.005 372.16 539.635 371.798 539.635 371.202L539.635 363.916C539.635 363.361 539.971 363 540.501 363C541.022 363 541.383 363.361 541.383 363.924L541.383 364.622L541.425 364.622C541.904 363.614 542.828 363.008 544.19 363.008C546.139 363.008 547.257 364.252 547.257 366.277L547.257 371.202C547.257 371.798 546.879 372.16 546.341 372.16C545.811 372.16 545.433 371.798 545.433 371.202L545.433 366.63C545.433 365.303 544.811 364.571 543.551 364.571C542.274 364.571 541.45 365.479 541.45 366.849L541.45 371.202C541.45 371.798 541.072 372.16 540.543 372.16ZM550.089 375.294C549.248 375.294 548.786 374.983 548.786 374.42C548.786 374.034 549.055 373.781 549.492 373.781C549.685 373.781 549.753 373.79 549.963 373.79C550.467 373.79 550.979 373.513 551.307 372.605L551.475 372.092L548.517 364.353C548.45 364.168 548.416 363.983 548.416 363.84C548.416 363.345 548.811 363 549.341 363C549.795 363 550.055 363.193 550.215 363.698L552.467 370.353L552.492 370.353L554.753 363.698C554.904 363.202 555.156 363 555.618 363C556.139 363 556.5 363.345 556.5 363.832C556.5 363.975 556.467 364.16 556.408 364.336L553.341 372.445C552.559 374.571 551.727 375.294 550.089 375.294ZM565.047 372.168C562.383 372.168 560.82 370.479 560.82 367.622C560.82 364.815 562.416 363 564.921 363C567.273 363 568.895 364.698 568.895 367.109C568.895 367.698 568.559 368.034 567.996 368.034L562.652 368.034L562.652 368.076C562.652 369.689 563.559 370.697 565.005 370.697C565.996 370.697 566.618 370.353 567.29 369.437C567.484 369.21 567.668 369.118 567.929 369.118C568.366 369.118 568.685 369.403 568.685 369.857C568.685 370 568.635 370.168 568.559 370.345C567.979 371.504 566.694 372.168 565.047 372.168ZM562.66 366.765L567.08 366.765C567.038 365.378 566.173 364.462 564.912 364.462C563.66 364.462 562.752 365.387 562.66 366.765ZM571.215 372.16C570.668 372.16 570.307 371.782 570.307 371.202L570.307 363.924C570.307 363.353 570.66 363 571.173 363C571.677 363 572.038 363.345 572.038 363.924L572.038 364.647L572.08 364.647C572.475 363.664 573.399 363.008 574.593 363.008C575.82 363.008 576.71 363.639 577.063 364.74L577.105 364.74C577.559 363.664 578.601 363.008 579.862 363.008C581.609 363.008 582.752 364.168 582.752 365.924L582.752 371.202C582.752 371.782 582.383 372.16 581.836 372.16C581.29 372.16 580.929 371.782 580.929 371.202L580.929 366.361C580.929 365.219 580.315 364.563 579.24 364.563C578.164 364.563 577.416 365.361 577.416 366.479L577.416 371.202C577.416 371.782 577.072 372.16 576.525 372.16C575.979 372.16 575.635 371.782 575.635 371.202L575.635 366.227C575.635 365.21 574.988 364.563 573.962 364.563C572.887 364.563 572.122 365.403 572.122 366.538L572.122 371.202C572.122 371.782 571.761 372.16 571.215 372.16ZM587.097 372.151C585.366 372.151 584.147 371.076 584.147 369.487C584.147 367.941 585.341 366.992 587.433 366.874L589.862 366.731L589.862 366.05C589.862 365.067 589.198 364.479 588.088 364.479C587.214 364.479 586.635 364.79 586.13 365.597C585.946 365.866 585.71 365.983 585.391 365.983C584.937 365.983 584.609 365.681 584.609 365.227C584.609 365.042 584.66 364.84 584.769 364.639C585.231 363.639 586.567 363 588.156 363C590.299 363 591.668 364.135 591.668 365.908L591.668 371.244C591.668 371.815 591.307 372.16 590.794 372.16C590.29 372.16 589.946 371.832 589.929 371.294L589.929 370.546L589.887 370.546C589.374 371.529 588.248 372.151 587.097 372.151ZM587.593 370.714C588.862 370.714 589.862 369.84 589.862 368.689L589.862 367.992L587.677 368.126C586.593 368.202 585.979 368.681 585.979 369.437C585.979 370.21 586.626 370.714 587.593 370.714ZM594.399 361.824C593.819 361.824 593.349 361.353 593.349 360.782C593.349 360.202 593.819 359.748 594.399 359.748C594.988 359.748 595.458 360.202 595.458 360.782C595.458 361.353 594.988 361.824 594.399 361.824ZM594.399 372.16C593.853 372.16 593.492 371.782 593.492 371.202L593.492 363.966C593.492 363.378 593.853 363 594.399 363C594.946 363 595.307 363.378 595.307 363.966L595.307 371.202C595.307 371.782 594.946 372.16 594.399 372.16ZM598.139 372.16C597.609 372.16 597.231 371.798 597.231 371.202L597.231 360.672C597.231 360.076 597.609 359.714 598.139 359.714C598.668 359.714 599.046 360.076 599.046 360.672L599.046 371.202C599.046 371.798 598.668 372.16 598.139 372.16Z" fill="#CBB0EB"/>
<path d="M212.5 442C211.719 442 211.24 441.512 211.24 440.691V429.217C211.24 428.396 211.719 427.908 212.5 427.908H217.09C219.648 427.908 221.299 429.285 221.299 431.424C221.299 432.938 220.176 434.256 218.73 434.49V434.568C220.645 434.754 221.982 436.131 221.982 437.996C221.982 440.477 220.156 442 217.148 442H212.5ZM213.76 433.846H216.064C217.822 433.846 218.809 433.104 218.809 431.795C218.809 430.564 217.959 429.871 216.455 429.871H213.76V433.846ZM213.76 440.037H216.572C218.428 440.037 219.414 439.266 219.414 437.82C219.414 436.385 218.398 435.633 216.465 435.633H213.76V440.037ZM228.115 442.205C225.078 442.205 223.105 440.184 223.105 436.824C223.105 433.484 225.098 431.434 228.115 431.434C231.133 431.434 233.125 433.475 233.125 436.824C233.125 440.184 231.152 442.205 228.115 442.205ZM228.115 440.281C229.658 440.281 230.654 439.031 230.654 436.824C230.654 434.627 229.658 433.367 228.115 433.367C226.582 433.367 225.576 434.627 225.576 436.824C225.576 439.031 226.572 440.281 228.115 440.281ZM238.555 442.166C235.947 442.166 234.258 440.105 234.258 436.814C234.258 433.543 235.947 431.473 238.555 431.473C240.039 431.473 241.211 432.244 241.758 433.387H241.816V428.992C241.816 428.172 242.314 427.713 243.027 427.713C243.74 427.713 244.248 428.172 244.248 428.992V440.975C244.248 441.756 243.75 442.195 243.047 442.195C242.344 442.195 241.816 441.766 241.816 440.975V440.164H241.768C241.27 441.355 240.156 442.166 238.555 442.166ZM239.287 440.174C240.82 440.174 241.826 438.875 241.826 436.824C241.826 434.793 240.82 433.475 239.287 433.475C237.725 433.475 236.748 434.773 236.748 436.824C236.748 438.885 237.715 440.174 239.287 440.174ZM247.773 445.848C246.68 445.848 246.084 445.438 246.084 444.695C246.084 444.197 246.436 443.875 247.002 443.875C247.207 443.875 247.305 443.885 247.529 443.885C248.076 443.885 248.643 443.602 249.004 442.693L249.18 442.186L245.791 433.27C245.703 433.025 245.654 432.771 245.654 432.576C245.654 431.912 246.191 431.443 246.904 431.443C247.52 431.443 247.861 431.717 248.066 432.4L250.537 439.93H250.576L253.047 432.391C253.252 431.727 253.604 431.443 254.219 431.443C254.912 431.443 255.4 431.902 255.4 432.547C255.4 432.742 255.352 433.016 255.264 433.25L251.855 442.371C250.918 444.949 249.844 445.848 247.773 445.848Z" fill="#847399"/>
<path d="M210.75 474C210.75 465.578 217.578 458.75 226 458.75H766C774.422 458.75 781.25 465.578 781.25 474V667C781.25 675.422 774.422 682.25 766 682.25H226C217.578 682.25 210.75 675.422 210.75 667V474Z" stroke="#E5D7F5" stroke-width="1.5"/>
<rect x="234" y="482" width="524" height="12" rx="6" fill="#E5D7F5"/>
<rect x="234" y="506" width="494" height="12" rx="6" fill="#E5D7F5"/>
<rect x="234" y="530" width="524" height="12" rx="6" fill="#E5D7F5"/>
<rect x="234" y="554" width="464" height="12" rx="6" fill="#E5D7F5"/>
<rect x="234" y="578" width="464" height="12" rx="6" fill="#E5D7F5"/>
<rect x="234" y="602" width="494" height="12" rx="6" fill="#E5D7F5"/>
<rect x="234" y="626" width="464" height="12" rx="6" fill="#E5D7F5"/>
<rect x="680.602" y="326.365" width="260" height="245.497" rx="16" transform="rotate(3 680.602 326.365)" fill="#1F1738"/>
<path d="M712.793 374.115C711.867 374.066 711.35 373.472 711.401 372.497L711.978 361.496C712.028 360.531 712.604 359.994 713.53 360.042L717.431 360.247C721.654 360.468 724.009 363.115 723.775 367.581C723.541 372.048 720.917 374.541 716.694 374.319L712.793 374.115ZM714.393 371.754L716.471 371.863C719.104 372.001 720.611 370.476 720.771 367.433C720.925 364.488 719.547 362.793 716.953 362.657L714.876 362.548L714.393 371.754ZM729.857 375.234C726.59 375.063 724.775 372.944 724.952 369.56C725.129 366.195 727.201 364.162 730.292 364.324C733.257 364.479 735.14 366.612 734.991 369.45C734.95 370.24 734.478 370.665 733.688 370.624L727.72 370.311L727.713 370.438C727.632 371.988 728.515 373.052 729.958 373.127C731.002 373.182 731.703 372.867 732.521 372C732.839 371.704 733.098 371.61 733.469 371.629C734.083 371.661 734.56 372.078 734.526 372.731C734.514 372.955 734.434 373.186 734.295 373.413C733.535 374.664 731.876 375.34 729.857 375.234ZM727.84 368.567L732.278 368.799C732.291 367.431 731.459 366.497 730.211 366.432C728.963 366.367 728.008 367.236 727.84 368.567ZM740.409 375.787C738.01 375.661 736.456 374.719 736.023 373.465C735.964 373.276 735.935 373.088 735.943 372.932C735.977 372.279 736.488 371.866 737.151 371.9C737.61 371.924 737.989 372.15 738.356 372.609C738.874 373.369 739.5 373.735 740.582 373.792C741.616 373.846 742.311 373.452 742.348 372.759C742.377 372.194 742.032 371.873 741.02 371.595L739.284 371.132C737.259 370.586 736.28 369.488 736.361 367.938C736.466 365.938 738.26 364.742 740.971 364.884C743.136 364.997 744.674 366.065 744.953 367.263C744.985 367.412 745.007 367.55 745 367.686C744.97 368.262 744.588 368.643 743.856 368.604C743.486 368.585 743.083 368.427 742.846 368.111C742.381 367.451 741.841 366.934 740.817 366.88C739.852 366.83 739.155 367.253 739.12 367.926C739.091 368.472 739.482 368.854 740.514 369.133L742.22 369.594C744.419 370.179 745.293 371.046 745.211 372.606C745.102 374.684 743.169 375.932 740.409 375.787ZM748.546 364.205C747.688 364.16 747.059 363.472 747.102 362.653C747.145 361.824 747.842 361.215 748.701 361.26C749.559 361.305 750.188 361.983 750.145 362.812C750.102 363.631 749.404 364.25 748.546 364.205ZM747.92 376.161C747.032 376.115 746.525 375.531 746.573 374.604L746.987 366.705C747.036 365.778 747.602 365.241 748.489 365.287C749.367 365.333 749.884 365.928 749.835 366.854L749.421 374.753C749.373 375.68 748.797 376.207 747.92 376.161ZM755.721 380.306C753.586 380.184 752.039 379.291 751.424 378.154C751.281 377.882 751.237 377.616 751.25 377.353C751.282 376.758 751.754 376.333 752.466 376.37C752.836 376.39 753.123 376.522 753.429 376.831C754.161 377.603 754.881 378.042 755.827 378.101C757.387 378.193 758.348 377.382 758.417 376.076L758.504 374.408L758.446 374.405C757.899 375.501 756.641 376.188 755.129 376.109C752.526 375.972 750.991 373.897 751.159 370.708C751.33 367.431 753.031 365.574 755.723 365.715C757.225 365.794 758.324 366.644 758.809 367.853L758.867 367.856L758.897 367.28C758.948 366.315 759.587 365.869 760.407 365.912C761.226 365.955 761.796 366.464 761.745 367.429L761.283 376.245C761.14 378.966 759.085 380.501 755.721 380.306ZM756.206 374.043C757.63 374.118 758.606 373.035 758.705 371.143C758.803 369.26 757.95 368.003 756.526 367.928C755.122 367.855 754.172 368.998 754.073 370.89C753.973 372.802 754.792 373.969 756.206 374.043ZM764.528 377.032C763.699 376.988 763.13 376.45 763.181 375.475L763.599 367.517C763.645 366.629 764.191 366.11 765.049 366.155C765.907 366.2 766.444 366.776 766.397 367.673L766.366 368.258L766.425 368.261C767.049 366.994 768.139 366.337 769.748 366.421C772.069 366.543 773.299 368.074 773.171 370.522L772.885 375.983C772.834 376.958 772.212 377.434 771.383 377.391C770.545 377.347 769.986 376.809 770.037 375.834L770.292 370.968C770.364 369.602 769.761 368.788 768.484 368.721C767.206 368.654 766.348 369.548 766.277 370.904L766.029 375.624C765.978 376.599 765.366 377.076 764.528 377.032Z" fill="#E5D7F5"/>
<g clip-path="url(#clip3_2068_8214)">
<path d="M716.091 411.088C716.061 411.652 715.85 412.192 715.489 412.627C715.128 413.062 714.636 413.369 714.087 413.502L713.826 418.48C713.816 418.678 713.727 418.865 713.579 418.998C713.431 419.131 713.236 419.2 713.038 419.189C712.839 419.179 712.653 419.09 712.52 418.942C712.387 418.794 712.318 418.6 712.328 418.401L712.589 413.423C712.057 413.233 711.6 412.877 711.286 412.407C710.973 411.937 710.82 411.378 710.849 410.813C710.879 410.249 711.09 409.709 711.451 409.274C711.811 408.839 712.303 408.533 712.852 408.4L713.192 401.924C713.202 401.725 713.291 401.539 713.439 401.406C713.587 401.273 713.781 401.204 713.98 401.214C714.179 401.224 714.365 401.313 714.498 401.461C714.631 401.609 714.7 401.804 714.69 402.002L714.35 408.478C714.883 408.668 715.34 409.024 715.653 409.494C715.967 409.965 716.121 410.524 716.091 411.088ZM721.326 404.337L721.43 402.355C721.441 402.157 721.372 401.962 721.239 401.814C721.106 401.667 720.919 401.578 720.721 401.567C720.522 401.557 720.327 401.626 720.18 401.759C720.032 401.892 719.943 402.078 719.932 402.277L719.829 404.259C719.279 404.392 718.788 404.699 718.427 405.134C718.066 405.569 717.855 406.108 717.825 406.673C717.796 407.237 717.949 407.796 718.263 408.266C718.576 408.736 719.033 409.093 719.565 409.283L719.069 418.754C719.058 418.953 719.127 419.148 719.26 419.295C719.394 419.443 719.58 419.532 719.779 419.543C719.977 419.553 720.172 419.484 720.32 419.351C720.468 419.218 720.556 419.032 720.567 418.833L721.063 409.361C721.612 409.228 722.104 408.921 722.465 408.486C722.826 408.052 723.037 407.512 723.066 406.947C723.096 406.383 722.943 405.824 722.629 405.354C722.316 404.884 721.859 404.527 721.326 404.337ZM727.675 412.18L728.171 402.709C728.182 402.51 728.113 402.315 727.98 402.168C727.846 402.02 727.66 401.931 727.461 401.921C727.263 401.91 727.068 401.979 726.92 402.112C726.772 402.245 726.684 402.432 726.673 402.63L726.177 412.102C725.628 412.235 725.136 412.542 724.775 412.977C724.414 413.412 724.203 413.951 724.174 414.516C724.144 415.08 724.297 415.639 724.611 416.109C724.924 416.579 725.381 416.936 725.913 417.126L725.81 419.108C725.799 419.306 725.868 419.501 726.001 419.649C726.134 419.797 726.321 419.885 726.519 419.896C726.718 419.906 726.913 419.837 727.06 419.704C727.208 419.571 727.297 419.385 727.308 419.186L727.411 417.204C727.961 417.071 728.452 416.764 728.813 416.329C729.174 415.895 729.385 415.355 729.415 414.79C729.444 414.226 729.291 413.667 728.977 413.197C728.664 412.727 728.207 412.37 727.675 412.18Z" fill="#E5D7F5"/>
<path d="M749.803 417.799C746.581 417.63 744.67 415.269 744.86 411.657C745.046 408.107 747.183 405.997 750.389 406.165C752.488 406.275 754.118 407.409 754.663 408.947C754.752 409.202 754.765 409.399 754.755 409.594C754.731 410.054 754.41 410.35 753.934 410.325C753.536 410.304 753.289 410.104 753.093 409.655C752.586 408.432 751.62 407.763 750.317 407.695C748.163 407.582 746.786 409.09 746.647 411.735C746.506 414.426 747.753 416.158 749.899 416.27C751.724 416.366 753.049 415.262 753.162 413.555L753.173 413.36L750.902 413.241C750.45 413.217 750.152 412.92 750.175 412.499C750.197 412.069 750.524 411.805 750.976 411.829L754.097 411.992C754.635 412.02 754.953 412.381 754.923 412.951L754.908 413.232C754.753 416.204 752.869 417.96 749.803 417.799ZM759.721 418.287C757.247 418.158 755.878 416.513 756.018 413.861C756.154 411.255 757.725 409.648 760.05 409.769C762.234 409.884 763.657 411.539 763.54 413.778C763.511 414.324 763.183 414.62 762.66 414.592L757.698 414.332L757.696 414.371C757.618 415.869 758.411 416.85 759.753 416.92C760.674 416.968 761.268 416.679 761.937 415.861C762.127 415.66 762.303 415.583 762.545 415.595C762.951 415.617 763.233 415.898 763.211 416.319C763.204 416.451 763.149 416.605 763.07 416.765C762.476 417.814 761.25 418.367 759.721 418.287ZM757.768 413.155L761.872 413.37C761.9 412.08 761.141 411.188 759.971 411.127C758.808 411.066 757.921 411.88 757.768 413.155ZM765.448 418.58C764.948 418.553 764.623 418.2 764.652 417.646L765.006 410.882C765.033 410.367 765.363 410.048 765.854 410.074C766.338 410.099 766.656 410.452 766.628 410.975L766.594 411.622L766.633 411.624C767.127 410.711 768.015 410.195 769.279 410.261C771.089 410.356 772.066 411.565 771.967 413.445L771.728 418.017C771.699 418.571 771.33 418.888 770.831 418.862C770.339 418.836 770.006 418.482 770.035 417.928L770.257 413.684C770.322 412.451 769.78 411.742 768.61 411.681C767.424 411.619 766.615 412.421 766.549 413.693L766.337 417.734C766.308 418.288 765.939 418.605 765.448 418.58ZM776.869 419.186C774.396 419.056 773.027 417.412 773.166 414.76C773.302 412.154 774.873 410.546 777.198 410.668C779.383 410.783 780.806 412.437 780.688 414.677C780.66 415.223 780.331 415.518 779.809 415.491L774.847 415.231L774.845 415.27C774.766 416.768 775.56 417.748 776.902 417.819C777.822 417.867 778.416 417.577 779.085 416.76C779.275 416.558 779.452 416.482 779.693 416.494C780.099 416.515 780.382 416.796 780.36 417.218C780.353 417.35 780.298 417.504 780.219 417.664C779.624 418.712 778.398 419.266 776.869 419.186ZM774.916 414.053L779.02 414.268C779.048 412.979 778.289 412.087 777.119 412.025C775.957 411.964 775.069 412.778 774.916 414.053ZM782.596 419.478C782.089 419.452 781.771 419.091 781.8 418.545L782.154 411.781C782.181 411.266 782.527 410.947 783.003 410.972C783.471 410.997 783.781 411.349 783.754 411.864L783.717 412.567L783.756 412.569C784.03 411.66 784.82 411.083 785.639 411.126C785.935 411.142 786.158 411.224 786.291 411.364C786.441 411.497 786.5 411.703 786.486 411.969C786.473 412.234 786.376 412.424 786.206 412.548C786.026 412.688 785.773 412.745 785.422 412.726C784.267 412.674 783.758 413.421 783.705 414.444L783.485 418.633C783.456 419.179 783.095 419.504 782.596 419.478ZM789.228 419.818C787.621 419.734 786.542 418.676 786.619 417.201C786.694 415.766 787.848 414.942 789.797 414.935L792.058 414.92L792.091 414.288C792.139 413.376 791.552 412.797 790.522 412.743C789.71 412.701 789.157 412.961 788.65 413.686C788.465 413.926 788.241 414.024 787.944 414.009C787.523 413.986 787.233 413.69 787.255 413.268C787.264 413.097 787.321 412.912 787.432 412.73C787.91 411.824 789.182 411.296 790.656 411.373C792.646 411.478 793.862 412.598 793.776 414.244L793.516 419.198C793.488 419.728 793.136 420.031 792.66 420.006C792.192 419.981 791.888 419.66 791.899 419.16L791.935 418.466L791.896 418.464C791.372 419.352 790.297 419.874 789.228 419.818ZM789.758 418.508C790.936 418.57 791.907 417.807 791.963 416.738L791.997 416.091L789.962 416.109C788.952 416.127 788.359 416.542 788.322 417.244C788.285 417.961 788.861 418.461 789.758 418.508ZM796.015 420.182C795.523 420.156 795.19 419.802 795.219 419.248L795.731 409.472C795.76 408.918 796.129 408.601 796.621 408.627C797.112 408.653 797.446 409.007 797.416 409.561L796.904 419.336C796.875 419.89 796.506 420.207 796.015 420.182Z" fill="#E5D7F5"/>
</g>
<g clip-path="url(#clip4_2068_8214)">
<path d="M724.76 453.475C724.728 454.084 724.015 454.563 723.203 454.52C722.391 454.478 721.732 453.927 721.764 453.318C721.796 452.71 722.509 452.231 723.321 452.273C724.132 452.316 724.792 452.867 724.76 453.475ZM728.246 444.27L727.54 457.751C727.519 458.149 727.341 458.521 727.046 458.788C726.75 459.054 726.361 459.192 725.963 459.171L709.486 458.307C709.089 458.287 708.716 458.109 708.45 457.813C708.184 457.517 708.046 457.128 708.067 456.731L708.773 443.249C708.794 442.852 708.972 442.479 709.267 442.213C709.563 441.947 709.952 441.809 710.35 441.83L726.827 442.694C727.224 442.714 727.597 442.892 727.863 443.188C728.129 443.483 728.267 443.873 728.246 444.27ZM719.375 454.778L715.766 444.825C715.716 444.686 715.626 444.566 715.508 444.478C715.389 444.39 715.247 444.339 715.1 444.331C714.953 444.324 714.807 444.359 714.68 444.434C714.553 444.509 714.451 444.62 714.386 444.753L709.757 454.273C709.669 454.452 709.657 454.659 709.722 454.847C709.787 455.035 709.924 455.189 710.103 455.276C710.282 455.363 710.488 455.376 710.676 455.311C710.864 455.246 711.019 455.109 711.106 454.93L712.313 452.447L717.024 452.694L717.965 455.289C718.032 455.477 718.172 455.629 718.352 455.713C718.532 455.797 718.739 455.807 718.926 455.739C719.113 455.671 719.265 455.532 719.35 455.351C719.434 455.171 719.443 454.965 719.375 454.778ZM726.415 450.558C726.491 449.112 725.208 447.866 723.556 447.779C722.858 447.738 722.164 447.921 721.578 448.303C721.413 448.413 721.298 448.585 721.259 448.78C721.22 448.975 721.26 449.177 721.37 449.343C721.48 449.508 721.652 449.623 721.847 449.662C722.042 449.701 722.245 449.661 722.41 449.551C722.728 449.348 723.102 449.252 723.478 449.277C724.279 449.319 724.931 449.857 724.918 450.457L724.879 451.206C724.426 450.948 723.919 450.8 723.399 450.775C721.748 450.689 720.342 451.794 720.266 453.24C720.19 454.685 721.473 455.931 723.124 456.018C723.678 456.05 724.23 455.941 724.73 455.702C724.801 455.854 724.92 455.978 725.069 456.054C725.218 456.13 725.389 456.155 725.553 456.123C725.717 456.091 725.866 456.005 725.976 455.879C726.086 455.753 726.151 455.593 726.16 455.426L726.415 450.558ZM713.025 450.983L716.469 451.163L714.96 447.003L713.025 450.983Z" fill="#E5D7F5"/>
<path d="M743.741 457.474C743.195 457.445 742.886 457.085 742.915 456.523L743.417 446.95C743.446 446.388 743.792 446.062 744.338 446.091L749.799 446.377C750.291 446.403 750.603 446.716 750.579 447.177C750.555 447.637 750.204 447.916 749.72 447.891L745.132 447.65L744.946 451.208L749.12 451.426C749.588 451.451 749.893 451.756 749.869 452.201C749.846 452.654 749.511 452.926 749.043 452.901L744.869 452.682L744.663 456.614C744.633 457.176 744.28 457.502 743.741 457.474ZM754.459 458.067C752.111 457.944 750.651 456.248 750.789 453.603C750.928 450.966 752.565 449.432 754.905 449.555C757.246 449.678 758.714 451.374 758.576 454.011C758.437 456.656 756.808 458.19 754.459 458.067ZM754.532 456.678C755.858 456.747 756.764 455.747 756.859 453.921C756.955 452.103 756.151 451.013 754.833 450.944C753.514 450.874 752.601 451.875 752.506 453.693C752.41 455.518 753.214 456.609 754.532 456.678ZM760.498 458.375C759.999 458.349 759.673 457.996 759.702 457.442L760.057 450.678C760.084 450.163 760.413 449.844 760.905 449.869C761.389 449.895 761.707 450.248 761.679 450.77L761.645 451.418L761.684 451.42C762.178 450.507 763.066 449.99 764.33 450.057C766.14 450.151 767.117 451.36 767.018 453.241L766.779 457.813C766.75 458.366 766.381 458.684 765.882 458.657C765.39 458.632 765.057 458.278 765.086 457.724L765.308 453.48C765.373 452.247 764.831 451.538 763.661 451.477C762.475 451.414 761.666 452.217 761.599 453.489L761.388 457.53C761.359 458.084 760.99 458.401 760.498 458.375ZM768.965 456.699L769.222 451.792L768.629 451.76C768.192 451.738 767.94 451.474 767.962 451.061C767.984 450.639 768.262 450.403 768.699 450.426L769.292 450.457L769.356 449.24C769.384 448.702 769.738 448.361 770.253 448.388C770.76 448.414 771.077 448.791 771.049 449.329L770.985 450.546L771.945 450.596C772.381 450.619 772.633 450.891 772.612 451.304C772.59 451.718 772.312 451.953 771.875 451.931L770.915 451.88L770.677 456.413C770.643 457.068 770.854 457.377 771.46 457.456L771.592 457.47C772.073 457.542 772.305 457.75 772.284 458.148C772.258 458.655 771.854 458.892 771.027 458.849L770.941 458.844C769.56 458.772 768.894 458.056 768.965 456.699ZM776.523 459.223C774.908 459.138 773.757 458.413 773.419 457.386C773.371 457.258 773.362 457.141 773.368 457.031C773.39 456.61 773.707 456.376 774.128 456.398C774.409 456.413 774.644 456.558 774.838 456.882C775.225 457.567 775.701 457.889 776.676 457.94C777.636 457.99 778.305 457.611 778.341 456.932C778.369 456.394 778.064 456.088 777.193 455.831L775.914 455.459C774.342 455.001 773.603 454.18 773.664 453.01C773.742 451.528 775.081 450.612 777.031 450.714C778.514 450.792 779.691 451.613 779.874 452.592C779.885 452.687 779.897 452.766 779.893 452.844C779.873 453.218 779.626 453.456 779.204 453.433C778.931 453.419 778.694 453.313 778.545 453.039C778.211 452.396 777.728 452.042 776.901 451.998C775.996 451.951 775.349 452.363 775.315 453.003C775.288 453.518 775.668 453.897 776.523 454.146L777.779 454.509C779.482 454.997 780.113 455.648 780.049 456.865C779.97 458.387 778.551 459.329 776.523 459.223Z" fill="#E5D7F5"/>
</g>
<path d="M716.573 480.709C714.647 480.608 712.734 481.08 711.077 482.066C709.42 483.052 708.092 484.507 707.262 486.248C706.432 487.988 706.136 489.936 706.413 491.844C706.69 493.753 707.526 495.536 708.817 496.969C710.107 498.402 711.793 499.42 713.662 499.895C715.531 500.37 717.499 500.28 719.317 499.636C721.135 498.992 722.721 497.824 723.875 496.279C725.028 494.734 725.698 492.881 725.799 490.955C725.932 488.374 725.035 485.845 723.305 483.924C721.575 482.003 719.154 480.847 716.573 480.709ZM715.631 498.684C714.001 498.598 712.434 498.032 711.126 497.056C709.819 496.079 708.83 494.737 708.286 493.199C707.741 491.661 707.665 489.996 708.066 488.414C708.468 486.833 709.329 485.406 710.542 484.314C711.755 483.222 713.264 482.515 714.878 482.281C716.493 482.046 718.141 482.296 719.614 482.999C721.087 483.701 722.318 484.825 723.152 486.227C723.987 487.629 724.386 489.247 724.301 490.877C724.184 493.061 723.206 495.11 721.58 496.573C719.955 498.037 717.815 498.796 715.631 498.684ZM721.305 490.72C721.251 491.757 720.89 492.754 720.269 493.586C719.648 494.418 718.794 495.047 717.815 495.394C716.836 495.741 715.776 495.789 714.77 495.534C713.764 495.278 712.856 494.73 712.161 493.958C711.466 493.186 711.016 492.226 710.867 491.198C710.718 490.171 710.877 489.122 711.324 488.185C711.771 487.248 712.486 486.464 713.378 485.933C714.27 485.402 715.3 485.148 716.337 485.202C717.727 485.277 719.031 485.899 719.962 486.934C720.893 487.968 721.376 489.33 721.305 490.72Z" fill="#E5D7F5"/>
<path d="M741.654 497.294C741.108 497.265 740.798 496.905 740.828 496.343L741.323 486.895C741.352 486.333 741.698 486.007 742.244 486.036L745.864 486.225C747.861 486.33 749.114 487.507 749.025 489.207C748.962 490.401 748.025 491.424 746.891 491.552L746.888 491.614C748.408 491.866 749.381 493.005 749.303 494.503C749.199 496.484 747.693 497.61 745.298 497.485L741.654 497.294ZM742.867 490.872L744.825 490.974C746.339 491.054 747.206 490.473 747.265 489.358C747.319 488.312 746.632 487.697 745.368 487.631L743.043 487.509L742.867 490.872ZM742.603 495.912L745.013 496.038C746.589 496.121 747.458 495.517 747.522 494.3C747.586 493.083 746.76 492.414 745.106 492.327L742.797 492.206L742.603 495.912ZM753.271 498.051C751.484 497.957 750.453 496.738 750.552 494.857L750.791 490.293C750.82 489.732 751.181 489.414 751.68 489.44C752.172 489.466 752.505 489.82 752.476 490.382L752.254 494.618C752.189 495.866 752.746 496.568 753.909 496.629C755.126 496.693 755.903 495.889 755.97 494.609L756.182 490.576C756.211 490.014 756.58 489.697 757.071 489.723C757.571 489.749 757.896 490.103 757.867 490.664L757.513 497.413C757.486 497.936 757.148 498.254 756.665 498.229C756.181 498.204 755.871 497.851 755.898 497.336L755.934 496.649L755.895 496.647C755.391 497.607 754.527 498.117 753.271 498.051ZM759.74 496.27L759.997 491.363L759.405 491.332C758.968 491.309 758.715 491.045 758.737 490.632C758.759 490.21 759.038 489.975 759.474 489.997L760.067 490.029L760.131 488.811C760.159 488.273 760.514 487.932 761.029 487.959C761.536 487.985 761.852 488.362 761.824 488.9L761.76 490.117L762.72 490.168C763.157 490.19 763.409 490.462 763.387 490.875C763.365 491.289 763.087 491.525 762.65 491.502L761.69 491.451L761.453 495.984C761.419 496.64 761.629 496.948 762.235 497.027L762.368 497.041C762.849 497.114 763.08 497.321 763.06 497.719C763.033 498.226 762.629 498.463 761.802 498.42L761.717 498.415C760.336 498.343 759.669 497.628 759.74 496.27ZM764.874 496.539L765.131 491.632L764.538 491.601C764.101 491.578 763.849 491.314 763.871 490.901C763.893 490.479 764.171 490.244 764.608 490.267L765.201 490.298L765.265 489.081C765.293 488.542 765.647 488.201 766.162 488.228C766.669 488.254 766.986 488.631 766.958 489.169L766.894 490.386L767.854 490.437C768.29 490.46 768.542 490.731 768.521 491.144C768.499 491.558 768.221 491.794 767.784 491.771L766.824 491.72L766.586 496.253C766.552 496.909 766.763 497.217 767.369 497.296L767.501 497.31C767.982 497.383 768.214 497.59 768.193 497.988C768.167 498.495 767.763 498.732 766.936 498.689L766.85 498.684C765.469 498.612 764.803 497.897 764.874 496.539ZM772.728 499.079C770.38 498.956 768.92 497.26 769.058 494.615C769.197 491.978 770.834 490.444 773.174 490.567C775.515 490.689 776.983 492.386 776.845 495.023C776.706 497.668 775.077 499.202 772.728 499.079ZM772.801 497.69C774.127 497.759 775.033 496.759 775.128 494.933C775.223 493.115 774.42 492.025 773.102 491.956C771.783 491.886 770.87 492.887 770.775 494.705C770.679 496.53 771.483 497.621 772.801 497.69ZM778.767 499.387C778.268 499.361 777.942 499.008 777.971 498.454L778.326 491.69C778.353 491.175 778.682 490.855 779.174 490.881C779.658 490.907 779.976 491.26 779.948 491.782L779.914 492.43L779.953 492.432C780.447 491.519 781.335 491.002 782.599 491.069C784.409 491.163 785.386 492.372 785.287 494.253L785.048 498.825C785.018 499.378 784.65 499.696 784.151 499.669C783.659 499.644 783.325 499.29 783.355 498.736L783.577 494.492C783.642 493.259 783.1 492.55 781.93 492.489C780.744 492.426 779.935 493.229 779.868 494.501L779.656 498.542C779.627 499.096 779.259 499.413 778.767 499.387ZM789.658 499.966C788.043 499.881 786.892 499.156 786.555 498.129C786.507 498.001 786.497 497.883 786.503 497.774C786.525 497.353 786.842 497.119 787.264 497.141C787.545 497.156 787.779 497.301 787.974 497.624C788.36 498.31 788.836 498.632 789.811 498.683C790.771 498.733 791.44 498.354 791.476 497.675C791.504 497.137 791.199 496.831 790.329 496.574L789.05 496.202C787.478 495.744 786.738 494.923 786.8 493.753C786.877 492.271 788.216 491.355 790.167 491.457C791.649 491.535 792.826 492.356 793.01 493.335C793.02 493.43 793.032 493.509 793.028 493.587C793.008 493.961 792.761 494.198 792.34 494.176C792.067 494.162 791.83 494.056 791.68 493.782C791.346 493.139 790.864 492.785 790.037 492.741C789.132 492.694 788.484 493.106 788.451 493.746C788.424 494.261 788.803 494.64 789.658 494.889L790.914 495.252C792.618 495.74 793.249 496.391 793.185 497.608C793.105 499.129 791.687 500.072 789.658 499.966Z" fill="#E5D7F5"/>
<g clip-path="url(#clip5_2068_8214)">
<path d="M724.486 530.689L702.977 529.562" stroke="#E5D7F5" stroke-width="1.71333" stroke-linecap="round"/>
<path d="M715.993 524.361L712.082 524.156" stroke="#E5D7F5" stroke-width="1.71333" stroke-linecap="round"/>
<path d="M724.794 524.822L720.883 524.617" stroke="#E5D7F5" stroke-width="1.71333" stroke-linecap="round"/>
<path d="M707.194 523.9L703.283 523.695" stroke="#E5D7F5" stroke-width="1.71333" stroke-linecap="round"/>
<path d="M710.734 535.851L702.668 535.429" stroke="#E5D7F5" stroke-width="1.71333" stroke-linecap="round"/>
<path d="M724.177 536.556L716.111 536.133" stroke="#E5D7F5" stroke-width="1.71333" stroke-linecap="round"/>
</g>
<path d="M739.07 536.962C738.524 536.933 738.214 536.572 738.244 536.011L738.739 526.563C738.768 526.001 739.114 525.675 739.66 525.704L742.757 525.866C746.104 526.041 747.978 528.205 747.792 531.755C747.606 535.312 745.522 537.3 742.167 537.124L739.07 536.962ZM740.023 535.494L742.083 535.602C744.47 535.727 745.865 534.337 746.005 531.677C746.144 529.024 744.894 527.488 742.515 527.363L740.455 527.255L740.023 535.494ZM750.355 528.079C749.817 528.051 749.403 527.591 749.431 527.061C749.459 526.522 749.918 526.124 750.456 526.152C751.002 526.181 751.417 526.625 751.389 527.163C751.361 527.694 750.901 528.108 750.355 528.079ZM749.852 537.675C749.345 537.649 749.028 537.28 749.056 536.742L749.408 530.024C749.437 529.478 749.791 529.145 750.298 529.171C750.805 529.198 751.122 529.567 751.093 530.113L750.741 536.83C750.713 537.368 750.359 537.702 749.852 537.675ZM755.579 537.975C754.978 537.944 754.663 537.677 754.461 537.056L752.363 530.523C752.316 530.372 752.286 530.206 752.294 530.05C752.318 529.582 752.693 529.297 753.185 529.323C753.575 529.343 753.829 529.568 753.946 530.027L755.665 536.181L755.696 536.182L758.05 530.227C758.213 529.797 758.49 529.601 758.872 529.621C759.356 529.646 759.682 529.984 759.659 530.429C759.651 530.577 759.611 530.739 759.549 530.877L756.778 537.178C756.529 537.759 756.156 538.006 755.579 537.975ZM761.793 528.678C761.254 528.65 760.84 528.19 760.868 527.66C760.896 527.122 761.355 526.723 761.894 526.751C762.44 526.78 762.855 527.224 762.826 527.763C762.798 528.293 762.339 528.707 761.793 528.678ZM761.29 538.275C760.783 538.248 760.465 537.879 760.494 537.341L760.846 530.624C760.874 530.078 761.228 529.744 761.735 529.771C762.242 529.797 762.56 530.166 762.531 530.712L762.179 537.429C762.151 537.968 761.797 538.301 761.29 538.275ZM766.939 538.563C764.863 538.454 763.577 536.728 763.713 534.138C763.848 531.548 765.308 529.974 767.367 530.082C768.545 530.143 769.451 530.785 769.863 531.714L769.895 531.716L770.087 528.041C770.116 527.487 770.485 527.17 770.984 527.197C771.476 527.222 771.809 527.576 771.78 528.13L771.265 537.953C771.238 538.483 770.878 538.777 770.387 538.751C769.911 538.726 769.545 538.394 769.573 537.864L769.613 537.099L769.589 537.098C769.118 538.036 768.218 538.63 766.939 538.563ZM767.458 537.158C768.753 537.226 769.677 536.172 769.767 534.455C769.856 532.755 769.048 531.593 767.753 531.526C766.419 531.456 765.527 532.504 765.437 534.228C765.346 535.96 766.124 537.089 767.458 537.158ZM776.511 539.08C774.037 538.951 772.668 537.306 772.807 534.654C772.944 532.048 774.515 530.44 776.84 530.562C779.024 530.677 780.447 532.332 780.33 534.571C780.301 535.117 779.973 535.413 779.45 535.385L774.488 535.125L774.486 535.164C774.408 536.662 775.201 537.643 776.543 537.713C777.464 537.761 778.058 537.471 778.727 536.654C778.917 536.453 779.093 536.376 779.335 536.388C779.741 536.41 780.023 536.69 780.001 537.112C779.994 537.244 779.939 537.398 779.86 537.558C779.266 538.607 778.04 539.16 776.511 539.08ZM774.558 533.948L778.661 534.163C778.69 532.873 777.931 531.981 776.761 531.919C775.598 531.858 774.711 532.673 774.558 533.948ZM782.237 539.373C781.73 539.346 781.413 538.985 781.441 538.439L781.796 531.675C781.823 531.16 782.168 530.842 782.644 530.867C783.112 530.891 783.422 531.244 783.395 531.759L783.359 532.461L783.398 532.463C783.672 531.554 784.461 530.977 785.28 531.02C785.577 531.036 785.799 531.118 785.933 531.258C786.082 531.391 786.142 531.597 786.128 531.863C786.114 532.128 786.018 532.319 785.847 532.443C785.668 532.582 785.415 532.639 785.063 532.621C783.908 532.568 783.4 533.316 783.346 534.338L783.127 538.527C783.098 539.073 782.737 539.399 782.237 539.373ZM789.664 539.77C788.049 539.685 786.898 538.96 786.561 537.933C786.513 537.805 786.503 537.687 786.509 537.578C786.531 537.157 786.849 536.923 787.27 536.945C787.551 536.96 787.786 537.105 787.98 537.428C788.366 538.113 788.842 538.436 789.818 538.487C790.777 538.537 791.446 538.157 791.482 537.479C791.51 536.94 791.206 536.635 790.335 536.378L789.056 536.006C787.484 535.548 786.745 534.727 786.806 533.557C786.884 532.074 788.222 531.159 790.173 531.261C791.655 531.339 792.833 532.159 793.016 533.139C793.027 533.233 793.038 533.312 793.034 533.39C793.014 533.765 792.767 534.002 792.346 533.98C792.073 533.966 791.836 533.859 791.686 533.586C791.352 532.942 790.87 532.588 790.043 532.545C789.138 532.498 788.491 532.91 788.457 533.549C788.43 534.064 788.809 534.444 789.664 534.692L790.921 535.055C792.624 535.544 793.255 536.195 793.191 537.412C793.111 538.933 791.693 539.876 789.664 539.77Z" fill="#E5D7F5"/>
<g clip-path="url(#clip6_2068_8214)">
<path d="M84.7837 191.586C91.1593 185.21 94.3472 182.022 98.4883 180.913C102.629 179.803 106.984 180.97 115.693 183.303L151.48 192.893C160.19 195.226 164.544 196.393 167.576 199.425C170.607 202.456 171.774 206.811 174.108 215.52L183.697 251.307C186.031 260.016 187.197 264.371 186.088 268.512C184.978 272.653 181.79 275.841 175.415 282.217L149.217 308.415C142.841 314.79 139.653 317.978 135.512 319.088C131.371 320.197 127.016 319.031 118.307 316.697L82.52 307.108C73.8107 304.774 69.4561 303.607 66.4246 300.576C63.3931 297.544 62.2263 293.19 59.8926 284.48L50.3035 248.693C47.9698 239.984 46.803 235.629 47.9126 231.488C49.0222 227.347 52.21 224.159 58.5857 217.784L84.7837 191.586Z" fill="#1F1738"/>
</g>
<path d="M132.384 227.243L91.8154 238.113C91.3671 238.234 90.984 238.524 90.7504 238.92C90.5168 239.316 90.4519 239.786 90.5698 240.227L98.1322 268.45C98.3682 269.33 98.9507 270.079 99.7515 270.532C100.552 270.985 101.506 271.104 102.403 270.864L139.591 260.9C140.487 260.659 141.254 260.079 141.721 259.287C142.188 258.494 142.318 257.554 142.082 256.673L134.519 228.45C134.401 228.01 134.11 227.635 133.71 227.409C133.309 227.183 132.833 227.123 132.384 227.243ZM110.359 250.938L100.946 265.429L94.9621 243.096L110.359 250.938ZM113.464 252.52L116.614 254.133C117.002 254.331 117.451 254.378 117.875 254.264C118.298 254.151 118.664 253.886 118.901 253.521L120.822 250.548L136.032 258.294L104.169 266.832L113.464 252.52ZM122.737 247.622L132.15 233.129L138.135 255.467L122.737 247.622Z" fill="#CBB0EB"/>
</g>
<defs>
<clipPath id="clip0_2068_8214">
<rect width="992" height="640" rx="24" fill="white"/>
</clipPath>
<clipPath id="clip1_2068_8214">
<rect width="106" height="106" fill="white" transform="translate(128.246 467) rotate(28.9112)"/>
</clipPath>
<clipPath id="clip2_2068_8214">
<rect width="106" height="106" fill="white" transform="translate(810.246 69) rotate(28.9112)"/>
</clipPath>
<clipPath id="clip3_2068_8214">
<rect x="708.895" y="397.943" width="196" height="24" rx="12" transform="rotate(3 708.895 397.943)" fill="white"/>
</clipPath>
<clipPath id="clip4_2068_8214">
<rect x="706.801" y="437.889" width="196" height="24" rx="12" transform="rotate(3 706.801 437.889)" fill="white"/>
</clipPath>
<clipPath id="clip5_2068_8214">
<rect width="23.4971" height="23.4971" fill="white" transform="translate(702.613 517.779) rotate(3)"/>
</clipPath>
<clipPath id="clip6_2068_8214">
<rect width="148" height="148" fill="white" transform="translate(26.3691 197.674) rotate(-15)"/>
</clipPath>
</defs>
</svg>
