<svg width="1001" height="1000" viewBox="0 0 1001 1000" fill="none" xmlns="http://www.w3.org/2000/svg">
<rect x="0.619141" width="1000" height="1000" rx="256" fill="#CBB0EB"/>
<path d="M333.777 781.058C327.615 781.058 322.619 776.062 322.619 769.9V293.351C322.619 287.189 327.615 282.194 333.777 282.194H426.173C432.335 282.194 437.331 287.189 437.331 293.351V323.907C464.146 291.877 502.88 274 550.552 274C651.111 274 722.619 355.192 722.619 470.648C722.619 586.849 651.111 668.041 550.552 668.041C502.88 668.041 464.146 650.164 437.331 617.389V769.9C437.331 776.062 432.335 781.058 426.173 781.058H333.777ZM431.371 470.648C431.371 530.983 467.871 573.442 519.267 573.442C569.919 573.442 607.163 530.239 607.163 470.648C607.163 411.058 569.919 368.6 519.267 368.6C467.871 368.6 431.371 411.058 431.371 470.648Z" fill="#1F1738"/>
</svg>
