<svg width="24" height="24" viewBox="0 0 24 24" fill="none" xmlns="http://www.w3.org/2000/svg"><rect width="24" height="24" fill="white"/><path d="M17.218 9.98098L11.1993 15.9997C11.0586 16.1403 10.8679 16.2192 10.6691 16.2192C10.4703 16.2192 10.2796 16.1403 10.1389 15.9997L6.78176 12.6247C6.64136 12.4841 6.5625 12.2935 6.5625 12.0948C6.5625 11.8961 6.64136 11.7055 6.78176 11.5649L7.71926 10.6274C7.85982 10.4874 8.05011 10.4088 8.24848 10.4088C8.44685 10.4088 8.63714 10.4874 8.7777 10.6274L10.6879 12.4799L15.2235 8.00004C15.3641 7.85993 15.5545 7.78125 15.7529 7.78125C15.9514 7.78125 16.1418 7.85993 16.2824 8.00004L17.2175 8.91598C17.2879 8.98567 17.3437 9.0686 17.3818 9.15998C17.4199 9.25135 17.4396 9.34938 17.4396 9.44838C17.4397 9.54739 17.4201 9.64543 17.3821 9.73684C17.344 9.82825 17.2883 9.91123 17.218 9.98098Z" fill="black"/></svg>