<svg width="992" height="640" viewBox="0 0 992 640" fill="none" xmlns="http://www.w3.org/2000/svg">
<g clip-path="url(#clip0_2082_186)">
<rect width="992" height="640" rx="24" fill="#CBB0EB"/>
<g clip-path="url(#clip1_2082_186)">
<path d="M-14.5062 381.035C-13.7138 370.534 -13.3175 365.284 -8.90944 362.017C-4.50133 358.75 1.18634 360.021 12.5617 362.564L58.8201 372.904C69.8614 375.372 75.382 376.606 78.0454 380.803C80.7088 384.999 79.4748 390.52 77.0068 401.561L66.667 447.82C64.1243 459.195 62.8529 464.883 58.0185 467.481C53.184 470.078 48.2663 468.2 38.4309 464.443C18.7902 456.941 4.63561 446.284 -4.03269 432.472C-12.5768 418.875 -16.068 401.73 -14.5062 381.035Z" fill="#E5D7F5"/>
</g>
<g clip-path="url(#clip2_2082_186)">
<path d="M-4.26455 59.4042C-0.31757 41.7462 1.65592 32.9171 8.1665 30.8024C14.6771 28.6876 21.4621 34.6717 35.0323 46.6398L62.5928 70.9467C77.0493 83.6966 84.2775 90.0716 82.7298 96.9959C81.182 103.92 71.9274 106.611 53.4181 111.992L18.1313 122.251C0.756984 127.303 -7.9302 129.828 -12.9208 125.143C-17.9113 120.457 -15.9378 111.628 -11.9909 93.9702L-4.26455 59.4042Z" fill="#1F1738"/>
</g>
<g clip-path="url(#clip3_2082_186)">
<path d="M934.446 539.786C921.381 536.285 914.848 534.534 912.505 529.367C910.162 524.199 913.151 518.133 919.127 505.999L940.244 463.127C944.411 454.665 946.495 450.435 950.407 448.661C954.319 446.887 958.875 448.108 967.985 450.549L992.525 457.125C1001.64 459.566 1006.19 460.786 1008.69 464.278C1011.19 467.77 1010.88 472.476 1010.26 481.888L1007.11 529.574C1006.22 543.071 1005.78 549.819 1001.16 553.123C996.551 556.427 990.018 554.676 976.953 551.175L934.446 539.786Z" fill="#847399"/>
</g>
<path d="M136 112.92C136 99.9314 136 93.4371 138.447 88.4415C140.791 83.6583 144.658 79.7906 149.441 77.4473C154.437 75 160.931 75 173.92 75H818.08C831.069 75 837.563 75 842.559 77.4473C847.342 79.7906 851.209 83.6583 853.553 88.4415C856 93.4371 856 99.9314 856 112.92V660.08C856 673.069 856 679.563 853.553 684.559C851.209 689.342 847.342 693.209 842.559 695.553C837.563 698 831.069 698 818.08 698H173.92C160.931 698 154.437 698 149.441 695.553C144.658 693.209 140.791 689.342 138.447 684.559C136 679.563 136 673.069 136 660.08V112.92Z" fill="#1F1738"/>
<path d="M180.141 138.297C178.719 138.297 177.875 137.438 177.875 135.938V117.5C177.875 116 178.75 115.141 180.25 115.141C181.219 115.141 181.875 115.531 182.594 116.516L192.344 130.141H192.469V117.516C192.469 116 193.312 115.141 194.734 115.141C196.156 115.141 196.984 116 196.984 117.516V136C196.984 137.469 196.156 138.297 194.672 138.297C193.656 138.297 193.031 137.938 192.312 136.938L182.531 123.234H182.391V135.938C182.391 137.438 181.547 138.297 180.141 138.297ZM208.062 138.359C202.828 138.359 199.75 135.125 199.75 129.703C199.75 124.312 202.891 120.891 207.844 120.891C212.594 120.891 215.781 124.141 215.781 128.688C215.781 129.953 215.062 130.672 213.797 130.672H204.234V130.875C204.234 133.359 205.734 134.984 208.047 134.984C209.719 134.984 210.812 134.422 212.047 132.969C212.531 132.469 212.938 132.297 213.531 132.297C214.516 132.297 215.312 132.922 215.312 133.969C215.312 134.328 215.203 134.703 215 135.078C213.891 137.141 211.297 138.359 208.062 138.359ZM204.281 127.875H211.391C211.297 125.688 209.891 124.266 207.891 124.266C205.891 124.266 204.438 125.734 204.281 127.875ZM223.672 138.328C222.094 138.328 221.266 137.594 220.781 135.938L217.406 124.266C217.234 123.672 217.156 123.297 217.156 122.859C217.156 121.719 218.078 120.906 219.359 120.906C220.5 120.906 221.234 121.594 221.5 122.844L223.984 133.672H224.078L226.672 123C226.969 121.641 227.859 120.906 229.25 120.906C230.609 120.906 231.5 121.641 231.797 123L234.406 133.672H234.5L237 122.812C237.25 121.594 237.984 120.906 239.109 120.906C240.375 120.906 241.266 121.703 241.266 122.844C241.266 123.266 241.188 123.641 241.016 124.234L237.641 135.922C237.172 137.578 236.297 138.328 234.719 138.328C233.047 138.328 232.156 137.609 231.766 135.906L229.219 126.156H229.125L226.594 135.938C226.203 137.594 225.297 138.328 223.672 138.328ZM257.312 138.359C252.266 138.359 249.062 135.047 249.062 129.625C249.062 124.266 252.25 120.891 257.281 120.891C260.641 120.891 263.438 122.516 264.344 124.891C264.5 125.281 264.594 125.688 264.594 126.016C264.594 127.141 263.719 127.797 262.641 127.797C261.734 127.797 261.188 127.438 260.719 126.609C259.891 125.141 258.875 124.469 257.422 124.469C255.109 124.469 253.688 126.375 253.688 129.609C253.688 132.906 255.109 134.781 257.391 134.781C258.984 134.781 259.969 134 260.672 132.812C261.281 131.859 261.781 131.469 262.75 131.469C263.812 131.469 264.672 132.172 264.672 133.297C264.672 133.656 264.578 134.031 264.375 134.484C263.375 136.766 260.516 138.359 257.312 138.359ZM272.062 138.266C268.875 138.266 266.453 136.203 266.453 133.188C266.453 130.141 268.797 128.375 272.984 128.125L277.203 127.875V126.766C277.203 125.203 276.109 124.297 274.391 124.297C273 124.297 272.156 124.75 271.141 126.062C270.641 126.625 270.062 126.906 269.328 126.906C268.219 126.906 267.422 126.188 267.422 125.156C267.422 124.797 267.5 124.469 267.656 124.125C268.438 122.125 271.125 120.891 274.594 120.891C278.891 120.891 281.688 123.109 281.688 126.484V136.031C281.688 137.547 280.766 138.328 279.469 138.328C278.234 138.328 277.375 137.641 277.281 136.297V135.438H277.188C276.25 137.219 274.156 138.266 272.062 138.266ZM273.562 134.969C275.562 134.969 277.203 133.672 277.203 131.859V130.641L273.672 130.859C271.969 130.984 271 131.75 271 132.938C271 134.188 272.031 134.969 273.562 134.969ZM286.922 138.328C285.562 138.328 284.641 137.5 284.641 135.953V123.234C284.641 121.703 285.547 120.906 286.844 120.906C288.141 120.906 289.047 121.703 289.047 123.234V124.281H289.141C289.844 122.266 291.641 120.938 293.922 120.938C296.344 120.938 298.031 122.188 298.594 124.375H298.688C299.438 122.266 301.438 120.938 303.891 120.938C307.172 120.938 309.375 123.188 309.375 126.562V135.953C309.375 137.5 308.438 138.328 307.078 138.328C305.734 138.328 304.812 137.5 304.812 135.953V127.703C304.812 125.766 303.844 124.703 302.078 124.703C300.344 124.703 299.203 125.969 299.203 127.828V135.953C299.203 137.5 298.359 138.328 297 138.328C295.656 138.328 294.812 137.5 294.812 135.953V127.562C294.812 125.766 293.797 124.703 292.109 124.703C290.375 124.703 289.203 126.016 289.203 127.891V135.953C289.203 137.5 288.266 138.328 286.922 138.328ZM314.547 143.969C313.219 143.969 312.266 143.156 312.266 141.594V123.25C312.266 121.719 313.203 120.906 314.516 120.906C315.828 120.906 316.766 121.719 316.766 123.266V124.172H316.859C317.766 122.203 319.625 120.984 322.047 120.984C326.297 120.984 328.906 124.219 328.906 129.625C328.906 135.016 326.312 138.266 322.125 138.266C319.688 138.266 317.812 137.078 316.922 135.188H316.828V141.594C316.828 143.156 315.891 143.969 314.547 143.969ZM320.516 134.594C322.797 134.594 324.234 132.672 324.234 129.625C324.234 126.594 322.797 124.641 320.516 124.641C318.281 124.641 316.812 126.625 316.812 129.625C316.812 132.656 318.281 134.594 320.516 134.594ZM336.219 138.266C333.031 138.266 330.609 136.203 330.609 133.188C330.609 130.141 332.953 128.375 337.141 128.125L341.359 127.875V126.766C341.359 125.203 340.266 124.297 338.547 124.297C337.156 124.297 336.312 124.75 335.297 126.062C334.797 126.625 334.219 126.906 333.484 126.906C332.375 126.906 331.578 126.188 331.578 125.156C331.578 124.797 331.656 124.469 331.812 124.125C332.594 122.125 335.281 120.891 338.75 120.891C343.047 120.891 345.844 123.109 345.844 126.484V136.031C345.844 137.547 344.922 138.328 343.625 138.328C342.391 138.328 341.531 137.641 341.438 136.297V135.438H341.344C340.406 137.219 338.312 138.266 336.219 138.266ZM337.719 134.969C339.719 134.969 341.359 133.672 341.359 131.859V130.641L337.828 130.859C336.125 130.984 335.156 131.75 335.156 132.938C335.156 134.188 336.188 134.969 337.719 134.969ZM351.156 119.172C349.781 119.172 348.719 118.125 348.719 116.812C348.719 115.484 349.781 114.453 351.156 114.453C352.531 114.453 353.594 115.484 353.594 116.812C353.594 118.125 352.531 119.172 351.156 119.172ZM351.156 138.328C349.734 138.328 348.875 137.438 348.875 135.953V123.297C348.875 121.812 349.734 120.906 351.156 120.906C352.562 120.906 353.438 121.812 353.438 123.297V135.953C353.438 137.438 352.562 138.328 351.156 138.328ZM363.969 144.297C360.547 144.281 358 142.984 356.922 141.219C356.672 140.797 356.578 140.375 356.578 139.953C356.578 139 357.297 138.281 358.438 138.281C359.031 138.281 359.5 138.469 360.016 138.938C361.25 140.109 362.438 140.75 363.953 140.766C366.453 140.781 367.922 139.406 367.922 137.312V134.641H367.828C367.047 136.438 365.094 137.641 362.672 137.641C358.5 137.641 355.875 134.453 355.875 129.344C355.875 124.094 358.438 120.984 362.75 120.984C365.156 120.984 366.984 122.25 367.859 124.141H367.953V123.219C367.953 121.672 368.938 120.906 370.25 120.906C371.562 120.906 372.516 121.672 372.516 123.219V137.344C372.516 141.703 369.359 144.328 363.969 144.297ZM364.219 134.25C366.5 134.25 367.969 132.438 367.969 129.406C367.969 126.391 366.5 124.453 364.219 124.453C361.969 124.453 360.547 126.359 360.547 129.391C360.547 132.453 361.953 134.25 364.219 134.25ZM377.766 138.328C376.438 138.328 375.484 137.516 375.484 135.953V123.203C375.484 121.781 376.312 120.906 377.688 120.906C379.062 120.906 379.969 121.781 379.969 123.219V124.156H380.062C380.953 122.078 382.641 120.938 385.219 120.938C388.938 120.938 391.031 123.281 391.031 127.203V135.953C391.031 137.516 390.078 138.328 388.75 138.328C387.406 138.328 386.469 137.516 386.469 135.953V128.156C386.469 125.969 385.438 124.719 383.391 124.719C381.344 124.719 380.047 126.219 380.047 128.391V135.953C380.047 137.516 379.109 138.328 377.766 138.328Z" fill="white"/>
<path d="M178.461 184.166C177.699 184.166 177.24 183.697 177.24 182.896V171.041C177.24 170.23 177.738 169.742 178.549 169.742C179.105 169.742 179.447 169.938 179.857 170.494L186.42 179.781H186.508V171.012C186.508 170.211 186.967 169.742 187.719 169.742C188.48 169.742 188.93 170.211 188.93 171.012V182.906C188.93 183.707 188.471 184.166 187.65 184.166C187.074 184.166 186.742 183.98 186.342 183.414L179.76 174.117H179.672V182.896C179.672 183.697 179.213 184.166 178.461 184.166ZM193.959 184.166C191.957 184.166 190.502 182.906 190.502 181.041C190.502 179.205 191.918 178.102 194.438 177.945L197.182 177.789V177.047C197.182 175.963 196.449 175.338 195.248 175.338C194.301 175.338 193.686 175.66 193.08 176.549C192.826 176.881 192.504 177.037 192.094 177.037C191.498 177.037 191.068 176.646 191.068 176.061C191.068 175.836 191.127 175.621 191.234 175.396C191.762 174.195 193.363 173.434 195.346 173.434C197.914 173.434 199.584 174.791 199.584 176.871V182.975C199.584 183.756 199.086 184.195 198.402 184.195C197.738 184.195 197.279 183.795 197.24 183.072V182.35H197.191C196.596 183.473 195.297 184.166 193.959 184.166ZM194.701 182.33C196.068 182.33 197.182 181.412 197.182 180.162V179.371L194.779 179.518C193.607 179.596 192.934 180.123 192.934 180.943C192.934 181.793 193.646 182.33 194.701 182.33ZM202.758 184.195C202.025 184.195 201.547 183.727 201.547 182.916V174.684C201.547 173.893 202.025 173.443 202.709 173.443C203.393 173.443 203.881 173.893 203.881 174.684V175.445H203.93C204.379 174.244 205.473 173.453 206.879 173.453C208.344 173.453 209.389 174.205 209.77 175.533H209.828C210.326 174.254 211.557 173.453 213.051 173.453C215.092 173.453 216.43 174.83 216.43 176.9V182.916C216.43 183.727 215.941 184.195 215.219 184.195C214.486 184.195 213.998 183.727 213.998 182.916V177.496C213.998 176.227 213.334 175.504 212.143 175.504C210.971 175.504 210.17 176.363 210.17 177.604V182.916C210.17 183.727 209.711 184.195 208.988 184.195C208.256 184.195 207.807 183.727 207.807 182.916V177.369C207.807 176.217 207.104 175.504 205.971 175.504C204.799 175.504 203.979 176.412 203.979 177.662V182.916C203.979 183.727 203.48 184.195 202.758 184.195ZM222.982 184.205C219.818 184.205 217.953 182.223 217.953 178.863C217.953 175.562 219.857 173.434 222.846 173.434C225.678 173.434 227.611 175.445 227.611 178.258C227.611 178.98 227.201 179.41 226.479 179.41H220.375V179.488C220.375 181.217 221.381 182.33 222.963 182.33C224.057 182.33 224.77 181.949 225.551 180.953C225.805 180.67 226.029 180.562 226.371 180.562C226.918 180.562 227.348 180.914 227.348 181.5C227.348 181.686 227.289 181.9 227.182 182.115C226.498 183.434 224.955 184.205 222.982 184.205ZM220.395 177.809H225.229C225.18 176.305 224.223 175.318 222.855 175.318C221.488 175.318 220.492 176.324 220.395 177.809Z" fill="#E5D7F5"/>
<path d="M176.607 224C176.607 220.264 176.607 217.493 176.757 215.287C176.908 213.086 177.205 211.493 177.778 210.109C179.341 206.337 182.337 203.341 186.109 201.778C187.493 201.205 189.086 200.908 191.287 200.757C193.493 200.607 196.264 200.607 200 200.607H792C795.736 200.607 798.507 200.607 800.713 200.757C802.914 200.908 804.507 201.205 805.891 201.778C809.663 203.341 812.659 206.337 814.222 210.109C814.795 211.493 815.092 213.086 815.243 215.287C815.393 217.493 815.393 220.264 815.393 224C815.393 227.736 815.393 230.507 815.243 232.713C815.092 234.914 814.795 236.507 814.222 237.891C812.659 241.663 809.663 244.659 805.891 246.222C804.507 246.795 802.914 247.092 800.713 247.243C798.507 247.393 795.736 247.393 792 247.393H200C196.264 247.393 193.493 247.393 191.287 247.243C189.086 247.092 187.493 246.795 186.109 246.222C182.337 244.659 179.341 241.663 177.778 237.891C177.205 236.507 176.908 234.914 176.757 232.713C176.607 230.507 176.607 227.736 176.607 224Z" stroke="#847399" stroke-width="1.21316"/>
<path d="M194 229.633C193.375 229.633 192.992 229.25 192.992 228.586V219.273C192.992 218.617 193.375 218.227 194 218.227H197.375C199.617 218.227 201.172 219.75 201.172 222C201.172 224.25 199.57 225.773 197.289 225.773H195.008V228.586C195.008 229.25 194.633 229.633 194 229.633ZM195.008 224.148H196.836C198.281 224.148 199.125 223.367 199.125 222C199.125 220.648 198.289 219.875 196.844 219.875H195.008V224.148ZM203.422 229.656C202.836 229.656 202.453 229.273 202.453 228.633V222.039C202.453 221.43 202.828 221.055 203.383 221.055C203.922 221.055 204.305 221.43 204.305 222.039V222.672H204.344C204.57 221.703 205.289 221.078 206.117 221.078C206.422 221.078 206.656 221.156 206.805 221.289C206.984 221.438 207.078 221.672 207.078 221.992C207.078 222.297 206.984 222.523 206.789 222.68C206.602 222.844 206.312 222.93 205.93 222.938C204.82 222.945 204.398 223.641 204.398 224.648V228.633C204.398 229.273 204.008 229.656 203.422 229.656ZM211.305 229.664C208.875 229.664 207.297 228.047 207.297 225.359C207.297 222.688 208.891 221.047 211.305 221.047C213.719 221.047 215.312 222.68 215.312 225.359C215.312 228.047 213.734 229.664 211.305 229.664ZM211.305 228.125C212.539 228.125 213.336 227.125 213.336 225.359C213.336 223.602 212.539 222.594 211.305 222.594C210.078 222.594 209.273 223.602 209.273 225.359C209.273 227.125 210.07 228.125 211.305 228.125ZM219.656 229.633C217.57 229.633 216.219 227.984 216.219 225.352C216.219 222.734 217.57 221.078 219.656 221.078C220.844 221.078 221.781 221.695 222.219 222.609H222.266V219.094C222.266 218.438 222.664 218.07 223.234 218.07C223.805 218.07 224.211 218.438 224.211 219.094V228.68C224.211 229.305 223.812 229.656 223.25 229.656C222.688 229.656 222.266 229.312 222.266 228.68V228.031H222.227C221.828 228.984 220.938 229.633 219.656 229.633ZM220.242 228.039C221.469 228.039 222.273 227 222.273 225.359C222.273 223.734 221.469 222.68 220.242 222.68C218.992 222.68 218.211 223.719 218.211 225.359C218.211 227.008 218.984 228.039 220.242 228.039ZM228.742 229.648C226.945 229.648 225.805 228.484 225.805 226.57V222.078C225.805 221.43 226.203 221.055 226.773 221.055C227.344 221.055 227.75 221.43 227.75 222.086V226.18C227.75 227.367 228.328 228.008 229.422 228.008C230.547 228.008 231.242 227.211 231.242 226.008V222.078C231.242 221.43 231.648 221.055 232.219 221.055C232.781 221.055 233.188 221.43 233.188 222.086V228.672C233.188 229.297 232.812 229.656 232.258 229.656C231.695 229.656 231.312 229.297 231.312 228.672V228.062H231.273C230.836 229.07 230 229.648 228.742 229.648ZM238.422 229.664C236 229.664 234.438 228.023 234.438 225.367C234.438 222.727 235.992 221.047 238.406 221.047C240.031 221.047 241.414 221.883 241.812 223.047C241.875 223.211 241.914 223.375 241.914 223.516C241.914 224 241.547 224.297 241.078 224.297C240.688 224.297 240.453 224.133 240.227 223.742C239.812 222.984 239.266 222.625 238.461 222.625C237.211 222.625 236.414 223.664 236.414 225.359C236.414 227.078 237.219 228.094 238.453 228.094C239.312 228.094 239.844 227.695 240.219 227.031C240.484 226.594 240.695 226.43 241.117 226.43C241.578 226.43 241.938 226.742 241.938 227.227C241.938 227.375 241.898 227.539 241.82 227.727C241.359 228.859 239.984 229.664 238.422 229.664ZM243.789 227.453V222.719H243.266C242.781 222.719 242.484 222.43 242.484 221.961C242.484 221.5 242.781 221.219 243.266 221.219H243.789V220.117C243.789 219.492 244.164 219.102 244.766 219.102C245.359 219.102 245.734 219.492 245.734 220.117V221.219H246.633C247.117 221.219 247.414 221.5 247.414 221.961C247.414 222.43 247.117 222.719 246.633 222.719H245.734V227.031C245.734 227.656 245.953 227.93 246.516 227.977L246.656 227.992C247.172 228.039 247.438 228.258 247.438 228.711C247.438 229.281 246.938 229.586 246.047 229.586H245.969C244.523 229.586 243.789 228.867 243.789 227.453ZM254.445 229.656C253.789 229.656 253.43 229.352 253.227 228.656L251.43 222.469C251.367 222.227 251.336 222.062 251.336 221.891C251.336 221.398 251.719 221.055 252.273 221.055C252.758 221.055 253.062 221.336 253.18 221.875L254.555 227.578H254.594L256.039 221.945C256.172 221.367 256.555 221.055 257.148 221.055C257.734 221.055 258.109 221.359 258.242 221.945L259.695 227.578H259.742L261.117 221.867C261.234 221.328 261.531 221.055 262.008 221.055C262.562 221.055 262.938 221.391 262.938 221.883C262.938 222.055 262.906 222.219 262.836 222.453L261.047 228.656C260.852 229.336 260.469 229.656 259.812 229.656C259.117 229.656 258.742 229.359 258.562 228.648L257.141 223.445H257.102L255.68 228.656C255.516 229.336 255.117 229.656 254.445 229.656ZM267.633 229.664C265.102 229.664 263.609 228.078 263.609 225.391C263.609 222.75 265.133 221.047 267.523 221.047C269.789 221.047 271.336 222.656 271.336 224.906C271.336 225.484 271.008 225.828 270.43 225.828H265.547V225.891C265.547 227.273 266.352 228.164 267.617 228.164C268.492 228.164 269.062 227.859 269.688 227.062C269.891 226.836 270.07 226.75 270.344 226.75C270.781 226.75 271.125 227.031 271.125 227.5C271.125 227.648 271.078 227.82 270.992 227.992C270.445 229.047 269.211 229.664 267.633 229.664ZM265.562 224.547H269.43C269.391 223.344 268.625 222.555 267.531 222.555C266.438 222.555 265.641 223.359 265.562 224.547ZM273.625 229.656C273.055 229.656 272.648 229.289 272.648 228.633V219.094C272.648 218.438 273.055 218.07 273.625 218.07C274.195 218.07 274.594 218.438 274.594 219.094V228.633C274.594 229.289 274.195 229.656 273.625 229.656ZM279.891 229.664C277.469 229.664 275.906 228.023 275.906 225.367C275.906 222.727 277.461 221.047 279.875 221.047C281.5 221.047 282.883 221.883 283.281 223.047C283.344 223.211 283.383 223.375 283.383 223.516C283.383 224 283.016 224.297 282.547 224.297C282.156 224.297 281.922 224.133 281.695 223.742C281.281 222.984 280.734 222.625 279.93 222.625C278.68 222.625 277.883 223.664 277.883 225.359C277.883 227.078 278.688 228.094 279.922 228.094C280.781 228.094 281.312 227.695 281.688 227.031C281.953 226.594 282.164 226.43 282.586 226.43C283.047 226.43 283.406 226.742 283.406 227.227C283.406 227.375 283.367 227.539 283.289 227.727C282.828 228.859 281.453 229.664 279.891 229.664ZM288.383 229.664C285.953 229.664 284.375 228.047 284.375 225.359C284.375 222.688 285.969 221.047 288.383 221.047C290.797 221.047 292.391 222.68 292.391 225.359C292.391 228.047 290.812 229.664 288.383 229.664ZM288.383 228.125C289.617 228.125 290.414 227.125 290.414 225.359C290.414 223.602 289.617 222.594 288.383 222.594C287.156 222.594 286.352 223.602 286.352 225.359C286.352 227.125 287.148 228.125 288.383 228.125ZM294.609 229.656C294.023 229.656 293.641 229.281 293.641 228.633V222.047C293.641 221.414 294.023 221.055 294.57 221.055C295.117 221.055 295.508 221.414 295.508 222.047V222.656H295.547C295.906 221.695 296.781 221.062 297.906 221.062C299.078 221.062 299.914 221.664 300.219 222.727H300.266C300.664 221.703 301.648 221.062 302.844 221.062C304.477 221.062 305.547 222.164 305.547 223.82V228.633C305.547 229.281 305.156 229.656 304.578 229.656C303.992 229.656 303.602 229.281 303.602 228.633V224.297C303.602 223.281 303.07 222.703 302.117 222.703C301.18 222.703 300.539 223.391 300.539 224.383V228.633C300.539 229.281 300.172 229.656 299.594 229.656C299.008 229.656 298.648 229.281 298.648 228.633V224.195C298.648 223.273 298.086 222.703 297.18 222.703C296.242 222.703 295.586 223.43 295.586 224.43V228.633C295.586 229.281 295.188 229.656 294.609 229.656ZM310.789 229.664C308.258 229.664 306.766 228.078 306.766 225.391C306.766 222.75 308.289 221.047 310.68 221.047C312.945 221.047 314.492 222.656 314.492 224.906C314.492 225.484 314.164 225.828 313.586 225.828H308.703V225.891C308.703 227.273 309.508 228.164 310.773 228.164C311.648 228.164 312.219 227.859 312.844 227.062C313.047 226.836 313.227 226.75 313.5 226.75C313.938 226.75 314.281 227.031 314.281 227.5C314.281 227.648 314.234 227.82 314.148 227.992C313.602 229.047 312.367 229.664 310.789 229.664ZM308.719 224.547H312.586C312.547 223.344 311.781 222.555 310.688 222.555C309.594 222.555 308.797 223.359 308.719 224.547ZM322.633 229.664C320.102 229.664 318.609 228.078 318.609 225.391C318.609 222.75 320.133 221.047 322.523 221.047C324.789 221.047 326.336 222.656 326.336 224.906C326.336 225.484 326.008 225.828 325.43 225.828H320.547V225.891C320.547 227.273 321.352 228.164 322.617 228.164C323.492 228.164 324.062 227.859 324.688 227.062C324.891 226.836 325.07 226.75 325.344 226.75C325.781 226.75 326.125 227.031 326.125 227.5C326.125 227.648 326.078 227.82 325.992 227.992C325.445 229.047 324.211 229.664 322.633 229.664ZM320.562 224.547H324.43C324.391 223.344 323.625 222.555 322.531 222.555C321.438 222.555 320.641 223.359 320.562 224.547ZM328.562 229.656C327.977 229.656 327.594 229.281 327.594 228.633V222.047C327.594 221.414 327.977 221.055 328.523 221.055C329.07 221.055 329.461 221.414 329.461 222.047V222.656H329.5C329.859 221.695 330.734 221.062 331.859 221.062C333.031 221.062 333.867 221.664 334.172 222.727H334.219C334.617 221.703 335.602 221.062 336.797 221.062C338.43 221.062 339.5 222.164 339.5 223.82V228.633C339.5 229.281 339.109 229.656 338.531 229.656C337.945 229.656 337.555 229.281 337.555 228.633V224.297C337.555 223.281 337.023 222.703 336.07 222.703C335.133 222.703 334.492 223.391 334.492 224.383V228.633C334.492 229.281 334.125 229.656 333.547 229.656C332.961 229.656 332.602 229.281 332.602 228.633V224.195C332.602 223.273 332.039 222.703 331.133 222.703C330.195 222.703 329.539 223.43 329.539 224.43V228.633C329.539 229.281 329.141 229.656 328.562 229.656ZM343.492 229.633C341.891 229.633 340.727 228.625 340.727 227.133C340.727 225.664 341.859 224.781 343.875 224.656L346.07 224.531V223.938C346.07 223.07 345.484 222.57 344.523 222.57C343.766 222.57 343.273 222.828 342.789 223.539C342.586 223.805 342.328 223.93 342 223.93C341.523 223.93 341.18 223.617 341.18 223.148C341.18 222.969 341.227 222.797 341.312 222.617C341.734 221.656 343.016 221.047 344.602 221.047C346.656 221.047 347.992 222.133 347.992 223.797V228.68C347.992 229.305 347.594 229.656 347.047 229.656C346.516 229.656 346.148 229.336 346.117 228.758V228.18H346.078C345.602 229.078 344.562 229.633 343.492 229.633ZM344.086 228.164C345.18 228.164 346.07 227.43 346.07 226.43V225.797L344.148 225.914C343.211 225.977 342.672 226.398 342.672 227.055C342.672 227.734 343.242 228.164 344.086 228.164ZM350.578 220.055C349.977 220.055 349.5 219.586 349.5 219C349.5 218.406 349.977 217.945 350.578 217.945C351.188 217.945 351.664 218.406 351.664 219C351.664 219.586 351.188 220.055 350.578 220.055ZM350.578 229.656C349.984 229.656 349.609 229.266 349.609 228.633V222.078C349.609 221.453 349.984 221.055 350.578 221.055C351.172 221.055 351.555 221.453 351.555 222.086V228.633C351.555 229.266 351.172 229.656 350.578 229.656ZM354.219 229.656C353.648 229.656 353.242 229.289 353.242 228.633V219.094C353.242 218.438 353.648 218.07 354.219 218.07C354.789 218.07 355.188 218.438 355.188 219.094V228.633C355.188 229.289 354.789 229.656 354.219 229.656ZM360.039 229.664C358.289 229.664 357.062 228.992 356.664 228C356.609 227.859 356.586 227.734 356.586 227.617C356.586 227.148 356.93 226.852 357.398 226.852C357.719 226.852 357.992 227 358.242 227.328C358.68 227.961 359.18 228.242 360.109 228.242C361.016 228.242 361.617 227.859 361.617 227.234C361.617 226.734 361.305 226.461 360.453 226.266L359.109 225.961C357.492 225.594 356.695 224.797 356.695 223.594C356.695 222.055 358.023 221.047 360.07 221.047C361.664 221.047 362.898 221.828 363.156 222.781C363.18 222.883 363.195 222.977 363.195 223.07C363.195 223.477 362.938 223.766 362.445 223.766C362.164 223.766 361.883 223.664 361.703 223.406C361.32 222.836 360.844 222.477 360.023 222.477C359.172 222.477 358.586 222.891 358.586 223.484C358.586 223.969 358.945 224.297 359.805 224.492L361.125 224.781C362.875 225.18 363.57 225.812 363.57 227.039C363.57 228.625 362.148 229.664 360.039 229.664Z" fill="#E5D7F5"/>
<path d="M178.5 294C177.719 294 177.24 293.512 177.24 292.691V281.217C177.24 280.396 177.719 279.908 178.5 279.908H185.365C186.059 279.908 186.518 280.318 186.518 280.973C186.518 281.627 186.059 282.037 185.365 282.037H179.76V285.846H185.072C185.717 285.846 186.156 286.227 186.156 286.842C186.156 287.457 185.727 287.848 185.072 287.848H179.76V291.871H185.365C186.059 291.871 186.518 292.281 186.518 292.936C186.518 293.59 186.059 294 185.365 294H178.5ZM189.516 294.195C188.803 294.195 188.305 293.736 188.305 292.916V284.674C188.305 283.922 188.744 283.443 189.467 283.443C190.18 283.443 190.668 283.922 190.668 284.674V285.396H190.717C191.273 284.166 192.348 283.453 193.939 283.453C196.225 283.453 197.523 284.918 197.523 287.311V292.916C197.523 293.736 197.025 294.195 196.312 294.195C195.6 294.195 195.092 293.736 195.092 292.916V287.799C195.092 286.334 194.408 285.514 193.021 285.514C191.625 285.514 190.736 286.52 190.736 288.004V292.916C190.736 293.736 190.229 294.195 189.516 294.195ZM200.15 291.441V285.523H199.496C198.891 285.523 198.52 285.162 198.52 284.576C198.52 284 198.891 283.648 199.496 283.648H200.15V282.271C200.15 281.49 200.619 281.002 201.371 281.002C202.113 281.002 202.582 281.49 202.582 282.271V283.648H203.705C204.311 283.648 204.682 284 204.682 284.576C204.682 285.162 204.311 285.523 203.705 285.523H202.582V290.914C202.582 291.695 202.855 292.037 203.559 292.096L203.734 292.115C204.379 292.174 204.711 292.447 204.711 293.014C204.711 293.727 204.086 294.107 202.973 294.107H202.875C201.068 294.107 200.15 293.209 200.15 291.441ZM207.406 294.195C206.674 294.195 206.195 293.717 206.195 292.916V284.674C206.195 283.912 206.664 283.443 207.357 283.443C208.031 283.443 208.51 283.912 208.51 284.674V285.465H208.559C208.842 284.254 209.74 283.473 210.775 283.473C211.156 283.473 211.449 283.57 211.635 283.736C211.859 283.922 211.977 284.215 211.977 284.615C211.977 284.996 211.859 285.279 211.615 285.475C211.381 285.68 211.02 285.787 210.541 285.797C209.154 285.807 208.627 286.676 208.627 287.936V292.916C208.627 293.717 208.139 294.195 207.406 294.195ZM215.873 294.166C213.871 294.166 212.416 292.906 212.416 291.041C212.416 289.205 213.832 288.102 216.352 287.945L219.096 287.789V287.047C219.096 285.963 218.363 285.338 217.162 285.338C216.215 285.338 215.6 285.66 214.994 286.549C214.74 286.881 214.418 287.037 214.008 287.037C213.412 287.037 212.982 286.646 212.982 286.061C212.982 285.836 213.041 285.621 213.148 285.396C213.676 284.195 215.277 283.434 217.26 283.434C219.828 283.434 221.498 284.791 221.498 286.871V292.975C221.498 293.756 221 294.195 220.316 294.195C219.652 294.195 219.193 293.795 219.154 293.072V292.35H219.105C218.51 293.473 217.211 294.166 215.873 294.166ZM216.615 292.33C217.982 292.33 219.096 291.412 219.096 290.162V289.371L216.693 289.518C215.521 289.596 214.848 290.123 214.848 290.943C214.848 291.793 215.561 292.33 216.615 292.33ZM224.672 294.195C223.959 294.195 223.461 293.736 223.461 292.916V284.674C223.461 283.922 223.9 283.443 224.623 283.443C225.336 283.443 225.824 283.922 225.824 284.674V285.396H225.873C226.43 284.166 227.504 283.453 229.096 283.453C231.381 283.453 232.68 284.918 232.68 287.311V292.916C232.68 293.736 232.182 294.195 231.469 294.195C230.756 294.195 230.248 293.736 230.248 292.916V287.799C230.248 286.334 229.564 285.514 228.178 285.514C226.781 285.514 225.893 286.52 225.893 288.004V292.916C225.893 293.736 225.385 294.195 224.672 294.195ZM239.184 294.205C236.156 294.205 234.203 292.154 234.203 288.834C234.203 285.533 236.146 283.434 239.164 283.434C241.195 283.434 242.924 284.479 243.422 285.934C243.5 286.139 243.549 286.344 243.549 286.52C243.549 287.125 243.09 287.496 242.504 287.496C242.016 287.496 241.723 287.291 241.439 286.803C240.922 285.855 240.238 285.406 239.232 285.406C237.67 285.406 236.674 286.705 236.674 288.824C236.674 290.973 237.68 292.242 239.223 292.242C240.297 292.242 240.961 291.744 241.43 290.914C241.762 290.367 242.025 290.162 242.553 290.162C243.129 290.162 243.578 290.553 243.578 291.158C243.578 291.344 243.529 291.549 243.432 291.783C242.855 293.199 241.137 294.205 239.184 294.205ZM249.818 294.205C246.654 294.205 244.789 292.223 244.789 288.863C244.789 285.562 246.693 283.434 249.682 283.434C252.514 283.434 254.447 285.445 254.447 288.258C254.447 288.98 254.037 289.41 253.314 289.41H247.211V289.488C247.211 291.217 248.217 292.33 249.799 292.33C250.893 292.33 251.605 291.949 252.387 290.953C252.641 290.67 252.865 290.562 253.207 290.562C253.754 290.562 254.184 290.914 254.184 291.5C254.184 291.686 254.125 291.9 254.018 292.115C253.334 293.434 251.791 294.205 249.818 294.205ZM247.23 287.809H252.064C252.016 286.305 251.059 285.318 249.691 285.318C248.324 285.318 247.328 286.324 247.23 287.809ZM264.574 294.205C261.547 294.205 259.594 292.154 259.594 288.834C259.594 285.533 261.537 283.434 264.555 283.434C266.586 283.434 268.314 284.479 268.812 285.934C268.891 286.139 268.939 286.344 268.939 286.52C268.939 287.125 268.48 287.496 267.895 287.496C267.406 287.496 267.113 287.291 266.83 286.803C266.312 285.855 265.629 285.406 264.623 285.406C263.061 285.406 262.064 286.705 262.064 288.824C262.064 290.973 263.07 292.242 264.613 292.242C265.688 292.242 266.352 291.744 266.82 290.914C267.152 290.367 267.416 290.162 267.943 290.162C268.52 290.162 268.969 290.553 268.969 291.158C268.969 291.344 268.92 291.549 268.822 291.783C268.246 293.199 266.527 294.205 264.574 294.205ZM275.189 294.205C272.152 294.205 270.18 292.184 270.18 288.824C270.18 285.484 272.172 283.434 275.189 283.434C278.207 283.434 280.199 285.475 280.199 288.824C280.199 292.184 278.227 294.205 275.189 294.205ZM275.189 292.281C276.732 292.281 277.729 291.031 277.729 288.824C277.729 286.627 276.732 285.367 275.189 285.367C273.656 285.367 272.65 286.627 272.65 288.824C272.65 291.031 273.646 292.281 275.189 292.281ZM282.973 294.195C282.26 294.195 281.762 293.736 281.762 292.916V284.674C281.762 283.922 282.201 283.443 282.924 283.443C283.637 283.443 284.125 283.922 284.125 284.674V285.396H284.174C284.73 284.166 285.805 283.453 287.396 283.453C289.682 283.453 290.98 284.918 290.98 287.311V292.916C290.98 293.736 290.482 294.195 289.77 294.195C289.057 294.195 288.549 293.736 288.549 292.916V287.799C288.549 286.334 287.865 285.514 286.479 285.514C285.082 285.514 284.193 286.52 284.193 288.004V292.916C284.193 293.736 283.686 294.195 282.973 294.195ZM296.801 294.166C294.193 294.166 292.504 292.105 292.504 288.814C292.504 285.543 294.193 283.473 296.801 283.473C298.285 283.473 299.457 284.244 300.004 285.387H300.062V280.992C300.062 280.172 300.561 279.713 301.273 279.713C301.986 279.713 302.494 280.172 302.494 280.992V292.975C302.494 293.756 301.996 294.195 301.293 294.195C300.59 294.195 300.062 293.766 300.062 292.975V292.164H300.014C299.516 293.355 298.402 294.166 296.801 294.166ZM297.533 292.174C299.066 292.174 300.072 290.875 300.072 288.824C300.072 286.793 299.066 285.475 297.533 285.475C295.971 285.475 294.994 286.773 294.994 288.824C294.994 290.885 295.961 292.174 297.533 292.174ZM305.805 282.193C305.053 282.193 304.457 281.607 304.457 280.875C304.457 280.133 305.053 279.557 305.805 279.557C306.566 279.557 307.162 280.133 307.162 280.875C307.162 281.607 306.566 282.193 305.805 282.193ZM305.805 294.195C305.062 294.195 304.594 293.707 304.594 292.916V284.723C304.594 283.941 305.062 283.443 305.805 283.443C306.547 283.443 307.025 283.941 307.025 284.732V292.916C307.025 293.707 306.547 294.195 305.805 294.195ZM309.74 291.441V285.523H309.086C308.48 285.523 308.109 285.162 308.109 284.576C308.109 284 308.48 283.648 309.086 283.648H309.74V282.271C309.74 281.49 310.209 281.002 310.961 281.002C311.703 281.002 312.172 281.49 312.172 282.271V283.648H313.295C313.9 283.648 314.271 284 314.271 284.576C314.271 285.162 313.9 285.523 313.295 285.523H312.172V290.914C312.172 291.695 312.445 292.037 313.148 292.096L313.324 292.115C313.969 292.174 314.301 292.447 314.301 293.014C314.301 293.727 313.676 294.107 312.562 294.107H312.465C310.658 294.107 309.74 293.209 309.74 291.441ZM317.055 282.193C316.303 282.193 315.707 281.607 315.707 280.875C315.707 280.133 316.303 279.557 317.055 279.557C317.816 279.557 318.412 280.133 318.412 280.875C318.412 281.607 317.816 282.193 317.055 282.193ZM317.055 294.195C316.312 294.195 315.844 293.707 315.844 292.916V284.723C315.844 283.941 316.312 283.443 317.055 283.443C317.797 283.443 318.275 283.941 318.275 284.732V292.916C318.275 293.707 317.797 294.195 317.055 294.195ZM324.896 294.205C321.859 294.205 319.887 292.184 319.887 288.824C319.887 285.484 321.879 283.434 324.896 283.434C327.914 283.434 329.906 285.475 329.906 288.824C329.906 292.184 327.934 294.205 324.896 294.205ZM324.896 292.281C326.439 292.281 327.436 291.031 327.436 288.824C327.436 286.627 326.439 285.367 324.896 285.367C323.363 285.367 322.357 286.627 322.357 288.824C322.357 291.031 323.354 292.281 324.896 292.281ZM332.68 294.195C331.967 294.195 331.469 293.736 331.469 292.916V284.674C331.469 283.922 331.908 283.443 332.631 283.443C333.344 283.443 333.832 283.922 333.832 284.674V285.396H333.881C334.438 284.166 335.512 283.453 337.104 283.453C339.389 283.453 340.688 284.918 340.688 287.311V292.916C340.688 293.736 340.189 294.195 339.477 294.195C338.764 294.195 338.256 293.736 338.256 292.916V287.799C338.256 286.334 337.572 285.514 336.186 285.514C334.789 285.514 333.9 286.52 333.9 288.004V292.916C333.9 293.736 333.393 294.195 332.68 294.195ZM346.635 294.205C344.447 294.205 342.914 293.365 342.416 292.125C342.348 291.949 342.318 291.793 342.318 291.646C342.318 291.061 342.748 290.689 343.334 290.689C343.734 290.689 344.076 290.875 344.389 291.285C344.936 292.076 345.561 292.428 346.723 292.428C347.855 292.428 348.607 291.949 348.607 291.168C348.607 290.543 348.217 290.201 347.152 289.957L345.473 289.576C343.451 289.117 342.455 288.121 342.455 286.617C342.455 284.693 344.115 283.434 346.674 283.434C348.666 283.434 350.209 284.41 350.531 285.602C350.561 285.729 350.58 285.846 350.58 285.963C350.58 286.471 350.258 286.832 349.643 286.832C349.291 286.832 348.939 286.705 348.715 286.383C348.236 285.67 347.641 285.221 346.615 285.221C345.551 285.221 344.818 285.738 344.818 286.48C344.818 287.086 345.268 287.496 346.342 287.74L347.992 288.102C350.18 288.6 351.049 289.391 351.049 290.924C351.049 292.906 349.271 294.205 346.635 294.205Z" fill="#E5D7F5"/>
<rect x="176" y="310" width="219.557" height="48" rx="16" fill="#CBB0EB"/>
<path fill-rule="evenodd" clip-rule="evenodd" d="M201.223 324.05C201.448 324.121 201.645 324.262 201.785 324.453C201.925 324.644 202.001 324.874 202 325.11V330.666H206.445C206.648 330.666 206.848 330.722 207.021 330.827C207.195 330.932 207.337 331.083 207.431 331.263C207.525 331.444 207.567 331.646 207.554 331.849C207.541 332.052 207.473 332.247 207.356 332.414L199.578 343.525C199.443 343.719 199.249 343.864 199.025 343.941C198.801 344.017 198.559 344.02 198.333 343.949C198.108 343.878 197.911 343.737 197.771 343.546C197.631 343.355 197.556 343.125 197.556 342.888V337.333H193.112C192.908 337.333 192.709 337.277 192.535 337.172C192.361 337.066 192.22 336.915 192.126 336.735C192.032 336.555 191.989 336.352 192.002 336.15C192.015 335.947 192.084 335.751 192.2 335.585L199.978 324.474C200.114 324.28 200.308 324.135 200.531 324.059C200.755 323.983 200.997 323.98 201.223 324.051V324.05Z" fill="#1F1738"/>
<path d="M217.557 339.633C216.932 339.633 216.549 339.25 216.549 338.586V329.273C216.549 328.617 216.932 328.227 217.557 328.227H220.932C223.174 328.227 224.729 329.75 224.729 332C224.729 334.25 223.127 335.773 220.846 335.773H218.564V338.586C218.564 339.25 218.189 339.633 217.557 339.633ZM218.564 334.148H220.393C221.838 334.148 222.682 333.367 222.682 332C222.682 330.648 221.846 329.875 220.4 329.875H218.564V334.148ZM228.908 339.648C227.111 339.648 225.971 338.484 225.971 336.57V332.078C225.971 331.43 226.369 331.055 226.939 331.055C227.51 331.055 227.916 331.43 227.916 332.086V336.18C227.916 337.367 228.494 338.008 229.588 338.008C230.713 338.008 231.408 337.211 231.408 336.008V332.078C231.408 331.43 231.814 331.055 232.385 331.055C232.947 331.055 233.354 331.43 233.354 332.086V338.672C233.354 339.297 232.979 339.656 232.424 339.656C231.861 339.656 231.479 339.297 231.479 338.672V338.062H231.439C231.002 339.07 230.166 339.648 228.908 339.648ZM235.916 339.656C235.33 339.656 234.947 339.273 234.947 338.633V332.039C234.947 331.43 235.322 331.055 235.877 331.055C236.416 331.055 236.799 331.43 236.799 332.039V332.672H236.838C237.064 331.703 237.783 331.078 238.611 331.078C238.916 331.078 239.15 331.156 239.299 331.289C239.479 331.438 239.572 331.672 239.572 331.992C239.572 332.297 239.479 332.523 239.283 332.68C239.096 332.844 238.807 332.93 238.424 332.938C237.314 332.945 236.893 333.641 236.893 334.648V338.633C236.893 339.273 236.502 339.656 235.916 339.656ZM243.775 339.664C241.354 339.664 239.791 338.023 239.791 335.367C239.791 332.727 241.346 331.047 243.76 331.047C245.385 331.047 246.768 331.883 247.166 333.047C247.229 333.211 247.268 333.375 247.268 333.516C247.268 334 246.9 334.297 246.432 334.297C246.041 334.297 245.807 334.133 245.58 333.742C245.166 332.984 244.619 332.625 243.814 332.625C242.564 332.625 241.768 333.664 241.768 335.359C241.768 337.078 242.572 338.094 243.807 338.094C244.666 338.094 245.197 337.695 245.572 337.031C245.838 336.594 246.049 336.43 246.471 336.43C246.932 336.43 247.291 336.742 247.291 337.227C247.291 337.375 247.252 337.539 247.174 337.727C246.713 338.859 245.338 339.664 243.775 339.664ZM249.635 339.656C249.064 339.656 248.658 339.289 248.658 338.633V329.07C248.658 328.453 249.025 328.07 249.619 328.07C250.221 328.07 250.58 328.453 250.58 329.07V332.641H250.619C251.064 331.633 251.979 331.062 253.236 331.062C255.064 331.062 256.135 332.266 256.135 334.164V338.633C256.135 339.289 255.729 339.656 255.158 339.656C254.588 339.656 254.189 339.289 254.189 338.633V334.562C254.189 333.406 253.611 332.711 252.486 332.711C251.314 332.711 250.604 333.523 250.604 334.742V338.633C250.604 339.289 250.205 339.656 249.635 339.656ZM260.127 339.633C258.525 339.633 257.361 338.625 257.361 337.133C257.361 335.664 258.494 334.781 260.51 334.656L262.705 334.531V333.938C262.705 333.07 262.119 332.57 261.158 332.57C260.4 332.57 259.908 332.828 259.424 333.539C259.221 333.805 258.963 333.93 258.635 333.93C258.158 333.93 257.814 333.617 257.814 333.148C257.814 332.969 257.861 332.797 257.947 332.617C258.369 331.656 259.65 331.047 261.236 331.047C263.291 331.047 264.627 332.133 264.627 333.797V338.68C264.627 339.305 264.229 339.656 263.682 339.656C263.15 339.656 262.783 339.336 262.752 338.758V338.18H262.713C262.236 339.078 261.197 339.633 260.127 339.633ZM260.721 338.164C261.814 338.164 262.705 337.43 262.705 336.43V335.797L260.783 335.914C259.846 335.977 259.307 336.398 259.307 337.055C259.307 337.734 259.877 338.164 260.721 338.164ZM269.393 339.664C267.643 339.664 266.416 338.992 266.018 338C265.963 337.859 265.939 337.734 265.939 337.617C265.939 337.148 266.283 336.852 266.752 336.852C267.072 336.852 267.346 337 267.596 337.328C268.033 337.961 268.533 338.242 269.463 338.242C270.369 338.242 270.971 337.859 270.971 337.234C270.971 336.734 270.658 336.461 269.807 336.266L268.463 335.961C266.846 335.594 266.049 334.797 266.049 333.594C266.049 332.055 267.377 331.047 269.424 331.047C271.018 331.047 272.252 331.828 272.51 332.781C272.533 332.883 272.549 332.977 272.549 333.07C272.549 333.477 272.291 333.766 271.799 333.766C271.518 333.766 271.236 333.664 271.057 333.406C270.674 332.836 270.197 332.477 269.377 332.477C268.525 332.477 267.939 332.891 267.939 333.484C267.939 333.969 268.299 334.297 269.158 334.492L270.479 334.781C272.229 335.18 272.924 335.812 272.924 337.039C272.924 338.625 271.502 339.664 269.393 339.664ZM277.83 339.664C275.299 339.664 273.807 338.078 273.807 335.391C273.807 332.75 275.33 331.047 277.721 331.047C279.986 331.047 281.533 332.656 281.533 334.906C281.533 335.484 281.205 335.828 280.627 335.828H275.744V335.891C275.744 337.273 276.549 338.164 277.814 338.164C278.689 338.164 279.26 337.859 279.885 337.062C280.088 336.836 280.268 336.75 280.541 336.75C280.979 336.75 281.322 337.031 281.322 337.5C281.322 337.648 281.275 337.82 281.189 337.992C280.643 339.047 279.408 339.664 277.83 339.664ZM275.76 334.547H279.627C279.588 333.344 278.822 332.555 277.729 332.555C276.635 332.555 275.838 333.359 275.76 334.547ZM285.885 339.633C283.799 339.633 282.447 337.984 282.447 335.352C282.447 332.734 283.799 331.078 285.885 331.078C287.072 331.078 288.01 331.695 288.447 332.609H288.494V329.094C288.494 328.438 288.893 328.07 289.463 328.07C290.033 328.07 290.439 328.438 290.439 329.094V338.68C290.439 339.305 290.041 339.656 289.479 339.656C288.916 339.656 288.494 339.312 288.494 338.68V338.031H288.455C288.057 338.984 287.166 339.633 285.885 339.633ZM286.471 338.039C287.697 338.039 288.502 337 288.502 335.359C288.502 333.734 287.697 332.68 286.471 332.68C285.221 332.68 284.439 333.719 284.439 335.359C284.439 337.008 285.213 338.039 286.471 338.039ZM297.705 339.633C296.104 339.633 294.939 338.625 294.939 337.133C294.939 335.664 296.072 334.781 298.088 334.656L300.283 334.531V333.938C300.283 333.07 299.697 332.57 298.736 332.57C297.979 332.57 297.486 332.828 297.002 333.539C296.799 333.805 296.541 333.93 296.213 333.93C295.736 333.93 295.393 333.617 295.393 333.148C295.393 332.969 295.439 332.797 295.525 332.617C295.947 331.656 297.229 331.047 298.814 331.047C300.869 331.047 302.205 332.133 302.205 333.797V338.68C302.205 339.305 301.807 339.656 301.26 339.656C300.729 339.656 300.361 339.336 300.33 338.758V338.18H300.291C299.814 339.078 298.775 339.633 297.705 339.633ZM298.299 338.164C299.393 338.164 300.283 337.43 300.283 336.43V335.797L298.361 335.914C297.424 335.977 296.885 336.398 296.885 337.055C296.885 337.734 297.455 338.164 298.299 338.164ZM304.744 339.656C304.174 339.656 303.775 339.289 303.775 338.633V332.039C303.775 331.438 304.127 331.055 304.705 331.055C305.275 331.055 305.666 331.438 305.666 332.039V332.617H305.705C306.15 331.633 307.01 331.062 308.283 331.062C310.111 331.062 311.15 332.234 311.15 334.148V338.633C311.15 339.289 310.752 339.656 310.182 339.656C309.611 339.656 309.205 339.289 309.205 338.633V334.539C309.205 333.367 308.658 332.711 307.549 332.711C306.432 332.711 305.721 333.516 305.721 334.703V338.633C305.721 339.289 305.314 339.656 304.744 339.656ZM313.869 342.578C312.994 342.578 312.518 342.25 312.518 341.656C312.518 341.258 312.799 341 313.252 341C313.416 341 313.494 341.008 313.674 341.008C314.111 341.008 314.564 340.781 314.854 340.055L314.994 339.648L312.283 332.516C312.213 332.32 312.174 332.117 312.174 331.961C312.174 331.43 312.604 331.055 313.174 331.055C313.666 331.055 313.939 331.273 314.104 331.82L316.08 337.844H316.111L318.088 331.812C318.252 331.281 318.533 331.055 319.025 331.055C319.58 331.055 319.971 331.422 319.971 331.938C319.971 332.094 319.932 332.312 319.861 332.5L317.135 339.797C316.385 341.859 315.525 342.578 313.869 342.578ZM325.213 342.445C324.643 342.445 324.244 342.078 324.244 341.422V332.055C324.244 331.414 324.635 331.055 325.189 331.055C325.744 331.055 326.143 331.414 326.143 332.055V332.648H326.182C326.65 331.688 327.588 331.078 328.791 331.078C330.893 331.078 332.229 332.711 332.229 335.359C332.229 338 330.9 339.633 328.822 339.633C327.619 339.633 326.682 339.055 326.229 338.125H326.189V341.422C326.189 342.078 325.783 342.445 325.213 342.445ZM328.197 338.039C329.455 338.039 330.236 337 330.236 335.359C330.236 333.727 329.455 332.68 328.197 332.68C326.986 332.68 326.182 333.75 326.174 335.359C326.182 336.984 326.986 338.039 328.197 338.039ZM334.447 339.656C333.861 339.656 333.479 339.273 333.479 338.633V332.039C333.479 331.43 333.854 331.055 334.408 331.055C334.947 331.055 335.33 331.43 335.33 332.039V332.672H335.369C335.596 331.703 336.314 331.078 337.143 331.078C337.447 331.078 337.682 331.156 337.83 331.289C338.01 331.438 338.104 331.672 338.104 331.992C338.104 332.297 338.01 332.523 337.814 332.68C337.627 332.844 337.338 332.93 336.955 332.938C335.846 332.945 335.424 333.641 335.424 334.648V338.633C335.424 339.273 335.033 339.656 334.447 339.656ZM342.33 339.664C339.9 339.664 338.322 338.047 338.322 335.359C338.322 332.688 339.916 331.047 342.33 331.047C344.744 331.047 346.338 332.68 346.338 335.359C346.338 338.047 344.76 339.664 342.33 339.664ZM342.33 338.125C343.564 338.125 344.361 337.125 344.361 335.359C344.361 333.602 343.564 332.594 342.33 332.594C341.104 332.594 340.299 333.602 340.299 335.359C340.299 337.125 341.096 338.125 342.33 338.125ZM350.682 339.633C348.596 339.633 347.244 337.984 347.244 335.352C347.244 332.734 348.596 331.078 350.682 331.078C351.869 331.078 352.807 331.695 353.244 332.609H353.291V329.094C353.291 328.438 353.689 328.07 354.26 328.07C354.83 328.07 355.236 328.438 355.236 329.094V338.68C355.236 339.305 354.838 339.656 354.275 339.656C353.713 339.656 353.291 339.312 353.291 338.68V338.031H353.252C352.854 338.984 351.963 339.633 350.682 339.633ZM351.268 338.039C352.494 338.039 353.299 337 353.299 335.359C353.299 333.734 352.494 332.68 351.268 332.68C350.018 332.68 349.236 333.719 349.236 335.359C349.236 337.008 350.01 338.039 351.268 338.039ZM359.768 339.648C357.971 339.648 356.83 338.484 356.83 336.57V332.078C356.83 331.43 357.229 331.055 357.799 331.055C358.369 331.055 358.775 331.43 358.775 332.086V336.18C358.775 337.367 359.354 338.008 360.447 338.008C361.572 338.008 362.268 337.211 362.268 336.008V332.078C362.268 331.43 362.674 331.055 363.244 331.055C363.807 331.055 364.213 331.43 364.213 332.086V338.672C364.213 339.297 363.838 339.656 363.283 339.656C362.721 339.656 362.338 339.297 362.338 338.672V338.062H362.299C361.861 339.07 361.025 339.648 359.768 339.648ZM369.447 339.664C367.025 339.664 365.463 338.023 365.463 335.367C365.463 332.727 367.018 331.047 369.432 331.047C371.057 331.047 372.439 331.883 372.838 333.047C372.9 333.211 372.939 333.375 372.939 333.516C372.939 334 372.572 334.297 372.104 334.297C371.713 334.297 371.479 334.133 371.252 333.742C370.838 332.984 370.291 332.625 369.486 332.625C368.236 332.625 367.439 333.664 367.439 335.359C367.439 337.078 368.244 338.094 369.479 338.094C370.338 338.094 370.869 337.695 371.244 337.031C371.51 336.594 371.721 336.43 372.143 336.43C372.604 336.43 372.963 336.742 372.963 337.227C372.963 337.375 372.924 337.539 372.846 337.727C372.385 338.859 371.01 339.664 369.447 339.664ZM374.814 337.453V332.719H374.291C373.807 332.719 373.51 332.43 373.51 331.961C373.51 331.5 373.807 331.219 374.291 331.219H374.814V330.117C374.814 329.492 375.189 329.102 375.791 329.102C376.385 329.102 376.76 329.492 376.76 330.117V331.219H377.658C378.143 331.219 378.439 331.5 378.439 331.961C378.439 332.43 378.143 332.719 377.658 332.719H376.76V337.031C376.76 337.656 376.979 337.93 377.541 337.977L377.682 337.992C378.197 338.039 378.463 338.258 378.463 338.711C378.463 339.281 377.963 339.586 377.072 339.586H376.994C375.549 339.586 374.814 338.867 374.814 337.453Z" fill="#1F1738"/>
<rect x="405.557" y="310" width="199.557" height="48" rx="16" fill="#CBB0EB"/>
<path fill-rule="evenodd" clip-rule="evenodd" d="M430.779 324.05C431.005 324.121 431.202 324.262 431.342 324.453C431.482 324.644 431.557 324.874 431.557 325.11V330.666H436.002C436.205 330.666 436.404 330.722 436.578 330.827C436.752 330.932 436.893 331.083 436.987 331.263C437.081 331.444 437.124 331.646 437.111 331.849C437.098 332.052 437.029 332.247 436.913 332.414L429.135 343.525C429 343.719 428.806 343.864 428.582 343.941C428.358 344.017 428.116 344.02 427.89 343.949C427.665 343.878 427.468 343.737 427.328 343.546C427.188 343.355 427.113 343.125 427.113 342.888V337.333H422.668C422.465 337.333 422.266 337.277 422.092 337.172C421.918 337.066 421.776 336.915 421.682 336.735C421.589 336.555 421.546 336.352 421.559 336.15C421.572 335.947 421.641 335.751 421.757 335.585L429.535 324.474C429.67 324.28 429.864 324.135 430.088 324.059C430.312 323.983 430.554 323.98 430.779 324.051V324.05Z" fill="#1F1738"/>
<path d="M450.074 339.688C447.824 339.688 446.324 338.75 445.887 337.469C445.816 337.281 445.777 337.078 445.777 336.891C445.777 336.328 446.137 335.969 446.668 335.969C447.113 335.969 447.395 336.148 447.613 336.602C447.965 337.578 448.934 338.016 450.137 338.016C451.496 338.016 452.449 337.344 452.449 336.406C452.449 335.594 451.887 335.094 450.418 334.789L449.207 334.539C446.949 334.078 445.895 333.016 445.895 331.367C445.895 329.383 447.637 328.039 450.082 328.039C452.074 328.039 453.621 328.93 454.082 330.422C454.129 330.547 454.152 330.695 454.152 330.883C454.152 331.375 453.801 331.711 453.277 331.711C452.809 331.711 452.52 331.508 452.309 331.07C451.926 330.117 451.121 329.711 450.066 329.711C448.816 329.711 447.926 330.305 447.926 331.25C447.926 332.016 448.488 332.508 449.895 332.805L451.105 333.055C453.48 333.547 454.48 334.5 454.48 336.172C454.48 338.328 452.785 339.688 450.074 339.688ZM458.699 339.648C456.902 339.648 455.762 338.484 455.762 336.57V332.078C455.762 331.43 456.16 331.055 456.73 331.055C457.301 331.055 457.707 331.43 457.707 332.086V336.18C457.707 337.367 458.285 338.008 459.379 338.008C460.504 338.008 461.199 337.211 461.199 336.008V332.078C461.199 331.43 461.605 331.055 462.176 331.055C462.738 331.055 463.145 331.43 463.145 332.086V338.672C463.145 339.297 462.77 339.656 462.215 339.656C461.652 339.656 461.27 339.297 461.27 338.672V338.062H461.23C460.793 339.07 459.957 339.648 458.699 339.648ZM465.738 339.656C465.176 339.656 464.793 339.312 464.793 338.68V329.094C464.793 328.438 465.199 328.07 465.77 328.07C466.34 328.07 466.738 328.438 466.738 329.094V332.641H466.785C467.262 331.672 468.199 331.078 469.379 331.078C471.465 331.078 472.793 332.711 472.793 335.359C472.793 338.008 471.473 339.633 469.371 339.633C468.16 339.633 467.23 339.047 466.738 338.086H466.699V338.68C466.699 339.305 466.301 339.656 465.738 339.656ZM468.777 338.039C470.02 338.039 470.801 337.008 470.801 335.359C470.801 333.719 470.02 332.68 468.777 332.68C467.574 332.68 466.73 333.75 466.73 335.359C466.73 336.984 467.574 338.039 468.777 338.039ZM477.246 339.664C475.496 339.664 474.27 338.992 473.871 338C473.816 337.859 473.793 337.734 473.793 337.617C473.793 337.148 474.137 336.852 474.605 336.852C474.926 336.852 475.199 337 475.449 337.328C475.887 337.961 476.387 338.242 477.316 338.242C478.223 338.242 478.824 337.859 478.824 337.234C478.824 336.734 478.512 336.461 477.66 336.266L476.316 335.961C474.699 335.594 473.902 334.797 473.902 333.594C473.902 332.055 475.23 331.047 477.277 331.047C478.871 331.047 480.105 331.828 480.363 332.781C480.387 332.883 480.402 332.977 480.402 333.07C480.402 333.477 480.145 333.766 479.652 333.766C479.371 333.766 479.09 333.664 478.91 333.406C478.527 332.836 478.051 332.477 477.23 332.477C476.379 332.477 475.793 332.891 475.793 333.484C475.793 333.969 476.152 334.297 477.012 334.492L478.332 334.781C480.082 335.18 480.777 335.812 480.777 337.039C480.777 338.625 479.355 339.664 477.246 339.664ZM485.645 339.664C483.223 339.664 481.66 338.023 481.66 335.367C481.66 332.727 483.215 331.047 485.629 331.047C487.254 331.047 488.637 331.883 489.035 333.047C489.098 333.211 489.137 333.375 489.137 333.516C489.137 334 488.77 334.297 488.301 334.297C487.91 334.297 487.676 334.133 487.449 333.742C487.035 332.984 486.488 332.625 485.684 332.625C484.434 332.625 483.637 333.664 483.637 335.359C483.637 337.078 484.441 338.094 485.676 338.094C486.535 338.094 487.066 337.695 487.441 337.031C487.707 336.594 487.918 336.43 488.34 336.43C488.801 336.43 489.16 336.742 489.16 337.227C489.16 337.375 489.121 337.539 489.043 337.727C488.582 338.859 487.207 339.664 485.645 339.664ZM491.441 339.656C490.855 339.656 490.473 339.273 490.473 338.633V332.039C490.473 331.43 490.848 331.055 491.402 331.055C491.941 331.055 492.324 331.43 492.324 332.039V332.672H492.363C492.59 331.703 493.309 331.078 494.137 331.078C494.441 331.078 494.676 331.156 494.824 331.289C495.004 331.438 495.098 331.672 495.098 331.992C495.098 332.297 495.004 332.523 494.809 332.68C494.621 332.844 494.332 332.93 493.949 332.938C492.84 332.945 492.418 333.641 492.418 334.648V338.633C492.418 339.273 492.027 339.656 491.441 339.656ZM496.988 330.055C496.387 330.055 495.91 329.586 495.91 329C495.91 328.406 496.387 327.945 496.988 327.945C497.598 327.945 498.074 328.406 498.074 329C498.074 329.586 497.598 330.055 496.988 330.055ZM496.988 339.656C496.395 339.656 496.02 339.266 496.02 338.633V332.078C496.02 331.453 496.395 331.055 496.988 331.055C497.582 331.055 497.965 331.453 497.965 332.086V338.633C497.965 339.266 497.582 339.656 496.988 339.656ZM500.598 339.656C500.035 339.656 499.652 339.312 499.652 338.68V329.094C499.652 328.438 500.059 328.07 500.629 328.07C501.199 328.07 501.598 328.438 501.598 329.094V332.641H501.645C502.121 331.672 503.059 331.078 504.238 331.078C506.324 331.078 507.652 332.711 507.652 335.359C507.652 338.008 506.332 339.633 504.23 339.633C503.02 339.633 502.09 339.047 501.598 338.086H501.559V338.68C501.559 339.305 501.16 339.656 500.598 339.656ZM503.637 338.039C504.879 338.039 505.66 337.008 505.66 335.359C505.66 333.719 504.879 332.68 503.637 332.68C502.434 332.68 501.59 333.75 501.59 335.359C501.59 336.984 502.434 338.039 503.637 338.039ZM512.59 339.664C510.059 339.664 508.566 338.078 508.566 335.391C508.566 332.75 510.09 331.047 512.48 331.047C514.746 331.047 516.293 332.656 516.293 334.906C516.293 335.484 515.965 335.828 515.387 335.828H510.504V335.891C510.504 337.273 511.309 338.164 512.574 338.164C513.449 338.164 514.02 337.859 514.645 337.062C514.848 336.836 515.027 336.75 515.301 336.75C515.738 336.75 516.082 337.031 516.082 337.5C516.082 337.648 516.035 337.82 515.949 337.992C515.402 339.047 514.168 339.664 512.59 339.664ZM510.52 334.547H514.387C514.348 333.344 513.582 332.555 512.488 332.555C511.395 332.555 510.598 333.359 510.52 334.547ZM522.27 339.656C521.684 339.656 521.293 339.297 521.293 338.641V332.719H520.777C520.34 332.719 520.027 332.453 520.027 331.977C520.027 331.523 520.34 331.242 520.777 331.242H521.293V330.508C521.293 328.891 522.082 328.148 523.574 328.141C524.605 328.141 525.066 328.469 525.066 328.953C525.066 329.25 524.926 329.43 524.637 329.516C524.512 329.547 524.379 329.562 524.207 329.57C523.496 329.586 523.207 329.898 523.207 330.594V331.242H524.254C524.684 331.242 524.996 331.523 524.996 331.977C524.996 332.453 524.684 332.719 524.254 332.719H523.238V338.641C523.238 339.297 522.848 339.656 522.27 339.656ZM529.512 339.664C527.082 339.664 525.504 338.047 525.504 335.359C525.504 332.688 527.098 331.047 529.512 331.047C531.926 331.047 533.52 332.68 533.52 335.359C533.52 338.047 531.941 339.664 529.512 339.664ZM529.512 338.125C530.746 338.125 531.543 337.125 531.543 335.359C531.543 333.602 530.746 332.594 529.512 332.594C528.285 332.594 527.48 333.602 527.48 335.359C527.48 337.125 528.277 338.125 529.512 338.125ZM535.738 339.656C535.152 339.656 534.77 339.273 534.77 338.633V332.039C534.77 331.43 535.145 331.055 535.699 331.055C536.238 331.055 536.621 331.43 536.621 332.039V332.672H536.66C536.887 331.703 537.605 331.078 538.434 331.078C538.738 331.078 538.973 331.156 539.121 331.289C539.301 331.438 539.395 331.672 539.395 331.992C539.395 332.297 539.301 332.523 539.105 332.68C538.918 332.844 538.629 332.93 538.246 332.938C537.137 332.945 536.715 333.641 536.715 334.648V338.633C536.715 339.273 536.324 339.656 535.738 339.656ZM547.152 339.664C544.621 339.664 543.129 338.078 543.129 335.391C543.129 332.75 544.652 331.047 547.043 331.047C549.309 331.047 550.855 332.656 550.855 334.906C550.855 335.484 550.527 335.828 549.949 335.828H545.066V335.891C545.066 337.273 545.871 338.164 547.137 338.164C548.012 338.164 548.582 337.859 549.207 337.062C549.41 336.836 549.59 336.75 549.863 336.75C550.301 336.75 550.645 337.031 550.645 337.5C550.645 337.648 550.598 337.82 550.512 337.992C549.965 339.047 548.73 339.664 547.152 339.664ZM545.082 334.547H548.949C548.91 333.344 548.145 332.555 547.051 332.555C545.957 332.555 545.16 333.359 545.082 334.547ZM553.082 339.656C552.496 339.656 552.113 339.281 552.113 338.633V332.047C552.113 331.414 552.496 331.055 553.043 331.055C553.59 331.055 553.98 331.414 553.98 332.047V332.656H554.02C554.379 331.695 555.254 331.062 556.379 331.062C557.551 331.062 558.387 331.664 558.691 332.727H558.738C559.137 331.703 560.121 331.062 561.316 331.062C562.949 331.062 564.02 332.164 564.02 333.82V338.633C564.02 339.281 563.629 339.656 563.051 339.656C562.465 339.656 562.074 339.281 562.074 338.633V334.297C562.074 333.281 561.543 332.703 560.59 332.703C559.652 332.703 559.012 333.391 559.012 334.383V338.633C559.012 339.281 558.645 339.656 558.066 339.656C557.48 339.656 557.121 339.281 557.121 338.633V334.195C557.121 333.273 556.559 332.703 555.652 332.703C554.715 332.703 554.059 333.43 554.059 334.43V338.633C554.059 339.281 553.66 339.656 553.082 339.656ZM568.012 339.633C566.41 339.633 565.246 338.625 565.246 337.133C565.246 335.664 566.379 334.781 568.395 334.656L570.59 334.531V333.938C570.59 333.07 570.004 332.57 569.043 332.57C568.285 332.57 567.793 332.828 567.309 333.539C567.105 333.805 566.848 333.93 566.52 333.93C566.043 333.93 565.699 333.617 565.699 333.148C565.699 332.969 565.746 332.797 565.832 332.617C566.254 331.656 567.535 331.047 569.121 331.047C571.176 331.047 572.512 332.133 572.512 333.797V338.68C572.512 339.305 572.113 339.656 571.566 339.656C571.035 339.656 570.668 339.336 570.637 338.758V338.18H570.598C570.121 339.078 569.082 339.633 568.012 339.633ZM568.605 338.164C569.699 338.164 570.59 337.43 570.59 336.43V335.797L568.668 335.914C567.73 335.977 567.191 336.398 567.191 337.055C567.191 337.734 567.762 338.164 568.605 338.164ZM575.098 330.055C574.496 330.055 574.02 329.586 574.02 329C574.02 328.406 574.496 327.945 575.098 327.945C575.707 327.945 576.184 328.406 576.184 329C576.184 329.586 575.707 330.055 575.098 330.055ZM575.098 339.656C574.504 339.656 574.129 339.266 574.129 338.633V332.078C574.129 331.453 574.504 331.055 575.098 331.055C575.691 331.055 576.074 331.453 576.074 332.086V338.633C576.074 339.266 575.691 339.656 575.098 339.656ZM578.738 339.656C578.168 339.656 577.762 339.289 577.762 338.633V329.094C577.762 328.438 578.168 328.07 578.738 328.07C579.309 328.07 579.707 328.438 579.707 329.094V338.633C579.707 339.289 579.309 339.656 578.738 339.656ZM584.559 339.664C582.809 339.664 581.582 338.992 581.184 338C581.129 337.859 581.105 337.734 581.105 337.617C581.105 337.148 581.449 336.852 581.918 336.852C582.238 336.852 582.512 337 582.762 337.328C583.199 337.961 583.699 338.242 584.629 338.242C585.535 338.242 586.137 337.859 586.137 337.234C586.137 336.734 585.824 336.461 584.973 336.266L583.629 335.961C582.012 335.594 581.215 334.797 581.215 333.594C581.215 332.055 582.543 331.047 584.59 331.047C586.184 331.047 587.418 331.828 587.676 332.781C587.699 332.883 587.715 332.977 587.715 333.07C587.715 333.477 587.457 333.766 586.965 333.766C586.684 333.766 586.402 333.664 586.223 333.406C585.84 332.836 585.363 332.477 584.543 332.477C583.691 332.477 583.105 332.891 583.105 333.484C583.105 333.969 583.465 334.297 584.324 334.492L585.645 334.781C587.395 335.18 588.09 335.812 588.09 337.039C588.09 338.625 586.668 339.664 584.559 339.664Z" fill="#1F1738"/>
<path d="M178.5 404C177.719 404 177.24 403.512 177.24 402.691V391.217C177.24 390.396 177.719 389.908 178.5 389.908H185.365C186.059 389.908 186.518 390.318 186.518 390.973C186.518 391.627 186.059 392.037 185.365 392.037H179.76V395.846H185.072C185.717 395.846 186.156 396.227 186.156 396.842C186.156 397.457 185.727 397.848 185.072 397.848H179.76V401.871H185.365C186.059 401.871 186.518 402.281 186.518 402.936C186.518 403.59 186.059 404 185.365 404H178.5ZM189.096 404.195C188.441 404.195 187.973 403.775 187.973 403.189C187.973 402.906 188.07 402.682 188.275 402.389L190.902 398.834L188.314 395.26C188.139 395.025 188.051 394.781 188.051 394.498C188.051 393.902 188.559 393.443 189.223 393.443C189.701 393.443 189.945 393.609 190.258 394.098L192.416 397.281H192.465L194.574 394.117C194.887 393.639 195.15 393.443 195.58 393.443C196.264 393.443 196.742 393.873 196.742 394.479C196.742 394.762 196.654 395.006 196.439 395.289L193.861 398.766L196.449 402.379C196.625 402.633 196.713 402.867 196.713 403.121C196.713 403.766 196.205 404.195 195.551 404.195C195.102 404.195 194.838 404.01 194.584 403.619L192.348 400.289H192.299L190.072 403.58C189.77 404.049 189.506 404.195 189.096 404.195ZM199.711 392.193C198.959 392.193 198.363 391.607 198.363 390.875C198.363 390.133 198.959 389.557 199.711 389.557C200.473 389.557 201.068 390.133 201.068 390.875C201.068 391.607 200.473 392.193 199.711 392.193ZM199.711 404.195C198.969 404.195 198.5 403.707 198.5 402.916V394.723C198.5 393.941 198.969 393.443 199.711 393.443C200.453 393.443 200.932 393.941 200.932 394.732V402.916C200.932 403.707 200.453 404.195 199.711 404.195ZM203.646 401.441V395.523H202.992C202.387 395.523 202.016 395.162 202.016 394.576C202.016 394 202.387 393.648 202.992 393.648H203.646V392.271C203.646 391.49 204.115 391.002 204.867 391.002C205.609 391.002 206.078 391.49 206.078 392.271V393.648H207.201C207.807 393.648 208.178 394 208.178 394.576C208.178 395.162 207.807 395.523 207.201 395.523H206.078V400.914C206.078 401.695 206.352 402.037 207.055 402.096L207.23 402.115C207.875 402.174 208.207 402.447 208.207 403.014C208.207 403.727 207.582 404.107 206.469 404.107H206.371C204.564 404.107 203.646 403.209 203.646 401.441ZM218.246 404.205C215.219 404.205 213.266 402.154 213.266 398.834C213.266 395.533 215.209 393.434 218.227 393.434C220.258 393.434 221.986 394.479 222.484 395.934C222.562 396.139 222.611 396.344 222.611 396.52C222.611 397.125 222.152 397.496 221.566 397.496C221.078 397.496 220.785 397.291 220.502 396.803C219.984 395.855 219.301 395.406 218.295 395.406C216.732 395.406 215.736 396.705 215.736 398.824C215.736 400.973 216.742 402.242 218.285 402.242C219.359 402.242 220.023 401.744 220.492 400.914C220.824 400.367 221.088 400.162 221.615 400.162C222.191 400.162 222.641 400.553 222.641 401.158C222.641 401.344 222.592 401.549 222.494 401.783C221.918 403.199 220.199 404.205 218.246 404.205ZM228.861 404.205C225.824 404.205 223.852 402.184 223.852 398.824C223.852 395.484 225.844 393.434 228.861 393.434C231.879 393.434 233.871 395.475 233.871 398.824C233.871 402.184 231.898 404.205 228.861 404.205ZM228.861 402.281C230.404 402.281 231.4 401.031 231.4 398.824C231.4 396.627 230.404 395.367 228.861 395.367C227.328 395.367 226.322 396.627 226.322 398.824C226.322 401.031 227.318 402.281 228.861 402.281ZM236.645 404.195C235.932 404.195 235.434 403.736 235.434 402.916V394.674C235.434 393.922 235.873 393.443 236.596 393.443C237.309 393.443 237.797 393.922 237.797 394.674V395.396H237.846C238.402 394.166 239.477 393.453 241.068 393.453C243.354 393.453 244.652 394.918 244.652 397.311V402.916C244.652 403.736 244.154 404.195 243.441 404.195C242.729 404.195 242.221 403.736 242.221 402.916V397.799C242.221 396.334 241.537 395.514 240.15 395.514C238.754 395.514 237.865 396.52 237.865 398.004V402.916C237.865 403.736 237.357 404.195 236.645 404.195ZM250.473 404.166C247.865 404.166 246.176 402.105 246.176 398.814C246.176 395.543 247.865 393.473 250.473 393.473C251.957 393.473 253.129 394.244 253.676 395.387H253.734V390.992C253.734 390.172 254.232 389.713 254.945 389.713C255.658 389.713 256.166 390.172 256.166 390.992V402.975C256.166 403.756 255.668 404.195 254.965 404.195C254.262 404.195 253.734 403.766 253.734 402.975V402.164H253.686C253.188 403.355 252.074 404.166 250.473 404.166ZM251.205 402.174C252.738 402.174 253.744 400.875 253.744 398.824C253.744 396.793 252.738 395.475 251.205 395.475C249.643 395.475 248.666 396.773 248.666 398.824C248.666 400.885 249.633 402.174 251.205 402.174ZM259.477 392.193C258.725 392.193 258.129 391.607 258.129 390.875C258.129 390.133 258.725 389.557 259.477 389.557C260.238 389.557 260.834 390.133 260.834 390.875C260.834 391.607 260.238 392.193 259.477 392.193ZM259.477 404.195C258.734 404.195 258.266 403.707 258.266 402.916V394.723C258.266 393.941 258.734 393.443 259.477 393.443C260.219 393.443 260.697 393.941 260.697 394.732V402.916C260.697 403.707 260.219 404.195 259.477 404.195ZM263.412 401.441V395.523H262.758C262.152 395.523 261.781 395.162 261.781 394.576C261.781 394 262.152 393.648 262.758 393.648H263.412V392.271C263.412 391.49 263.881 391.002 264.633 391.002C265.375 391.002 265.844 391.49 265.844 392.271V393.648H266.967C267.572 393.648 267.943 394 267.943 394.576C267.943 395.162 267.572 395.523 266.967 395.523H265.844V400.914C265.844 401.695 266.117 402.037 266.82 402.096L266.996 402.115C267.641 402.174 267.973 402.447 267.973 403.014C267.973 403.727 267.348 404.107 266.234 404.107H266.137C264.33 404.107 263.412 403.209 263.412 401.441ZM270.727 392.193C269.975 392.193 269.379 391.607 269.379 390.875C269.379 390.133 269.975 389.557 270.727 389.557C271.488 389.557 272.084 390.133 272.084 390.875C272.084 391.607 271.488 392.193 270.727 392.193ZM270.727 404.195C269.984 404.195 269.516 403.707 269.516 402.916V394.723C269.516 393.941 269.984 393.443 270.727 393.443C271.469 393.443 271.947 393.941 271.947 394.732V402.916C271.947 403.707 271.469 404.195 270.727 404.195ZM278.568 404.205C275.531 404.205 273.559 402.184 273.559 398.824C273.559 395.484 275.551 393.434 278.568 393.434C281.586 393.434 283.578 395.475 283.578 398.824C283.578 402.184 281.605 404.205 278.568 404.205ZM278.568 402.281C280.111 402.281 281.107 401.031 281.107 398.824C281.107 396.627 280.111 395.367 278.568 395.367C277.035 395.367 276.029 396.627 276.029 398.824C276.029 401.031 277.025 402.281 278.568 402.281ZM286.352 404.195C285.639 404.195 285.141 403.736 285.141 402.916V394.674C285.141 393.922 285.58 393.443 286.303 393.443C287.016 393.443 287.504 393.922 287.504 394.674V395.396H287.553C288.109 394.166 289.184 393.453 290.775 393.453C293.061 393.453 294.359 394.918 294.359 397.311V402.916C294.359 403.736 293.861 404.195 293.148 404.195C292.436 404.195 291.928 403.736 291.928 402.916V397.799C291.928 396.334 291.244 395.514 289.857 395.514C288.461 395.514 287.572 396.52 287.572 398.004V402.916C287.572 403.736 287.064 404.195 286.352 404.195ZM300.307 404.205C298.119 404.205 296.586 403.365 296.088 402.125C296.02 401.949 295.99 401.793 295.99 401.646C295.99 401.061 296.42 400.689 297.006 400.689C297.406 400.689 297.748 400.875 298.061 401.285C298.607 402.076 299.232 402.428 300.395 402.428C301.527 402.428 302.279 401.949 302.279 401.168C302.279 400.543 301.889 400.201 300.824 399.957L299.145 399.576C297.123 399.117 296.127 398.121 296.127 396.617C296.127 394.693 297.787 393.434 300.346 393.434C302.338 393.434 303.881 394.41 304.203 395.602C304.232 395.729 304.252 395.846 304.252 395.963C304.252 396.471 303.93 396.832 303.314 396.832C302.963 396.832 302.611 396.705 302.387 396.383C301.908 395.67 301.312 395.221 300.287 395.221C299.223 395.221 298.49 395.738 298.49 396.48C298.49 397.086 298.939 397.496 300.014 397.74L301.664 398.102C303.852 398.6 304.721 399.391 304.721 400.924C304.721 402.906 302.943 404.205 300.307 404.205Z" fill="#E5D7F5"/>
<rect x="176" y="420" width="168.557" height="48" rx="16" fill="#CBB0EB"/>
<path fill-rule="evenodd" clip-rule="evenodd" d="M201.223 434.05C201.448 434.121 201.645 434.262 201.785 434.453C201.925 434.644 202.001 434.874 202 435.11V440.666H206.445C206.648 440.666 206.848 440.722 207.021 440.827C207.195 440.932 207.337 441.083 207.431 441.263C207.525 441.444 207.567 441.646 207.554 441.849C207.541 442.052 207.473 442.247 207.356 442.414L199.578 453.525C199.443 453.719 199.249 453.864 199.025 453.941C198.801 454.017 198.559 454.02 198.333 453.949C198.108 453.878 197.911 453.737 197.771 453.546C197.631 453.355 197.556 453.125 197.556 452.888V447.333H193.112C192.908 447.333 192.709 447.277 192.535 447.172C192.361 447.066 192.22 446.915 192.126 446.735C192.032 446.555 191.989 446.352 192.002 446.15C192.015 445.947 192.084 445.751 192.2 445.585L199.978 434.474C200.114 434.28 200.308 434.135 200.531 434.059C200.755 433.983 200.997 433.98 201.223 434.051V434.05Z" fill="#1F1738"/>
<path d="M219.416 449.688C217.807 449.688 216.549 448.922 216.057 447.672C215.947 447.367 215.885 447.117 215.885 446.789C215.885 446.195 216.252 445.82 216.822 445.82C217.33 445.82 217.627 446.07 217.791 446.641C218.025 447.469 218.588 447.922 219.393 447.922C220.471 447.922 221.057 447.266 221.057 446.047V439.141C221.057 438.477 221.432 438.094 222.064 438.094C222.689 438.094 223.064 438.477 223.064 439.141V446.062C223.064 448.359 221.705 449.688 219.416 449.688ZM228.58 449.664C226.15 449.664 224.572 448.047 224.572 445.359C224.572 442.688 226.166 441.047 228.58 441.047C230.994 441.047 232.588 442.68 232.588 445.359C232.588 448.047 231.01 449.664 228.58 449.664ZM228.58 448.125C229.814 448.125 230.611 447.125 230.611 445.359C230.611 443.602 229.814 442.594 228.58 442.594C227.354 442.594 226.549 443.602 226.549 445.359C226.549 447.125 227.346 448.125 228.58 448.125ZM234.854 440.055C234.252 440.055 233.775 439.586 233.775 439C233.775 438.406 234.252 437.945 234.854 437.945C235.463 437.945 235.939 438.406 235.939 439C235.939 439.586 235.463 440.055 234.854 440.055ZM234.854 449.656C234.26 449.656 233.885 449.266 233.885 448.633V442.078C233.885 441.453 234.26 441.055 234.854 441.055C235.447 441.055 235.83 441.453 235.83 442.086V448.633C235.83 449.266 235.447 449.656 234.854 449.656ZM238.432 449.656C237.861 449.656 237.463 449.289 237.463 448.633V442.039C237.463 441.438 237.814 441.055 238.393 441.055C238.963 441.055 239.354 441.438 239.354 442.039V442.617H239.393C239.838 441.633 240.697 441.062 241.971 441.062C243.799 441.062 244.838 442.234 244.838 444.148V448.633C244.838 449.289 244.439 449.656 243.869 449.656C243.299 449.656 242.893 449.289 242.893 448.633V444.539C242.893 443.367 242.346 442.711 241.236 442.711C240.119 442.711 239.408 443.516 239.408 444.703V448.633C239.408 449.289 239.002 449.656 238.432 449.656ZM253.244 449.664C250.822 449.664 249.26 448.023 249.26 445.367C249.26 442.727 250.814 441.047 253.229 441.047C254.854 441.047 256.236 441.883 256.635 443.047C256.697 443.211 256.736 443.375 256.736 443.516C256.736 444 256.369 444.297 255.9 444.297C255.51 444.297 255.275 444.133 255.049 443.742C254.635 442.984 254.088 442.625 253.283 442.625C252.033 442.625 251.236 443.664 251.236 445.359C251.236 447.078 252.041 448.094 253.275 448.094C254.135 448.094 254.666 447.695 255.041 447.031C255.307 446.594 255.518 446.43 255.939 446.43C256.4 446.43 256.76 446.742 256.76 447.227C256.76 447.375 256.721 447.539 256.643 447.727C256.182 448.859 254.807 449.664 253.244 449.664ZM261.736 449.664C259.307 449.664 257.729 448.047 257.729 445.359C257.729 442.688 259.322 441.047 261.736 441.047C264.15 441.047 265.744 442.68 265.744 445.359C265.744 448.047 264.166 449.664 261.736 449.664ZM261.736 448.125C262.971 448.125 263.768 447.125 263.768 445.359C263.768 443.602 262.971 442.594 261.736 442.594C260.51 442.594 259.705 443.602 259.705 445.359C259.705 447.125 260.502 448.125 261.736 448.125ZM267.963 449.656C267.377 449.656 266.994 449.281 266.994 448.633V442.047C266.994 441.414 267.377 441.055 267.924 441.055C268.471 441.055 268.861 441.414 268.861 442.047V442.656H268.9C269.26 441.695 270.135 441.062 271.26 441.062C272.432 441.062 273.268 441.664 273.572 442.727H273.619C274.018 441.703 275.002 441.062 276.197 441.062C277.83 441.062 278.9 442.164 278.9 443.82V448.633C278.9 449.281 278.51 449.656 277.932 449.656C277.346 449.656 276.955 449.281 276.955 448.633V444.297C276.955 443.281 276.424 442.703 275.471 442.703C274.533 442.703 273.893 443.391 273.893 444.383V448.633C273.893 449.281 273.525 449.656 272.947 449.656C272.361 449.656 272.002 449.281 272.002 448.633V444.195C272.002 443.273 271.439 442.703 270.533 442.703C269.596 442.703 268.939 443.43 268.939 444.43V448.633C268.939 449.281 268.541 449.656 267.963 449.656ZM281.432 449.656C280.846 449.656 280.463 449.281 280.463 448.633V442.047C280.463 441.414 280.846 441.055 281.393 441.055C281.939 441.055 282.33 441.414 282.33 442.047V442.656H282.369C282.729 441.695 283.604 441.062 284.729 441.062C285.9 441.062 286.736 441.664 287.041 442.727H287.088C287.486 441.703 288.471 441.062 289.666 441.062C291.299 441.062 292.369 442.164 292.369 443.82V448.633C292.369 449.281 291.979 449.656 291.4 449.656C290.814 449.656 290.424 449.281 290.424 448.633V444.297C290.424 443.281 289.893 442.703 288.939 442.703C288.002 442.703 287.361 443.391 287.361 444.383V448.633C287.361 449.281 286.994 449.656 286.416 449.656C285.83 449.656 285.471 449.281 285.471 448.633V444.195C285.471 443.273 284.908 442.703 284.002 442.703C283.064 442.703 282.408 443.43 282.408 444.43V448.633C282.408 449.281 282.01 449.656 281.432 449.656ZM296.83 449.648C295.033 449.648 293.893 448.484 293.893 446.57V442.078C293.893 441.43 294.291 441.055 294.861 441.055C295.432 441.055 295.838 441.43 295.838 442.086V446.18C295.838 447.367 296.416 448.008 297.51 448.008C298.635 448.008 299.33 447.211 299.33 446.008V442.078C299.33 441.43 299.736 441.055 300.307 441.055C300.869 441.055 301.275 441.43 301.275 442.086V448.672C301.275 449.297 300.9 449.656 300.346 449.656C299.783 449.656 299.4 449.297 299.4 448.672V448.062H299.361C298.924 449.07 298.088 449.648 296.83 449.648ZM303.838 449.656C303.268 449.656 302.869 449.289 302.869 448.633V442.039C302.869 441.438 303.221 441.055 303.799 441.055C304.369 441.055 304.76 441.438 304.76 442.039V442.617H304.799C305.244 441.633 306.104 441.062 307.377 441.062C309.205 441.062 310.244 442.234 310.244 444.148V448.633C310.244 449.289 309.846 449.656 309.275 449.656C308.705 449.656 308.299 449.289 308.299 448.633V444.539C308.299 443.367 307.752 442.711 306.643 442.711C305.525 442.711 304.814 443.516 304.814 444.703V448.633C304.814 449.289 304.408 449.656 303.838 449.656ZM312.822 440.055C312.221 440.055 311.744 439.586 311.744 439C311.744 438.406 312.221 437.945 312.822 437.945C313.432 437.945 313.908 438.406 313.908 439C313.908 439.586 313.432 440.055 312.822 440.055ZM312.822 449.656C312.229 449.656 311.854 449.266 311.854 448.633V442.078C311.854 441.453 312.229 441.055 312.822 441.055C313.416 441.055 313.799 441.453 313.799 442.086V448.633C313.799 449.266 313.416 449.656 312.822 449.656ZM315.971 447.453V442.719H315.447C314.963 442.719 314.666 442.43 314.666 441.961C314.666 441.5 314.963 441.219 315.447 441.219H315.971V440.117C315.971 439.492 316.346 439.102 316.947 439.102C317.541 439.102 317.916 439.492 317.916 440.117V441.219H318.814C319.299 441.219 319.596 441.5 319.596 441.961C319.596 442.43 319.299 442.719 318.814 442.719H317.916V447.031C317.916 447.656 318.135 447.93 318.697 447.977L318.838 447.992C319.354 448.039 319.619 448.258 319.619 448.711C319.619 449.281 319.119 449.586 318.229 449.586H318.15C316.705 449.586 315.971 448.867 315.971 447.453ZM321.994 452.578C321.119 452.578 320.643 452.25 320.643 451.656C320.643 451.258 320.924 451 321.377 451C321.541 451 321.619 451.008 321.799 451.008C322.236 451.008 322.689 450.781 322.979 450.055L323.119 449.648L320.408 442.516C320.338 442.32 320.299 442.117 320.299 441.961C320.299 441.43 320.729 441.055 321.299 441.055C321.791 441.055 322.064 441.273 322.229 441.82L324.205 447.844H324.236L326.213 441.812C326.377 441.281 326.658 441.055 327.15 441.055C327.705 441.055 328.096 441.422 328.096 441.938C328.096 442.094 328.057 442.312 327.986 442.5L325.26 449.797C324.51 451.859 323.65 452.578 321.994 452.578Z" fill="#1F1738"/>
<rect x="354.557" y="420" width="186.557" height="48" rx="16" fill="#CBB0EB"/>
<path fill-rule="evenodd" clip-rule="evenodd" d="M379.779 434.05C380.005 434.121 380.202 434.262 380.342 434.453C380.482 434.644 380.557 434.874 380.557 435.11V440.666H385.002C385.205 440.666 385.404 440.722 385.578 440.827C385.752 440.932 385.893 441.083 385.987 441.263C386.081 441.444 386.124 441.646 386.111 441.849C386.098 442.052 386.029 442.247 385.913 442.414L378.135 453.525C378 453.719 377.806 453.864 377.582 453.941C377.358 454.017 377.116 454.02 376.89 453.949C376.665 453.878 376.468 453.737 376.328 453.546C376.188 453.355 376.113 453.125 376.113 452.888V447.333H371.668C371.465 447.333 371.266 447.277 371.092 447.172C370.918 447.066 370.776 446.915 370.682 446.735C370.589 446.555 370.546 446.352 370.559 446.15C370.572 445.947 370.641 445.751 370.757 445.585L378.535 434.474C378.67 434.28 378.864 434.135 379.088 434.059C379.312 433.983 379.554 433.98 379.779 434.051V434.05Z" fill="#1F1738"/>
<path d="M396.113 449.656C395.488 449.656 395.105 449.266 395.105 448.609V439.273C395.105 438.617 395.488 438.227 396.113 438.227H399.582C402.02 438.227 403.48 439.578 403.48 441.734C403.48 443.203 402.73 444.406 401.426 444.914L403.207 448.039C403.379 448.328 403.426 448.5 403.426 448.734C403.426 449.266 402.988 449.656 402.41 449.656C401.934 449.656 401.699 449.484 401.387 448.93L399.379 445.258H397.121V448.609C397.121 449.266 396.738 449.656 396.113 449.656ZM397.121 443.711H399.395C400.676 443.711 401.418 443 401.418 441.781C401.418 440.594 400.629 439.859 399.355 439.859H397.121V443.711ZM408.543 449.664C406.012 449.664 404.52 448.078 404.52 445.391C404.52 442.75 406.043 441.047 408.434 441.047C410.699 441.047 412.246 442.656 412.246 444.906C412.246 445.484 411.918 445.828 411.34 445.828H406.457V445.891C406.457 447.273 407.262 448.164 408.527 448.164C409.402 448.164 409.973 447.859 410.598 447.062C410.801 446.836 410.98 446.75 411.254 446.75C411.691 446.75 412.035 447.031 412.035 447.5C412.035 447.648 411.988 447.82 411.902 447.992C411.355 449.047 410.121 449.664 408.543 449.664ZM406.473 444.547H410.34C410.301 443.344 409.535 442.555 408.441 442.555C407.348 442.555 406.551 443.359 406.473 444.547ZM417.145 449.664C414.723 449.664 413.16 448.023 413.16 445.367C413.16 442.727 414.715 441.047 417.129 441.047C418.754 441.047 420.137 441.883 420.535 443.047C420.598 443.211 420.637 443.375 420.637 443.516C420.637 444 420.27 444.297 419.801 444.297C419.41 444.297 419.176 444.133 418.949 443.742C418.535 442.984 417.988 442.625 417.184 442.625C415.934 442.625 415.137 443.664 415.137 445.359C415.137 447.078 415.941 448.094 417.176 448.094C418.035 448.094 418.566 447.695 418.941 447.031C419.207 446.594 419.418 446.43 419.84 446.43C420.301 446.43 420.66 446.742 420.66 447.227C420.66 447.375 420.621 447.539 420.543 447.727C420.082 448.859 418.707 449.664 417.145 449.664ZM425.652 449.664C423.121 449.664 421.629 448.078 421.629 445.391C421.629 442.75 423.152 441.047 425.543 441.047C427.809 441.047 429.355 442.656 429.355 444.906C429.355 445.484 429.027 445.828 428.449 445.828H423.566V445.891C423.566 447.273 424.371 448.164 425.637 448.164C426.512 448.164 427.082 447.859 427.707 447.062C427.91 446.836 428.09 446.75 428.363 446.75C428.801 446.75 429.145 447.031 429.145 447.5C429.145 447.648 429.098 447.82 429.012 447.992C428.465 449.047 427.23 449.664 425.652 449.664ZM423.582 444.547H427.449C427.41 443.344 426.645 442.555 425.551 442.555C424.457 442.555 423.66 443.359 423.582 444.547ZM431.629 440.055C431.027 440.055 430.551 439.586 430.551 439C430.551 438.406 431.027 437.945 431.629 437.945C432.238 437.945 432.715 438.406 432.715 439C432.715 439.586 432.238 440.055 431.629 440.055ZM431.629 449.656C431.035 449.656 430.66 449.266 430.66 448.633V442.078C430.66 441.453 431.035 441.055 431.629 441.055C432.223 441.055 432.605 441.453 432.605 442.086V448.633C432.605 449.266 432.223 449.656 431.629 449.656ZM437.551 449.656C436.832 449.656 436.441 449.367 436.184 448.664L433.855 442.492C433.793 442.32 433.746 442.125 433.746 441.938C433.746 441.406 434.16 441.055 434.723 441.055C435.184 441.055 435.496 441.305 435.645 441.828L437.535 447.695H437.574L439.465 441.812C439.613 441.297 439.926 441.055 440.379 441.055C440.926 441.055 441.324 441.43 441.324 441.93C441.324 442.109 441.285 442.297 441.223 442.461L438.895 448.664C438.652 449.344 438.238 449.656 437.551 449.656ZM445.871 449.664C443.34 449.664 441.848 448.078 441.848 445.391C441.848 442.75 443.371 441.047 445.762 441.047C448.027 441.047 449.574 442.656 449.574 444.906C449.574 445.484 449.246 445.828 448.668 445.828H443.785V445.891C443.785 447.273 444.59 448.164 445.855 448.164C446.73 448.164 447.301 447.859 447.926 447.062C448.129 446.836 448.309 446.75 448.582 446.75C449.02 446.75 449.363 447.031 449.363 447.5C449.363 447.648 449.316 447.82 449.23 447.992C448.684 449.047 447.449 449.664 445.871 449.664ZM443.801 444.547H447.668C447.629 443.344 446.863 442.555 445.77 442.555C444.676 442.555 443.879 443.359 443.801 444.547ZM455.551 449.656C454.965 449.656 454.574 449.297 454.574 448.641V442.719H454.059C453.621 442.719 453.309 442.453 453.309 441.977C453.309 441.523 453.621 441.242 454.059 441.242H454.574V440.508C454.574 438.891 455.363 438.148 456.855 438.141C457.887 438.141 458.348 438.469 458.348 438.953C458.348 439.25 458.207 439.43 457.918 439.516C457.793 439.547 457.66 439.562 457.488 439.57C456.777 439.586 456.488 439.898 456.488 440.594V441.242H457.535C457.965 441.242 458.277 441.523 458.277 441.977C458.277 442.453 457.965 442.719 457.535 442.719H456.52V448.641C456.52 449.297 456.129 449.656 455.551 449.656ZM460.441 440.055C459.84 440.055 459.363 439.586 459.363 439C459.363 438.406 459.84 437.945 460.441 437.945C461.051 437.945 461.527 438.406 461.527 439C461.527 439.586 461.051 440.055 460.441 440.055ZM460.441 449.656C459.848 449.656 459.473 449.266 459.473 448.633V442.078C459.473 441.453 459.848 441.055 460.441 441.055C461.035 441.055 461.418 441.453 461.418 442.086V448.633C461.418 449.266 461.035 449.656 460.441 449.656ZM464.02 449.656C463.449 449.656 463.051 449.289 463.051 448.633V442.039C463.051 441.438 463.402 441.055 463.98 441.055C464.551 441.055 464.941 441.438 464.941 442.039V442.617H464.98C465.426 441.633 466.285 441.062 467.559 441.062C469.387 441.062 470.426 442.234 470.426 444.148V448.633C470.426 449.289 470.027 449.656 469.457 449.656C468.887 449.656 468.48 449.289 468.48 448.633V444.539C468.48 443.367 467.934 442.711 466.824 442.711C465.707 442.711 464.996 443.516 464.996 444.703V448.633C464.996 449.289 464.59 449.656 464.02 449.656ZM474.418 449.633C472.816 449.633 471.652 448.625 471.652 447.133C471.652 445.664 472.785 444.781 474.801 444.656L476.996 444.531V443.938C476.996 443.07 476.41 442.57 475.449 442.57C474.691 442.57 474.199 442.828 473.715 443.539C473.512 443.805 473.254 443.93 472.926 443.93C472.449 443.93 472.105 443.617 472.105 443.148C472.105 442.969 472.152 442.797 472.238 442.617C472.66 441.656 473.941 441.047 475.527 441.047C477.582 441.047 478.918 442.133 478.918 443.797V448.68C478.918 449.305 478.52 449.656 477.973 449.656C477.441 449.656 477.074 449.336 477.043 448.758V448.18H477.004C476.527 449.078 475.488 449.633 474.418 449.633ZM475.012 448.164C476.105 448.164 476.996 447.43 476.996 446.43V445.797L475.074 445.914C474.137 445.977 473.598 446.398 473.598 447.055C473.598 447.734 474.168 448.164 475.012 448.164ZM481.52 449.656C480.949 449.656 480.543 449.289 480.543 448.633V439.094C480.543 438.438 480.949 438.07 481.52 438.07C482.09 438.07 482.488 438.438 482.488 439.094V448.633C482.488 449.289 482.09 449.656 481.52 449.656ZM491.027 449.664C488.496 449.664 487.004 448.078 487.004 445.391C487.004 442.75 488.527 441.047 490.918 441.047C493.184 441.047 494.73 442.656 494.73 444.906C494.73 445.484 494.402 445.828 493.824 445.828H488.941V445.891C488.941 447.273 489.746 448.164 491.012 448.164C491.887 448.164 492.457 447.859 493.082 447.062C493.285 446.836 493.465 446.75 493.738 446.75C494.176 446.75 494.52 447.031 494.52 447.5C494.52 447.648 494.473 447.82 494.387 447.992C493.84 449.047 492.605 449.664 491.027 449.664ZM488.957 444.547H492.824C492.785 443.344 492.02 442.555 490.926 442.555C489.832 442.555 489.035 443.359 488.957 444.547ZM496.957 449.656C496.371 449.656 495.988 449.281 495.988 448.633V442.047C495.988 441.414 496.371 441.055 496.918 441.055C497.465 441.055 497.855 441.414 497.855 442.047V442.656H497.895C498.254 441.695 499.129 441.062 500.254 441.062C501.426 441.062 502.262 441.664 502.566 442.727H502.613C503.012 441.703 503.996 441.062 505.191 441.062C506.824 441.062 507.895 442.164 507.895 443.82V448.633C507.895 449.281 507.504 449.656 506.926 449.656C506.34 449.656 505.949 449.281 505.949 448.633V444.297C505.949 443.281 505.418 442.703 504.465 442.703C503.527 442.703 502.887 443.391 502.887 444.383V448.633C502.887 449.281 502.52 449.656 501.941 449.656C501.355 449.656 500.996 449.281 500.996 448.633V444.195C500.996 443.273 500.434 442.703 499.527 442.703C498.59 442.703 497.934 443.43 497.934 444.43V448.633C497.934 449.281 497.535 449.656 496.957 449.656ZM511.887 449.633C510.285 449.633 509.121 448.625 509.121 447.133C509.121 445.664 510.254 444.781 512.27 444.656L514.465 444.531V443.938C514.465 443.07 513.879 442.57 512.918 442.57C512.16 442.57 511.668 442.828 511.184 443.539C510.98 443.805 510.723 443.93 510.395 443.93C509.918 443.93 509.574 443.617 509.574 443.148C509.574 442.969 509.621 442.797 509.707 442.617C510.129 441.656 511.41 441.047 512.996 441.047C515.051 441.047 516.387 442.133 516.387 443.797V448.68C516.387 449.305 515.988 449.656 515.441 449.656C514.91 449.656 514.543 449.336 514.512 448.758V448.18H514.473C513.996 449.078 512.957 449.633 511.887 449.633ZM512.48 448.164C513.574 448.164 514.465 447.43 514.465 446.43V445.797L512.543 445.914C511.605 445.977 511.066 446.398 511.066 447.055C511.066 447.734 511.637 448.164 512.48 448.164ZM518.973 440.055C518.371 440.055 517.895 439.586 517.895 439C517.895 438.406 518.371 437.945 518.973 437.945C519.582 437.945 520.059 438.406 520.059 439C520.059 439.586 519.582 440.055 518.973 440.055ZM518.973 449.656C518.379 449.656 518.004 449.266 518.004 448.633V442.078C518.004 441.453 518.379 441.055 518.973 441.055C519.566 441.055 519.949 441.453 519.949 442.086V448.633C519.949 449.266 519.566 449.656 518.973 449.656ZM522.613 449.656C522.043 449.656 521.637 449.289 521.637 448.633V439.094C521.637 438.438 522.043 438.07 522.613 438.07C523.184 438.07 523.582 438.438 523.582 439.094V448.633C523.582 449.289 523.184 449.656 522.613 449.656Z" fill="#1F1738"/>
<path d="M178.5 514C177.719 514 177.24 513.512 177.24 512.691V501.217C177.24 500.396 177.719 499.908 178.5 499.908H185.365C186.059 499.908 186.518 500.318 186.518 500.973C186.518 501.627 186.059 502.037 185.365 502.037H179.76V505.846H185.072C185.717 505.846 186.156 506.227 186.156 506.842C186.156 507.457 185.727 507.848 185.072 507.848H179.76V511.871H185.365C186.059 511.871 186.518 512.281 186.518 512.936C186.518 513.59 186.059 514 185.365 514H178.5ZM189.516 514.195C188.783 514.195 188.305 513.727 188.305 512.916V504.684C188.305 503.893 188.783 503.443 189.467 503.443C190.15 503.443 190.639 503.893 190.639 504.684V505.445H190.688C191.137 504.244 192.23 503.453 193.637 503.453C195.102 503.453 196.146 504.205 196.527 505.533H196.586C197.084 504.254 198.314 503.453 199.809 503.453C201.85 503.453 203.188 504.83 203.188 506.9V512.916C203.188 513.727 202.699 514.195 201.977 514.195C201.244 514.195 200.756 513.727 200.756 512.916V507.496C200.756 506.227 200.092 505.504 198.9 505.504C197.729 505.504 196.928 506.363 196.928 507.604V512.916C196.928 513.727 196.469 514.195 195.746 514.195C195.014 514.195 194.564 513.727 194.564 512.916V507.369C194.564 506.217 193.861 505.504 192.729 505.504C191.557 505.504 190.736 506.412 190.736 507.662V512.916C190.736 513.727 190.238 514.195 189.516 514.195ZM208.178 514.166C206.176 514.166 204.721 512.906 204.721 511.041C204.721 509.205 206.137 508.102 208.656 507.945L211.4 507.789V507.047C211.4 505.963 210.668 505.338 209.467 505.338C208.52 505.338 207.904 505.66 207.299 506.549C207.045 506.881 206.723 507.037 206.312 507.037C205.717 507.037 205.287 506.646 205.287 506.061C205.287 505.836 205.346 505.621 205.453 505.396C205.98 504.195 207.582 503.434 209.564 503.434C212.133 503.434 213.803 504.791 213.803 506.871V512.975C213.803 513.756 213.305 514.195 212.621 514.195C211.957 514.195 211.498 513.795 211.459 513.072V512.35H211.41C210.814 513.473 209.516 514.166 208.178 514.166ZM208.92 512.33C210.287 512.33 211.4 511.412 211.4 510.162V509.371L208.998 509.518C207.826 509.596 207.152 510.123 207.152 510.943C207.152 511.793 207.865 512.33 208.92 512.33ZM217.035 502.193C216.283 502.193 215.688 501.607 215.688 500.875C215.688 500.133 216.283 499.557 217.035 499.557C217.797 499.557 218.393 500.133 218.393 500.875C218.393 501.607 217.797 502.193 217.035 502.193ZM217.035 514.195C216.293 514.195 215.824 513.707 215.824 512.916V504.723C215.824 503.941 216.293 503.443 217.035 503.443C217.777 503.443 218.256 503.941 218.256 504.732V512.916C218.256 513.707 217.777 514.195 217.035 514.195ZM221.586 514.195C220.873 514.195 220.365 513.736 220.365 512.916V500.992C220.365 500.172 220.873 499.713 221.586 499.713C222.299 499.713 222.797 500.172 222.797 500.992V512.916C222.797 513.736 222.299 514.195 221.586 514.195ZM228.861 514.205C226.674 514.205 225.141 513.365 224.643 512.125C224.574 511.949 224.545 511.793 224.545 511.646C224.545 511.061 224.975 510.689 225.561 510.689C225.961 510.689 226.303 510.875 226.615 511.285C227.162 512.076 227.787 512.428 228.949 512.428C230.082 512.428 230.834 511.949 230.834 511.168C230.834 510.543 230.443 510.201 229.379 509.957L227.699 509.576C225.678 509.117 224.682 508.121 224.682 506.617C224.682 504.693 226.342 503.434 228.9 503.434C230.893 503.434 232.436 504.41 232.758 505.602C232.787 505.729 232.807 505.846 232.807 505.963C232.807 506.471 232.484 506.832 231.869 506.832C231.518 506.832 231.166 506.705 230.941 506.383C230.463 505.67 229.867 505.221 228.842 505.221C227.777 505.221 227.045 505.738 227.045 506.48C227.045 507.086 227.494 507.496 228.568 507.74L230.219 508.102C232.406 508.6 233.275 509.391 233.275 510.924C233.275 512.906 231.498 514.205 228.861 514.205Z" fill="#E5D7F5"/>
<rect x="176" y="530" width="32" height="32" rx="8" fill="#CBB0EB"/>
<path d="M192.879 552.685C192.097 552.685 191.561 552.157 191.561 551.357V542.278H191.508L189.653 543.57C189.407 543.746 189.223 543.808 188.95 543.808C188.414 543.808 188.019 543.421 188.019 542.858C188.019 542.454 188.177 542.155 188.59 541.865L191.104 540.125C191.719 539.703 192.141 539.624 192.686 539.624C193.626 539.624 194.188 540.195 194.188 541.109V551.357C194.188 552.157 193.661 552.685 192.879 552.685Z" fill="#1F1738"/>
<rect opacity="0.4" x="224" y="540" width="110" height="12" rx="6" fill="#847399"/>
<path d="M176 582C176 577.582 179.582 574 184 574H200C204.418 574 208 577.582 208 582V598C208 602.418 204.418 606 200 606H184C179.582 606 176 602.418 176 598V582Z" fill="#CBB0EB"/>
<path d="M188.627 596.5C187.792 596.5 187.379 596.034 187.379 595.366C187.379 594.865 187.572 594.531 188.108 594.039L191.888 590.427C193.452 588.924 193.856 588.309 193.856 587.395C193.856 586.349 193.048 585.602 191.914 585.602C190.895 585.602 190.191 586.111 189.734 587.131C189.436 587.658 189.128 587.904 188.557 587.904C187.845 587.904 187.423 587.482 187.423 586.823C187.423 586.621 187.458 586.437 187.52 586.252C187.95 584.846 189.541 583.536 191.94 583.536C194.63 583.536 196.44 585.048 196.44 587.228C196.44 588.774 195.685 589.741 193.61 591.701L190.868 594.338V594.391H195.649C196.335 594.391 196.748 594.804 196.748 595.445C196.748 596.069 196.335 596.5 195.649 596.5H188.627Z" fill="#1F1738"/>
<rect opacity="0.4" x="224" y="584" width="240" height="12" rx="6" fill="#847399"/>
<path d="M176 626C176 621.582 179.582 618 184 618H200C204.418 618 208 621.582 208 626V642C208 646.418 204.418 650 200 650H184C179.582 650 176 646.418 176 642V626Z" fill="#CBB0EB"/>
<path d="M191.607 640.781C189.19 640.781 187.705 639.735 187.107 638.487C186.967 638.197 186.905 637.916 186.905 637.652C186.905 636.967 187.345 636.536 188.074 636.536C188.602 636.536 188.936 636.747 189.199 637.23C189.647 638.118 190.333 638.646 191.651 638.646C192.952 638.646 193.849 637.89 193.849 636.835C193.857 635.604 192.952 634.919 191.414 634.919H190.86C190.219 634.919 189.85 634.541 189.85 633.97C189.85 633.416 190.219 633.029 190.86 633.029H191.379C192.706 633.029 193.567 632.309 193.567 631.271C193.567 630.252 192.882 629.575 191.599 629.575C190.526 629.575 189.876 630.023 189.463 630.92C189.173 631.518 188.865 631.737 188.268 631.737C187.529 631.737 187.151 631.307 187.151 630.665C187.151 630.366 187.213 630.111 187.345 629.812C187.907 628.573 189.349 627.536 191.59 627.536C194.271 627.536 196.081 628.863 196.081 630.894C196.081 632.502 194.93 633.557 193.436 633.864V633.917C195.325 634.093 196.547 635.2 196.547 636.949C196.547 639.252 194.552 640.781 191.607 640.781Z" fill="#1F1738"/>
<rect opacity="0.4" x="224" y="628" width="153" height="12" rx="6" fill="#847399"/>
<g clip-path="url(#clip4_2082_186)">
<path d="M842.085 153.305C851.074 152.597 855.568 152.244 859.438 154.089C863.308 155.935 865.861 159.65 870.969 167.08L891.955 197.613C897.062 205.044 899.616 208.759 899.953 213.033C900.289 217.307 898.349 221.376 894.467 229.514L878.518 262.955C874.637 271.094 872.696 275.163 869.163 277.591C865.63 280.02 861.136 280.374 852.147 281.082L815.212 283.99C806.223 284.698 801.729 285.052 797.859 283.206C793.99 281.361 791.436 277.645 786.329 270.215L765.342 239.682C760.235 232.252 757.681 228.536 757.345 224.262C757.008 219.989 758.949 215.919 762.83 207.781L778.779 174.34C782.66 166.202 784.601 162.132 788.134 159.704C791.667 157.275 796.161 156.922 805.15 156.214L842.085 153.305Z" fill="#E5D7F5"/>
</g>
<g clip-path="url(#clip5_2082_186)">
<path d="M824.44 223.147L819.251 234.027C819.207 234.122 819.143 234.206 819.064 234.274C818.985 234.342 818.892 234.392 818.792 234.422C818.691 234.451 818.586 234.459 818.482 234.445C818.379 234.431 818.28 234.395 818.191 234.339C815.294 232.493 812.943 229.905 811.384 226.843C809.825 223.781 809.115 220.358 809.327 216.929C809.334 216.825 809.363 216.723 809.412 216.631C809.461 216.539 809.528 216.459 809.611 216.395C809.693 216.331 809.788 216.286 809.889 216.261C809.991 216.237 810.096 216.234 810.199 216.253L822.049 218.442C822.2 218.471 822.339 218.547 822.445 218.658C822.551 218.77 822.62 218.912 822.641 219.064C822.838 220.288 823.413 221.419 824.284 222.3C824.396 222.408 824.471 222.547 824.499 222.699C824.527 222.851 824.506 223.008 824.44 223.147ZM836.736 200.819C836.561 200.734 836.371 200.685 836.177 200.673C835.982 200.662 835.787 200.689 835.604 200.754C835.42 200.818 835.251 200.918 835.106 201.048C834.961 201.178 834.843 201.336 834.759 201.511L830.312 210.836C830.142 211.185 830.118 211.587 830.245 211.954C830.371 212.321 830.638 212.623 830.987 212.793C832.248 213.387 833.257 214.409 833.837 215.676C834.417 216.944 834.53 218.376 834.155 219.718C833.781 221.061 832.943 222.227 831.791 223.012C830.639 223.796 829.246 224.148 827.86 224.004C827.706 223.985 827.551 224.015 827.415 224.089C827.28 224.164 827.171 224.279 827.104 224.418L821.916 235.298C821.87 235.392 821.845 235.494 821.842 235.598C821.839 235.703 821.858 235.806 821.898 235.903C821.938 235.999 821.998 236.086 822.074 236.157C822.15 236.229 822.24 236.283 822.339 236.317C826.975 237.891 832.037 237.633 836.489 235.596C840.941 233.559 844.445 229.898 846.285 225.361C848.126 220.824 848.162 215.756 846.386 211.193C844.611 206.631 841.159 202.919 836.736 200.819ZM823.349 215.177C823.786 214.42 824.386 213.769 825.105 213.272L825.111 213.26C825.352 213.095 825.538 212.863 825.646 212.592C825.755 212.321 825.781 212.024 825.72 211.738C825.677 211.541 825.595 211.354 825.48 211.188L819.651 202.698C819.541 202.538 819.401 202.402 819.238 202.296C819.076 202.191 818.894 202.118 818.703 202.083C818.512 202.048 818.317 202.051 818.127 202.091C817.937 202.132 817.758 202.21 817.598 202.32C814.059 204.752 811.437 208.3 810.151 212.396C810.12 212.496 810.109 212.602 810.121 212.706C810.133 212.81 810.168 212.91 810.221 213C810.275 213.09 810.348 213.167 810.434 213.227C810.52 213.286 810.617 213.327 810.72 213.346L822.597 215.536C822.745 215.562 822.897 215.542 823.033 215.478C823.168 215.415 823.281 215.311 823.355 215.18L823.349 215.177Z" fill="#1F1738"/>
</g>
</g>
<defs>
<clipPath id="clip0_2082_186">
<rect width="992" height="640" rx="24" fill="white"/>
</clipPath>
<clipPath id="clip1_2082_186">
<rect width="106" height="106" fill="white" transform="translate(88.5703 374.123) rotate(102.6)"/>
</clipPath>
<clipPath id="clip2_2082_186">
<rect width="106" height="106" fill="white" transform="translate(102.57 47.123) rotate(102.6)"/>
</clipPath>
<clipPath id="clip3_2082_186">
<rect width="106" height="106" fill="white" transform="translate(930.434 435) rotate(15)"/>
</clipPath>
<clipPath id="clip4_2082_186">
<rect width="148" height="148" fill="white" transform="translate(793.711 120) rotate(25.4976)"/>
</clipPath>
<clipPath id="clip5_2082_186">
<rect width="47.2258" height="47.2258" fill="white" transform="translate(817.318 186.654) rotate(25.4976)"/>
</clipPath>
</defs>
</svg>
